<?xml version="1.0" encoding="UTF-8" standalone="no"?>
<svg
   xmlns:dc="http://purl.org/dc/elements/1.1/"
   xmlns:cc="http://creativecommons.org/ns#"
   xmlns:rdf="http://www.w3.org/1999/02/22-rdf-syntax-ns#"
   xmlns:svg="http://www.w3.org/2000/svg"
   xmlns="http://www.w3.org/2000/svg"
   xmlns:sodipodi="http://sodipodi.sourceforge.net/DTD/sodipodi-0.dtd"
   xmlns:inkscape="http://www.inkscape.org/namespaces/inkscape"
   version="1.1"
   width="20"
   id="symbol-restaurant"
   viewBox="10 0 90 115"
   fill="black"
   stroke="none"
   height="20"
   inkscape:version="0.48.5 r10040"
   sodipodi:docname="restaurant.svg">
  <metadata
     id="metadata11">
    <rdf:RDF>
      <cc:Work
         rdf:about="">
        <dc:format>image/svg+xml</dc:format>
        <dc:type
           rdf:resource="http://purl.org/dc/dcmitype/StillImage" />
        <dc:title></dc:title>
        <cc:license
           rdf:resource="http://creativecommons.org/licenses/publicdomain/" />
      </cc:Work>
      <cc:License
         rdf:about="http://creativecommons.org/licenses/publicdomain/">
        <cc:permits
           rdf:resource="http://creativecommons.org/ns#Reproduction" />
        <cc:permits
           rdf:resource="http://creativecommons.org/ns#Distribution" />
        <cc:permits
           rdf:resource="http://creativecommons.org/ns#DerivativeWorks" />
      </cc:License>
    </rdf:RDF>
  </metadata>
  <defs
     id="defs9" />
  <sodipodi:namedview
     pagecolor="#ffffff"
     bordercolor="#666666"
     borderopacity="1"
     objecttolerance="10"
     gridtolerance="10"
     guidetolerance="10"
     inkscape:pageopacity="0"
     inkscape:pageshadow="2"
     inkscape:window-width="711"
     inkscape:window-height="480"
     id="namedview7"
     showgrid="false"
     inkscape:zoom="11.8"
     inkscape:cx="10"
     inkscape:cy="10"
     inkscape:window-x="0"
     inkscape:window-y="0"
     inkscape:window-maximized="0"
     inkscape:current-layer="symbol-restaurant" />
  <path
     d="m 24.13,1.85 c -5.30,0.08 -3.62,21.26 -2.80,30.61 0.04,2.49 0.78,6.85 8.74,6.73 -0.24,64.88 -2.05,75.51 7.24,75.38 9.29,-0.14 7.12,-10.71 3.38,-75.53 7.96,-0.12 9.20,-5.13 9.16,-7.62 C 50.35,22.05 50.67,1.46 45.36,1.54 40.06,1.62 45.65,31.08 41.02,31.77 34.61,25.54 40.06,1.62 34.75,1.70 29.44,1.77 35.18,31.55 29.88,31.63 24,32 29,2 24,2 z"
     id="path3" />
  <path
     d="m 77,45 c 0,56 3,69 -5,69 -10,0 -5,-12 -5,-69 C 44,43 58,1 70,0 84,0 97,44 77,45 z"
     id="path5" />
</svg>
