<?xml version="1.0" encoding="UTF-8" standalone="no"?>
<!-- Created with Inkscape (http://www.inkscape.org/) -->

<svg
   xmlns:dc="http://purl.org/dc/elements/1.1/"
   xmlns:cc="http://creativecommons.org/ns#"
   xmlns:rdf="http://www.w3.org/1999/02/22-rdf-syntax-ns#"
   xmlns:svg="http://www.w3.org/2000/svg"
   xmlns="http://www.w3.org/2000/svg"
   xmlns:sodipodi="http://sodipodi.sourceforge.net/DTD/sodipodi-0.dtd"
   xmlns:inkscape="http://www.inkscape.org/namespaces/inkscape"
   width="32"
   height="32"
   id="svg2"
   sodipodi:version="0.32"
   inkscape:version="0.48.1 "
   version="1.0"
   sodipodi:docname="love_hotel.svg"
   inkscape:output_extension="org.inkscape.output.svg.inkscape">
  <defs
     id="defs4" />
  <sodipodi:namedview
     id="base"
     pagecolor="#ffffff"
     bordercolor="#666666"
     borderopacity="1.0"
     gridtolerance="10000"
     guidetolerance="10"
     objecttolerance="10"
     inkscape:pageopacity="0.0"
     inkscape:pageshadow="2"
     inkscape:zoom="16.278741"
     inkscape:cx="6.7590938"
     inkscape:cy="16.25527"
     inkscape:document-units="px"
     inkscape:current-layer="layer1"
     width="32px"
     height="32px"
     inkscape:window-width="1366"
     inkscape:window-height="712"
     inkscape:window-x="-4"
     inkscape:window-y="-4"
     showgrid="false"
     inkscape:window-maximized="1" />
  <metadata
     id="metadata7">
    <rdf:RDF>
      <cc:Work
         rdf:about="">
        <dc:format>image/svg+xml</dc:format>
        <dc:type
           rdf:resource="http://purl.org/dc/dcmitype/StillImage" />
        <cc:license
           rdf:resource="http://web.resource.org/cc/PublicDomain" />
        <dc:title></dc:title>
      </cc:Work>
      <cc:License
         rdf:about="http://web.resource.org/cc/PublicDomain">
        <cc:permits
           rdf:resource="http://web.resource.org/cc/Reproduction" />
        <cc:permits
           rdf:resource="http://web.resource.org/cc/Distribution" />
        <cc:permits
           rdf:resource="http://web.resource.org/cc/DerivativeWorks" />
      </cc:License>
    </rdf:RDF>
  </metadata>
  <g
     inkscape:label="Layer 1"
     inkscape:groupmode="layer"
     id="layer1">
    <path
       style="fill:#ff7ffd;fill-opacity:1;stroke:#000000;stroke-width:1px;stroke-linecap:butt;stroke-linejoin:miter;stroke-opacity:0"
       d="m 17.135819,2.8761592 c 0.780227,-0.6890238 1.805276,-1.1109277 2.820711,-1.3398377 0.96308,-0.2171078 1.997646,-0.2125331 2.961746,0 1.037292,0.2286679 2.04886,0.6927854 2.891229,1.3398377 0.582371,0.4473385 1.113667,1.0206797 1.410355,1.6924266 0.278014,0.6294644 0.39793,1.3667131 0.282072,2.0450154 -1.50452,8.8083958 -12.270093,23.8350078 -12.270093,23.8350078 0,0 -11.3881347,-14.492868 -12.3406103,-23.2003478 C 2.7479803,5.9386918 3.3137208,4.594389 3.9489954,3.4403014 4.2700025,2.8571357 4.7403079,2.3365858 5.2888331,1.9594281 5.9326918,1.5167205 6.7002365,1.2155138 7.4748841,1.1132148 c 1.3124706,-0.17332317 2.7074519,-0.03645 3.9489949,0.4231067 0.856043,0.3168641 1.628567,0.8889514 2.256569,1.551391 0.714691,0.753882 1.626063,2.6585732 1.626063,2.6585732 0.286226,-0.7262799 0.978928,-2.1191508 1.829308,-2.8701265 z"
       id="path2988"
       inkscape:connector-curvature="0"
       sodipodi:nodetypes="aaaaaacaaaaaaca" />
    <path
       style="fill:none;fill-rule:evenodd;stroke:#000000;stroke-width:2;stroke-linecap:butt;stroke-linejoin:miter;stroke-opacity:1;stroke-miterlimit:4;stroke-dasharray:none"
       d="M 2.6785714,14.321429 L 2.5,28.25"
       id="path2157" />
    <path
       style="fill:none;fill-rule:evenodd;stroke:#000000;stroke-width:2;stroke-linecap:butt;stroke-linejoin:miter;stroke-opacity:1;stroke-miterlimit:4;stroke-dasharray:none"
       d="M 2.8571429,23.071429 L 29.642857,23.25"
       id="path2159" />
    <path
       style="fill:none;fill-rule:evenodd;stroke:#000000;stroke-width:2;stroke-linecap:butt;stroke-linejoin:miter;stroke-opacity:1;stroke-miterlimit:4;stroke-dasharray:none"
       d="M 29.821429,27.714286 L 30,18.607143"
       id="path2161" />
    <rect
       style="fill:#000000;fill-opacity:1;stroke:#000000;stroke-width:2.29999995;stroke-miterlimit:4;stroke-dasharray:none;stroke-opacity:1"
       id="rect2163"
       width="14.107142"
       height="2.5"
       x="13.392857"
       y="17.982145"
       ry="1.25" />
    <path
       sodipodi:type="arc"
       style="fill:#000000;fill-opacity:1;stroke:#000000;stroke-width:2.29999995;stroke-miterlimit:4;stroke-dasharray:none;stroke-opacity:1"
       id="path2167"
       sodipodi:cx="7.7678571"
       sodipodi:cy="16.017857"
       sodipodi:rx="1.5178572"
       sodipodi:ry="1.3392857"
       d="M 9.2857143 16.017857 A 1.5178572 1.3392857 0 1 1  6.2499999,16.017857 A 1.5178572 1.3392857 0 1 1  9.2857143 16.017857 z"
       transform="matrix(1.2835091,0,0,1.287977,-0.9076151,-5.1484883)" />
    <rect
       style="fill:#000000;fill-opacity:1;stroke:#000000;stroke-width:2;stroke-miterlimit:4;stroke-dasharray:none;stroke-opacity:1"
       id="rect2169"
       width="5.4464283"
       height="0.44642857"
       x="5.0892854"
       y="19.94643"
       ry="0.22321428" />
  </g>
</svg>
