<?xml version="1.0" encoding="UTF-8" standalone="no"?>
<!-- Created with Inkscape (http://www.inkscape.org/) -->

<svg
   xmlns:dc="http://purl.org/dc/elements/1.1/"
   xmlns:cc="http://creativecommons.org/ns#"
   xmlns:rdf="http://www.w3.org/1999/02/22-rdf-syntax-ns#"
   xmlns:svg="http://www.w3.org/2000/svg"
   xmlns="http://www.w3.org/2000/svg"
   xmlns:sodipodi="http://sodipodi.sourceforge.net/DTD/sodipodi-0.dtd"
   xmlns:inkscape="http://www.inkscape.org/namespaces/inkscape"
   width="310.34659"
   height="400.29318"
   id="svg2"
   version="1.1"
   inkscape:version="0.48.5 r10040"
   sodipodi:docname="New document 1">
  <defs
     id="defs4" />
  <sodipodi:namedview
     id="base"
     pagecolor="#ffffff"
     bordercolor="#666666"
     borderopacity="1.0"
     inkscape:pageopacity="0.0"
     inkscape:pageshadow="2"
     inkscape:zoom="0.35"
     inkscape:cx="194.86407"
     inkscape:cy="-3.2068106"
     inkscape:document-units="px"
     inkscape:current-layer="layer1"
     showgrid="false"
     fit-margin-top="0"
     fit-margin-left="0"
     fit-margin-right="0"
     fit-margin-bottom="0"
     inkscape:window-width="913"
     inkscape:window-height="694"
     inkscape:window-x="0"
     inkscape:window-y="0"
     inkscape:window-maximized="0" />
  <metadata
     id="metadata7">
    <rdf:RDF>
      <cc:Work
         rdf:about="">
        <dc:format>image/svg+xml</dc:format>
        <dc:type
           rdf:resource="http://purl.org/dc/dcmitype/StillImage" />
        <dc:title></dc:title>
        <cc:license
           rdf:resource="http://creativecommons.org/licenses/publicdomain/" />
      </cc:Work>
      <cc:License
         rdf:about="http://creativecommons.org/licenses/publicdomain/">
        <cc:permits
           rdf:resource="http://creativecommons.org/ns#Reproduction" />
        <cc:permits
           rdf:resource="http://creativecommons.org/ns#Distribution" />
        <cc:permits
           rdf:resource="http://creativecommons.org/ns#DerivativeWorks" />
      </cc:License>
    </rdf:RDF>
  </metadata>
  <g
     inkscape:label="Layer 1"
     inkscape:groupmode="layer"
     id="layer1"
     transform="translate(-180.13593,-128.8622)">
    <g
       id="g3066"
       transform="translate(-65.714283,-100)">
      <path
         style="fill:#8fb1c8"
         d="m 312.51939,625.70846 c -2.24084,-3.45649 -46.27,-78.6933 -60.83801,-103.95969 l -5.83117,-10.11343 0.25346,-141.38657 0.25346,-141.38657 75,0.001 c 66.88511,0.001 75.98847,0.18844 84.13569,1.7302 23.75773,4.49585 40.60818,12.50769 54.20829,25.77426 16.93877,16.52336 25.52171,35.0895 26.83534,58.04867 1.48409,25.93838 -7.0987,49.9827 -23.92932,67.03695 -3.7125,3.76183 -6.75,7.0478 -6.75,7.30216 0,0.25436 2.5875,0.75585 5.75,1.11443 38.6981,4.3878 63.27513,17.3715 80.1739,42.35475 10.15617,15.01495 14.45941,29.83248 14.41542,49.6372 -0.0559,25.14275 -7.21996,43.60843 -23.79202,61.32457 -13.42607,14.35298 -22.11917,18.79837 -67.5473,34.5416 -11.825,4.09798 -49.625,17.23535 -84,29.19414 -34.375,11.95879 -63.25245,21.94328 -64.17211,22.18774 -1.11064,0.29523 -2.5094,-0.84705 -4.16563,-3.40179 z"
         id="path3080"
         inkscape:connector-curvature="0" />
      <path
         style="fill:#74a2c5"
         d="m 314.68132,626.6122 c -0.81719,-0.9625 -2.74797,-4 -4.29064,-6.75 -1.54266,-2.75 -11.91004,-20.525 -23.03862,-39.5 -11.12858,-18.975 -24.68004,-42.15605 -30.11436,-51.51344 l -9.88057,-17.01345 0,-140.48655 0,-140.48656 68,-0.29745 c 68.34361,-0.29895 83.42489,0.22197 97,3.35049 23.2372,5.35525 40.52364,15.69824 53.47426,31.99523 12.6434,15.91038 17.80257,29.67499 18.74246,50.00465 1.20524,26.06934 -6.71353,47.37238 -24.02925,64.64338 -4.29688,4.28579 -7.56564,8.19181 -7.2639,8.68004 0.30175,0.48823 3.59238,1.19274 7.31253,1.56559 31.79172,3.18629 53.44247,12.32517 70.45072,29.73758 16.49985,16.89192 24.35891,36.97636 24.19043,61.82049 -0.16079,23.70969 -6.37226,40.48592 -21.49629,58.05825 -7.61298,8.84536 -16.23501,15.22419 -28.38096,20.99705 -5.5,2.6141 -33.625,12.94475 -62.5,22.957 -66.59789,23.09246 -116.25338,40.36898 -121.87573,42.40394 -5.27993,1.91103 -4.5194,1.9311 -6.30008,-0.16624 z"
         id="path3078"
         inkscape:connector-curvature="0" />
      <path
         style="fill:#6094b0"
         d="m 313.50189,625.1122 c -0.77074,-1.2375 -3.32806,-5.625 -5.68294,-9.75 -2.35488,-4.125 -12.47769,-21.45 -22.49515,-38.5 -30.45254,-51.83111 -38.46667,-65.82485 -38.46667,-67.16788 0,-0.70731 1.0125,-1.89958 2.25,-2.64949 11.62309,-7.0435 32.53928,-19.3161 33.80426,-19.83471 0.8748,-0.35864 4.48296,-2.41331 8.01814,-4.56594 3.53518,-2.15262 10.13509,-5.90778 14.66647,-8.34479 l 8.23887,-4.43094 0.26113,-40.00313 0.26113,-40.00312 69.5,0.0676 c 78.30399,0.0761 86.88936,0.64596 107.45582,7.13196 32.36231,10.20604 55.60629,34.78636 61.95354,65.51538 2.06189,9.98223 2.06503,28.56117 0.007,38.57725 -3.43672,16.72209 -11.96125,31.73115 -25.21237,44.3912 -14.26611,13.62976 -16.67649,14.68196 -99.20351,43.30525 -34.375,11.92247 -73.33059,25.4649 -86.56799,30.0943 -13.23787,4.62937 -24.815,8.41706 -25.72742,8.41706 -0.91243,0 -2.28957,-1.0125 -3.06031,-2.25 z"
         id="path3076"
         inkscape:connector-curvature="0" />
      <path
         style="fill:#559a33"
         d="m 313.68132,624.6122 c -0.81719,-0.9625 -2.75228,-4 -4.30021,-6.75 -2.60818,-4.6336 -10.80166,-18.65798 -25.99829,-44.5 -3.39605,-5.775 -9.71894,-16.575 -14.05087,-24 -4.33194,-7.425 -10.93446,-18.675 -14.67227,-25 -3.73781,-6.325 -6.79749,-12.25589 -6.79928,-13.17976 -0.002,-1.07929 3.96662,-4.02844 11.1022,-8.25 6.108,-3.61363 11.30887,-6.57024 11.55748,-6.57024 0.24861,0 9.62528,-5.4 20.83705,-12 11.21177,-6.6 21.08086,-12 21.9313,-12 1.36545,0 1.57681,-4.76518 1.80748,-40.75 l 0.26122,-40.75 64.5,-0.31753 c 64.93966,-0.3197 71.29012,-0.0866 94.37608,3.46417 40.00939,6.15371 69.13125,31.14561 77.6378,66.62747 2.44804,10.21106 2.69714,30.21507 0.50597,40.63154 -3.97262,18.88517 -15.75127,37.46235 -31.37198,49.47963 -11.77599,9.05947 -18.15935,11.59104 -103.64787,41.10558 -13.75,4.74713 -29.95,10.38615 -36,12.53115 -37.09176,13.15074 -62.98774,21.97799 -64.47551,21.97799 -0.94298,0 -2.38312,-0.7875 -3.2003,-1.75 z"
         id="path3074"
         inkscape:connector-curvature="0" />
      <path
         style="fill:#086298"
         d="m 315.10302,508.6122 0.25411,-117.75 64.5,-0.31753 c 64.93966,-0.3197 71.29012,-0.0866 94.37608,3.46417 40.00939,6.15371 69.13125,31.14561 77.6378,66.62747 2.44804,10.21106 2.69714,30.21507 0.50597,40.63154 -3.97262,18.88517 -15.75127,37.46235 -31.37198,49.47963 -11.77599,9.05947 -18.15935,11.59104 -103.64787,41.10558 -13.75,4.74713 -29.95,10.38615 -36,12.53115 -38.03769,13.48611 -63.01127,21.97799 -64.63461,21.97799 -1.82232,0 -1.86666,-3.22373 -1.6195,-117.75 z"
         id="path3072"
         inkscape:connector-curvature="0" />
      <path
         style="fill:#155472"
         d="m 314.85713,548.69553 c 0,-42.71666 0.24572,-77.42094 0.54604,-77.12062 0.30033,0.30032 0.54496,32.66282 0.54363,71.91667 -10e-4,39.25384 0.35263,73.95812 0.78658,77.12062 0.61997,4.51817 0.50351,5.75 -0.54363,5.75 -1.09872,0 -1.33262,-13.63183 -1.33262,-77.66667 z m 0.74699,-80.87655 c -0.40394,-2.11308 0.191,-75.62583 0.61599,-76.11424 0.596,-0.68491 132.61321,-1.19008 133.03411,-0.50906 0.66677,1.07886 -3.02033,4.63481 -6.39709,6.16954 -2.53907,1.15401 -8.27426,4.38805 -16.14698,9.1052 -2.39416,1.43453 -19.20302,11.13951 -37.35302,21.56664 -18.15,10.42712 -37.5,21.59521 -43,24.81798 -5.5,3.22276 -11.35,6.53777 -13,7.36669 -1.65,0.82892 -6.0421,3.44963 -9.76023,5.8238 -3.71812,2.37417 -6.92816,4.31667 -7.13342,4.31667 -0.20526,0 -0.59197,-1.14445 -0.85936,-2.54322 z"
         id="path3070"
         inkscape:connector-curvature="0" />
      <path
         style="fill:#043763"
         d="m 316.85713,430.49298 0,-37.86922 64.25,-0.48672 c 35.3375,-0.2677 64.87852,-0.15921 65.64672,0.24108 0.99659,0.5193 0.13716,1.4501 -3,3.2491 -2.4182,1.38671 -22.84672,13.09783 -45.39672,26.02471 -54.45432,31.21616 -71.74685,41.20974 -76.50175,44.21137 -2.17718,1.3744 -4.19245,2.4989 -4.47838,2.4989 -0.28593,0 -0.51987,-17.04115 -0.51987,-37.86922 z"
         id="path3068"
         inkscape:connector-curvature="0" />
    </g>
  </g>
</svg>
