<?xml version="1.0" encoding="UTF-8" standalone="no"?>
<!-- Created with Inkscape (http://www.inkscape.org/) -->

<svg
   xmlns:dc="http://purl.org/dc/elements/1.1/"
   xmlns:cc="http://creativecommons.org/ns#"
   xmlns:rdf="http://www.w3.org/1999/02/22-rdf-syntax-ns#"
   xmlns:svg="http://www.w3.org/2000/svg"
   xmlns="http://www.w3.org/2000/svg"
   xmlns:sodipodi="http://sodipodi.sourceforge.net/DTD/sodipodi-0.dtd"
   xmlns:inkscape="http://www.inkscape.org/namespaces/inkscape"
   id="svg2"
   version="1.1"
   inkscape:version="0.91 r13725"
   width="316.8703"
   height="291.77887"
   viewBox="0 0 316.87031 291.77887"
   sodipodi:docname="Banrisul.svg">
  <metadata
     id="metadata8">
    <rdf:RDF>
      <cc:Work
         rdf:about="">
        <dc:format>image/svg+xml</dc:format>
        <dc:type
           rdf:resource="http://purl.org/dc/dcmitype/StillImage" />
        <dc:title></dc:title>
      </cc:Work>
    </rdf:RDF>
  </metadata>
  <defs
     id="defs6" />
  <sodipodi:namedview
     pagecolor="#ffffff"
     bordercolor="#666666"
     borderopacity="1"
     objecttolerance="10"
     gridtolerance="10"
     guidetolerance="10"
     inkscape:pageopacity="0"
     inkscape:pageshadow="2"
     inkscape:window-width="1920"
     inkscape:window-height="1130"
     id="namedview4"
     showgrid="false"
     fit-margin-top="0"
     fit-margin-left="0"
     fit-margin-right="0"
     fit-margin-bottom="0"
     inkscape:zoom="0.50562712"
     inkscape:cx="223.88131"
     inkscape:cy="60.190842"
     inkscape:window-x="0"
     inkscape:window-y="1"
     inkscape:window-maximized="1"
     inkscape:current-layer="svg2" />
  <text
     xml:space="preserve"
     style="font-style:normal;font-weight:normal;font-size:40px;line-height:125%;font-family:sans-serif;letter-spacing:0px;word-spacing:0px;fill:#000000;fill-opacity:1;stroke:none;stroke-width:1px;stroke-linecap:butt;stroke-linejoin:miter;stroke-opacity:1"
     x="719.09216"
     y="266.39059"
     id="text4191"
     sodipodi:linespacing="125%"><tspan
       sodipodi:role="line"
       id="tspan4193"
       x="719.09216"
       y="266.39059" /></text>
  <path
     style="fill:#6dbbfd;fill-opacity:1;fill-rule:evenodd;stroke:#6dbbfd;stroke-width:0.7515291;stroke-linecap:butt;stroke-linejoin:miter;stroke-miterlimit:4;stroke-dasharray:none;stroke-opacity:1"
     d="m 2.5140457,124.19323 46.1941003,-0.6506 28.19358,41.63975 5.42184,-0.21689 0.43378,1.95186 52.483444,0.6506 21.4705,31.88044 c 1.55452,2.86857 4.36344,5.6166 2.59136,9.75931 l -101.485734,0.21689 c 0.20674,-5.80674 -1.15349,-9.65485 -3.25311,-12.57867 L 8.5865757,128.09695 Z"
     id="path4140"
     inkscape:connector-curvature="0"
     sodipodi:nodetypes="cccccccccccc" />
  <path
     style="fill:#016bbf;fill-opacity:1;fill-rule:evenodd;stroke:#016bbf;stroke-width:0.7515291;stroke-linecap:butt;stroke-linejoin:miter;stroke-miterlimit:4;stroke-dasharray:none;stroke-opacity:1"
     d="m 158.87999,209.85834 -49.66408,78.50829 c -1.12682,2.57725 -2.86918,2.69234 -4.55435,3.03623 l -104.09937426,-0.6506 1.08436996,-2.60249 6.50621,-0.43378 47.9290903,-71.7852 c 1.72563,-4.0568 1.44429,-4.76867 1.51811,-6.07246 z"
     id="path4142"
     inkscape:connector-curvature="0"
     sodipodi:nodetypes="ccccccccc" />
  <path
     style="fill:#016bbf;fill-opacity:1;fill-rule:evenodd;stroke:#016bbf;stroke-width:0.7515291;stroke-linecap:butt;stroke-linejoin:miter;stroke-miterlimit:4;stroke-dasharray:none;stroke-opacity:1"
     d="m 315.54318,209.72634 -49.66408,78.50829 c -1.12682,2.57725 -2.86918,2.69234 -4.55434,3.03623 l -104.09938,-0.6506 1.08437,-2.60249 6.50621,-0.43378 47.92909,-71.78519 c 1.72563,-4.05681 1.44429,-4.76867 1.51811,-6.07247 z"
     id="path4142-2"
     inkscape:connector-curvature="0"
     sodipodi:nodetypes="ccccccccc" />
  <path
     style="fill:#6dbbfd;fill-opacity:1;fill-rule:evenodd;stroke:#6dbbfd;stroke-width:0.7515291;stroke-linecap:butt;stroke-linejoin:miter;stroke-miterlimit:4;stroke-dasharray:none;stroke-opacity:1"
     d="m 205.33863,123.38445 55.95141,1.33751 c 13.63956,20.2945 13.8913,20.29607 30.58122,42.68781 l 21.47051,31.88043 c 1.55451,2.86858 4.36343,5.61661 2.59136,9.75932 l -101.48574,0.21689 c 0.20675,-5.80675 -1.15348,-9.65485 -3.2531,-12.57868 -16.83819,-23.18322 -31.524,-44.21407 -50.51457,-69.54967 13.57291,-5.46816 30.04593,-3.22414 44.65891,-3.75361 z"
     id="path4140-9"
     inkscape:connector-curvature="0"
     sodipodi:nodetypes="ccccccccc" />
  <path
     style="fill:#6dbbfd;fill-opacity:1;fill-rule:evenodd;stroke:#6dbbfd;stroke-width:0.74608606;stroke-linecap:butt;stroke-linejoin:miter;stroke-miterlimit:4;stroke-dasharray:none;stroke-opacity:1"
     d="M 130.40331,0.40427928 185.5432,1.7418893 c 13.44174,20.2959597 13.68982,20.2975197 30.13768,42.6908797 l 21.1591,31.88274 c 1.53196,2.86878 4.30015,5.61701 2.55377,9.76002 l -100.01379,0.21689 c 0.20374,-5.80717 -1.13675,-9.65555 -3.20592,-12.57959 -16.59398,-23.18489 -31.06678,-44.21726 -49.781914,-69.5546897 13.37604,-5.46855 29.610154,-3.22437002 44.011184,-3.75388002 z"
     id="path4140-9-2"
     inkscape:connector-curvature="0"
     sodipodi:nodetypes="ccccccccc" />
  <path
     style="fill:#016bbf;fill-opacity:1;fill-rule:evenodd;stroke:#016bbf;stroke-width:0.7515291;stroke-linecap:butt;stroke-linejoin:miter;stroke-miterlimit:4;stroke-dasharray:none;stroke-opacity:1"
     d="m 238.93897,86.787209 -23.1113,36.284371 c -18.67744,1.25239 -47.52158,-2.11645 -55.49375,4.00196 l -25.11227,39.71542 -51.891994,-0.5296 -0.23342,-1.26733 c 1.42463,-0.17187 2.41001,-0.34022 3.46837,-0.70027 L 139.1903,87.087379 Z"
     id="path4189"
     inkscape:connector-curvature="0"
     sodipodi:nodetypes="ccccccccc" />
</svg>
