<?xml version="1.0" encoding="UTF-8" standalone="no"?>
<svg
   xmlns:dc="http://purl.org/dc/elements/1.1/"
   xmlns:cc="http://creativecommons.org/ns#"
   xmlns:rdf="http://www.w3.org/1999/02/22-rdf-syntax-ns#"
   xmlns:svg="http://www.w3.org/2000/svg"
   xmlns="http://www.w3.org/2000/svg"
   xmlns:sodipodi="http://sodipodi.sourceforge.net/DTD/sodipodi-0.dtd"
   xmlns:inkscape="http://www.inkscape.org/namespaces/inkscape"
   width="83.879997"
   height="56.360001"
   viewBox="0 0 83.879997 56.36"
   id="svg2"
   version="1.1"
   inkscape:version="0.48.5 r10040"
   sodipodi:docname="BASAsvg.svg">
  <metadata
     id="metadata46">
    <rdf:RDF>
      <cc:Work
         rdf:about="">
        <dc:format>image/svg+xml</dc:format>
        <dc:type
           rdf:resource="http://purl.org/dc/dcmitype/StillImage" />
        <dc:title>Banco da Amazônia</dc:title>
        <cc:license
           rdf:resource="http://creativecommons.org/licenses/publicdomain/" />
      </cc:Work>
      <cc:License
         rdf:about="http://creativecommons.org/licenses/publicdomain/">
        <cc:permits
           rdf:resource="http://creativecommons.org/ns#Reproduction" />
        <cc:permits
           rdf:resource="http://creativecommons.org/ns#Distribution" />
        <cc:permits
           rdf:resource="http://creativecommons.org/ns#DerivativeWorks" />
      </cc:License>
    </rdf:RDF>
  </metadata>
  <defs
     id="defs44" />
  <sodipodi:namedview
     pagecolor="#ffffff"
     bordercolor="#666666"
     borderopacity="1"
     objecttolerance="10"
     gridtolerance="10"
     guidetolerance="10"
     inkscape:pageopacity="0"
     inkscape:pageshadow="2"
     inkscape:window-width="1387"
     inkscape:window-height="653"
     id="namedview42"
     showgrid="false"
     fit-margin-top="0"
     fit-margin-left="0"
     fit-margin-right="0"
     fit-margin-bottom="0"
     inkscape:zoom="8.3747338"
     inkscape:cx="0.38644021"
     inkscape:cy="28.18"
     inkscape:window-x="0"
     inkscape:window-y="0"
     inkscape:window-maximized="0"
     inkscape:current-layer="svg2" />
  <title
     id="title4">Banco da Amazônia</title>
  <path
     d="m 65.388,34.462 c -5.161,-0.432 -9.764,-2.21 -13.211,-3.935 -2.608,-1.324 -4.553,-2.59 -5.543,-3.218 l -8.548,13.002 c 0.31,0.302 0.469,0.502 0.469,0.502 2.876,1.854 5.593,3.285 8.166,4.33 7.379,3.031 13.58,2.979 18.668,1.383 C 78.077,42.535 83.88,28.863 83.88,28.863 77.594,33.728 71.147,34.933 65.388,34.462 z M 0,40.138 c 7.986,-6.837 15.27,-8.57 21.318,-8.05 L 29.015,20.48 C 6.526,17.105 0,40.138 0,40.138 z"
     id="path6"
     inkscape:connector-curvature="0"
     style="fill:#ffcc00" />
  <path
     d="m 46.72,45.144 -4.104,10.993 h 22.772 v -9.61 C 60.299,48.123 54.099,48.175 46.72,45.144 z M 42.616,-3.0517577e-7 29.016,20.48 21.319,32.088 5.197,56.36 H 27.513 L 38.085,40.312 46.633,27.31 62.229,3.6209997 52.177,30.528 c 3.447,1.725 8.05,3.503 13.211,3.935 V -3.0517577e-7 H 42.616 z"
     id="path8"
     inkscape:connector-curvature="0"
     style="fill:#278428" />
</svg>
