<?xml version="1.0" encoding="UTF-8" standalone="no"?>
<!-- Generator: Adobe Illustrator 15.1.0, SVG Export Plug-In . SVG Version: 6.00 Build 0)  -->

<svg
   xmlns:dc="http://purl.org/dc/elements/1.1/"
   xmlns:cc="http://creativecommons.org/ns#"
   xmlns:rdf="http://www.w3.org/1999/02/22-rdf-syntax-ns#"
   xmlns:svg="http://www.w3.org/2000/svg"
   xmlns="http://www.w3.org/2000/svg"
   xmlns:sodipodi="http://sodipodi.sourceforge.net/DTD/sodipodi-0.dtd"
   xmlns:inkscape="http://www.inkscape.org/namespaces/inkscape"
   version="1.1"
   id="Layer_1"
   x="0px"
   y="0px"
   width="282.40799"
   height="282.40799"
   viewBox="0 0 282.40799 282.40799"
   enable-background="new 0 0 612 792"
   xml:space="preserve"
   inkscape:version="0.48.5 r10040"
   sodipodi:docname="BB.svg"><metadata
     id="metadata113"><rdf:RDF><cc:Work
         rdf:about=""><dc:format>image/svg+xml</dc:format><dc:type
           rdf:resource="http://purl.org/dc/dcmitype/StillImage" /><dc:title></dc:title><cc:license
           rdf:resource="http://creativecommons.org/licenses/publicdomain/" /></cc:Work><cc:License
         rdf:about="http://creativecommons.org/licenses/publicdomain/"><cc:permits
           rdf:resource="http://creativecommons.org/ns#Reproduction" /><cc:permits
           rdf:resource="http://creativecommons.org/ns#Distribution" /><cc:permits
           rdf:resource="http://creativecommons.org/ns#DerivativeWorks" /></cc:License></rdf:RDF></metadata><defs
     id="defs111" /><sodipodi:namedview
     pagecolor="#ffffff"
     bordercolor="#666666"
     borderopacity="1"
     objecttolerance="10"
     gridtolerance="10"
     guidetolerance="10"
     inkscape:pageopacity="0"
     inkscape:pageshadow="2"
     inkscape:window-width="711"
     inkscape:window-height="480"
     id="namedview109"
     showgrid="false"
     fit-margin-top="0"
     fit-margin-left="0"
     fit-margin-right="0"
     fit-margin-bottom="0"
     inkscape:zoom="1.0587519"
     inkscape:cx="141.204"
     inkscape:cy="141.204"
     inkscape:window-x="0"
     inkscape:window-y="0"
     inkscape:window-maximized="0"
     inkscape:current-layer="Layer_1" /><g
     id="g3"
     transform="translate(-164.796,-254.796)"><rect
       x="164.79601"
       y="254.79601"
       width="282.40799"
       height="282.40799"
       id="rect5"
       style="fill:#e29618" /><rect
       x="173.90601"
       y="263.905"
       width="264.18701"
       height="264.18799"
       id="rect7"
       style="fill:#ffca05" /><polygon
       points="447.204,254.796 438.093,263.905 173.906,263.905 164.796,254.796 "
       id="polygon9"
       style="fill:#fff229" /><polygon
       points="164.796,254.796 173.906,263.907 173.906,528.093 164.796,537.204 "
       id="polygon11"
       style="fill:#ffdd00" /><polygon
       points="164.796,537.204 173.907,528.093 438.093,528.093 447.204,537.204 "
       id="polygon13"
       style="fill:#fcb813" /><g
       id="g15"><g
         id="g17"><linearGradient
           id="SVGID_1_"
           gradientUnits="userSpaceOnUse"
           x1="-2414.9263"
           y1="-2357.9258"
           x2="-2433.7595"
           y2="-2410.0918"
           gradientTransform="matrix(3.2138,0,0,3.2138,8115.0898,8065.4106)"><stop
             offset="0"
             style="stop-color:#262261"
             id="stop20" /><stop
             offset="0.5393"
             style="stop-color:#2E3191"
             id="stop22" /><stop
             offset="1"
             style="stop-color:#0086CB"
             id="stop24" /></linearGradient><polygon
           clip-rule="evenodd"
           points="299.341,350.637 277.281,336.072 304.407,317.415 366.54,359.191 258.623,432.658 286.219,450.607 425.259,357.928 306.026,279.793 306.026,279.793 189.282,358.229 239.925,390.772 "
           id="polygon26"
           style="fill:url(#SVGID_1_);fill-rule:evenodd" /><polygon
           clip-rule="evenodd"
           points="420.048,279.473 368.968,313.302 394.944,330.976 420.048,314.166 "
           id="polygon28"
           style="fill:#2e3191;fill-rule:evenodd" /><linearGradient
           id="SVGID_2_"
           gradientUnits="userSpaceOnUse"
           x1="-2423.0874"
           y1="-2354.979"
           x2="-2441.9209"
           y2="-2407.1453"
           gradientTransform="matrix(3.2138,0,0,3.2138,8115.0898,8065.4106)"><stop
             offset="0"
             style="stop-color:#262261"
             id="stop31" /><stop
             offset="0.5393"
             style="stop-color:#2E3191"
             id="stop33" /><stop
             offset="1"
             style="stop-color:#0086CB"
             id="stop35" /></linearGradient><polygon
           clip-rule="evenodd"
           points="312.587,441.548 334.403,456.239 307.591,474.086 244.922,432.688 353.798,359.478 326.692,341.518 187.329,434.384 187.652,434.699 305.974,512.832 305.974,512.832 422.868,433.979 372.075,400.944 "
           id="polygon37"
           style="fill:url(#SVGID_2_);fill-rule:evenodd" /></g><g
         id="g39"><linearGradient
           id="SVGID_3_"
           gradientUnits="userSpaceOnUse"
           x1="-2411.3091"
           y1="-2368.021"
           x2="-2437.4648"
           y2="-2409.8704"
           gradientTransform="matrix(3.2138,0,0,3.2138,8115.0898,8065.4106)"><stop
             offset="0"
             style="stop-color:#2E3191"
             id="stop42" /><stop
             offset="1"
             style="stop-color:#0086CB"
             id="stop44" /></linearGradient><polygon
           clip-rule="evenodd"
           points="296.25,350.524 273.952,335.881 304.289,312.621 374.376,359.395 266.109,432.407 285.559,444.871 416.794,357.916 306.026,282.095 306.026,282.095 192.985,357.859 240.035,388.413 "
           id="polygon46"
           style="fill:url(#SVGID_3_);fill-rule:evenodd" /><linearGradient
           id="SVGID_4_"
           gradientUnits="userSpaceOnUse"
           x1="-2396.5376"
           y1="-2411.4272"
           x2="-2402.1626"
           y2="-2417.0522"
           gradientTransform="matrix(3.2138,0,0,3.2138,8115.0898,8065.4106)"><stop
             offset="0"
             style="stop-color:#2E3191"
             id="stop49" /><stop
             offset="1"
             style="stop-color:#0086CB"
             id="stop51" /></linearGradient><polygon
           clip-rule="evenodd"
           points="418.753,282.126 371.716,313.281 395.235,329.162 418.753,313.281 "
           id="polygon53"
           style="fill:url(#SVGID_4_);fill-rule:evenodd" /><linearGradient
           id="SVGID_5_"
           gradientUnits="userSpaceOnUse"
           x1="-2421.9224"
           y1="-2361.3867"
           x2="-2448.0789"
           y2="-2403.2373"
           gradientTransform="matrix(3.2138,0,0,3.2138,8115.0898,8065.4106)"><stop
             offset="0"
             style="stop-color:#2E3191"
             id="stop56" /><stop
             offset="1"
             style="stop-color:#0086CB"
             id="stop58" /></linearGradient><polygon
           clip-rule="evenodd"
           points="319.989,441.333 341.632,455.997 307.501,479.329 237.556,432.536 345.657,359.539 325.644,346.901 195.206,434.073 306.755,506.895 414.944,434.087 371.884,405.953 "
           id="polygon60"
           style="fill:url(#SVGID_5_);fill-rule:evenodd" /></g><polygon
         clip-rule="evenodd"
         points="306.026,282.095 306.026,284.541 197.053,357.873 192.985,357.859 "
         id="polygon62"
         style="fill:#ffffff;fill-rule:evenodd" /><polygon
         clip-rule="evenodd"
         points="338.048,456.051 341.632,455.997 307.501,479.329 307.505,476.514 "
         id="polygon64"
         style="fill:#ffffff;fill-rule:evenodd" /><polygon
         clip-rule="evenodd"
         points="371.964,403.521 371.884,405.953 319.989,441.333 315.749,441.405 "
         id="polygon66"
         style="fill:#ffffff;fill-rule:evenodd" /><polygon
         clip-rule="evenodd"
         points="370.771,359.397 374.376,359.395 266.109,432.407 262.042,432.395 "
         id="polygon68"
         style="fill:#ffffff;fill-rule:evenodd" /><polygon
         clip-rule="evenodd"
         points="326.44,343.963 325.644,346.901 195.206,434.073 191.139,434.062 "
         id="polygon70"
         style="fill:#ffffff;fill-rule:evenodd" /><polygon
         clip-rule="evenodd"
         points="305.974,512.832 306.755,506.895 414.944,434.087 422.868,433.979 "
         id="polygon72"
         style="fill:#262169;fill-rule:evenodd" /><polygon
         clip-rule="evenodd"
         points="306.026,279.793 306.046,284.541 416.794,357.825 425.259,357.928 "
         id="polygon74"
         style="fill:#2e3191;fill-rule:evenodd" /><polygon
         clip-rule="evenodd"
         points="189.282,358.229 197.053,357.873 240.1,385.807 239.925,390.772 "
         id="polygon76"
         style="fill:#2e3191;fill-rule:evenodd" /><polygon
         clip-rule="evenodd"
         points="304.407,317.415 277.281,336.072 299.341,350.637 291.562,350.681 270.008,336.007 304.289,312.621 "
         id="polygon78"
         style="fill:#2e3191;fill-rule:evenodd" /><polygon
         clip-rule="evenodd"
         points="239.925,390.772 240.1,385.807 295.578,348.152 299.341,350.637 "
         id="polygon80"
         style="fill:#2e3191;fill-rule:evenodd" /><polygon
         clip-rule="evenodd"
         points="418.753,282.126 417.2,285.665 375.784,313.294 371.716,313.281 "
         id="polygon82"
         style="fill:#ffffff;fill-rule:evenodd" /><polygon
         clip-rule="evenodd"
         points="395.235,329.162 396.157,326.999 416.858,312.895 418.753,313.281 "
         id="polygon84"
         style="fill:#2e3191;fill-rule:evenodd" /><polygon
         clip-rule="evenodd"
         points="371.714,313.281 375.577,313.359 396.157,326.999 395.235,329.162 "
         id="polygon86"
         style="fill:#2e3191;fill-rule:evenodd" /><polygon
         clip-rule="evenodd"
         points="418.753,313.281 416.858,312.895 417.2,285.665 418.753,282.126 "
         id="polygon88"
         style="fill:#2e3191;fill-rule:evenodd" /><polygon
         clip-rule="evenodd"
         points="191.108,512.871 242.186,479.042 216.21,461.366 191.108,478.176 "
         id="polygon90"
         style="fill:#2e3191;fill-rule:evenodd" /><linearGradient
         id="SVGID_6_"
         gradientUnits="userSpaceOnUse"
         x1="-4803.7251"
         y1="-4830.6426"
         x2="-4809.3506"
         y2="-4836.2681"
         gradientTransform="matrix(-3.2138,0,0,-3.2138,-15240.156,-15047.945)"><stop
           offset="0"
           style="stop-color:#2E3191"
           id="stop93" /><stop
           offset="1"
           style="stop-color:#0086CB"
           id="stop95" /></linearGradient><polygon
         clip-rule="evenodd"
         points="192.4,510.216 239.44,479.062 215.92,463.18 192.4,479.062 "
         id="polygon97"
         style="fill:url(#SVGID_6_);fill-rule:evenodd" /><polygon
         clip-rule="evenodd"
         points="192.4,510.216 193.951,506.678 235.373,479.051 239.44,479.062 "
         id="polygon99"
         style="fill:#2e3191;fill-rule:evenodd" /><polygon
         clip-rule="evenodd"
         points="215.92,463.18 214.995,465.345 194.297,479.445 192.4,479.062 "
         id="polygon101"
         style="fill:#ffffff;fill-rule:evenodd" /><polygon
         clip-rule="evenodd"
         points="239.44,479.062 235.573,478.987 214.995,465.345 215.92,463.18 "
         id="polygon103"
         style="fill:#2e3191;fill-rule:evenodd" /><polygon
         clip-rule="evenodd"
         points="192.4,479.062 194.297,479.445 193.951,506.678 192.4,510.216 "
         id="polygon105"
         style="fill:#2e3191;fill-rule:evenodd" /><polygon
         clip-rule="evenodd"
         points="304.407,317.415 304.289,312.621 374.376,359.395 366.54,359.191 "
         id="polygon107"
         style="fill:#2e3191;fill-rule:evenodd" /></g></g></svg>