<?xml version="1.0" encoding="utf-8"?>
<!-- Generator: Adobe Illustrator 17.0.0, SVG Export Plug-In . SVG Version: 6.00 Build 0)  -->
<!DOCTYPE svg PUBLIC "-//W3C//DTD SVG 1.1//EN" "http://www.w3.org/Graphics/SVG/1.1/DTD/svg11.dtd">
<svg version="1.1" id="Layer_1" xmlns="http://www.w3.org/2000/svg" xmlns:xlink="http://www.w3.org/1999/xlink" x="0px" y="0px"
	 width="2000px" height="2000px" viewBox="0 0 2000 2000" enable-background="new 0 0 2000 2000" xml:space="preserve">
<g>
	<path fill="#A80A35" d="M165.772,733.125v139.384c161.605-7.071,212.703,73.016,212.703,73.016
		C361.903,746.844,165.772,733.125,165.772,733.125z"/>
	<path fill="#A80A35" d="M378.476,945.525c0,0,51.098-80.087,212.703-73.016V733.125
		C591.179,733.125,395.049,746.844,378.476,945.525z"/>
	<path fill="#A80A35" d="M378.628,945.371c0,0,80.086,51.098,73.015,212.703h139.384
		C591.027,1158.074,577.307,961.944,378.628,945.371z"/>
	<path fill="#A80A35" d="M28.258,1358.761h144.585c-29.291-351.919,205.48-413.388,205.48-413.388
		C-0.731,961.391,28.258,1358.761,28.258,1358.761z"/>
</g>
<path fill="#F68C1F" d="M580.268,643.903H176.683c-55.133,0-99.828,44.695-99.828,99.828v290.336
	c15.172-19.142,32.255-37.454,51.512-54.505V748.977c0-29.582,23.982-53.562,53.564-53.562h393.093
	c29.582,0,53.563,23.98,53.563,53.562v393.094c0,29.579-23.982,53.564-53.563,53.564h-351.68v51.509h356.925
	c55.133,0,99.828-44.695,99.828-99.828V743.731C680.097,688.598,635.401,643.903,580.268,643.903z"/>
<g>
	<path fill="#A80A35" d="M901.159,900.756c12.3-10.725,20.714-26.001,20.714-45.503c0-29.902-21.038-48.102-44.015-53.952v-0.975
		c23.625-8.774,36.249-26.976,36.249-47.127c0-18.852-9.062-33.153-22.655-41.277c-14.563-10.075-33.012-13.976-62.14-13.976
		c-22.655,0-45.634,2.276-58.256,4.875v215.16c10.357,1.3,26.863,2.926,48.872,2.926
		C860.057,920.907,885.625,914.082,901.159,900.756z M810.538,729.147c4.208-0.975,11.003-1.625,22.655-1.625
		c25.244,0,40.78,9.426,40.78,30.227c0,18.525-15.211,31.527-43.045,31.527h-20.39V729.147z M810.538,818.203h19.743
		c27.509,0,49.842,10.4,49.842,36.077c0,26.976-22.979,36.402-48.548,36.402c-9.062,0-15.859,0-21.036-0.975V818.203z"/>
	<path fill="#A80A35" d="M1033.846,901.082h0.971l2.911,17.552h35.925c-1.941-9.75-2.588-23.727-2.588-38.027v-56.878
		c0-34.777-14.565-66.953-65.053-66.953c-24.923,0-45.312,6.825-56.963,13.976l7.768,26.001c10.681-6.825,26.862-11.7,42.396-11.7
		c27.834,0,32.042,17.226,32.042,27.626v2.599c-58.258-0.325-93.535,20.151-93.535,59.804c0,24.052,17.8,47.127,49.518,47.127
		C1007.955,922.208,1024.462,913.432,1033.846,901.082z M977.208,870.855c0-24.052,26.862-29.902,55.02-29.577v21.776
		c0,2.926,0,5.85-0.97,8.774c-3.884,11.376-15.211,21.776-31.395,21.776C987.241,893.606,977.208,886.456,977.208,870.855z"/>
	<path fill="#A80A35" d="M1177.867,789.276c21.684,0,30.098,17.225,30.098,39.978v89.378h39.809v-93.93
		c0-50.053-28.481-67.928-55.993-67.928c-26.215,0-43.369,14.951-50.488,27.301h-0.971l-1.941-23.725h-34.631
		c0.648,13.651,1.295,28.927,1.295,47.127v111.155h39.808v-93.28c0-4.55,0.648-9.426,1.943-12.675
		C1151.004,800.651,1162.009,789.276,1177.867,789.276z"/>
	<path fill="#A80A35" d="M1353.278,921.883c19.744,0,36.249-4.226,44.664-8.126l-5.502-29.577c-7.768,3.251-17.8,6.175-31.395,6.175
		c-27.185,0-48.223-18.527-48.223-51.028c-0.324-28.927,17.8-51.353,48.223-51.353c14.241,0,23.627,2.926,30.099,6.175l7.12-30.227
		c-9.063-3.901-23.95-7.15-38.514-7.15c-55.344,0-87.708,36.727-87.708,84.179C1272.043,890.03,1304.084,921.883,1353.278,921.883z"
		/>
	<path fill="#A80A35" d="M1566.239,838.028c0-48.102-31.395-81.254-78.323-81.254c-47.577,0-81.559,31.851-81.559,83.854
		c0,51.028,34.63,81.579,78.969,81.579C1525.46,922.208,1566.239,896.205,1566.239,838.028z M1447.46,839.654
		c0-26.327,11.327-53.954,39.484-53.954c27.187,0,38.191,28.602,38.191,53.303c0,32.177-15.859,54.277-38.514,54.277
		C1462.671,893.281,1447.46,870.204,1447.46,839.654z"/>
	<path fill="#A80A35" d="M1707.339,922.208c22.656,0,41.75-11.05,51.137-28.602h0.646l1.943,25.027h35.277
		c-0.648-10.725-1.294-28.276-1.294-44.528V687.87h-39.809v89.379h-0.648c-7.12-11.702-22.655-20.476-44.34-20.476
		c-37.866,0-70.878,31.527-70.555,84.504C1639.697,890.03,1669.473,922.208,1707.339,922.208z M1719.962,787.651
		c18.124,0,30.747,12.675,34.306,27.951c0.648,3.251,0.971,7.476,0.971,10.726v23.727c0,4.226-0.324,8.124-1.295,11.7
		c-3.883,17.226-18.124,28.276-34.306,28.276c-25.244,0-39.485-21.126-39.485-50.378
		C1680.152,810.402,1694.394,787.651,1719.962,787.651z"/>
	<path fill="#A80A35" d="M1898.61,922.208c40.133,0,80.913-26.002,80.913-84.179c0-48.102-31.395-81.254-78.323-81.254
		c-47.577,0-81.559,31.851-81.559,83.854C1819.641,891.656,1854.271,922.208,1898.61,922.208z M1900.228,785.7
		c27.187,0,38.191,28.602,38.191,53.303c0,32.177-15.859,54.277-38.514,54.277c-23.95,0-39.161-23.077-39.161-53.627
		C1860.744,813.326,1872.071,785.7,1900.228,785.7z"/>
	<path fill="#A80A35" d="M904.719,1032.424c0,33.153,0.971,62.729,3.884,91.656h-0.648c-10.033-24.703-22.655-52.004-35.601-75.08
		l-45.31-80.28h-57.61v219.061h45.312v-65.978c0-35.753-0.648-66.628-2.266-95.879h1.295c10.357,25.676,24.92,53.952,37.867,77.353
		l46.606,84.504h51.785V968.721h-45.312v63.703H904.719z"/>
	<path fill="#A80A35" d="M1053.594,1024.95c-51.137,0-84.796,32.825-84.796,84.504c0,51.352,35.601,81.904,81.883,81.904
		c42.398,0,83.502-26.651,83.502-84.829C1134.182,1058.425,1101.817,1024.95,1053.594,1024.95z M1051.977,1155.931
		c-21.038,0-32.366-20.475-32.366-47.776c0-23.4,9.063-47.779,32.366-47.779c22.331,0,31.395,24.053,31.395,47.453
		C1083.37,1136.755,1071.394,1155.931,1051.977,1155.931z"/>
	<path fill="#A80A35" d="M1196.32,1058.1h-1.294l-1.941-29.25h-42.074c0.971,13.652,1.294,28.925,1.294,52.328v106.604h49.194
		v-80.603c0-3.901,0.324-7.802,0.971-11.05c3.236-15.276,15.535-25.026,33.66-25.026c5.502,0,9.386,0.648,13.27,1.298v-46.476
		c-3.56-0.65-5.825-0.975-10.357-0.975C1223.507,1024.95,1204.41,1034.7,1196.32,1058.1z"/>
	<path fill="#A80A35" d="M1413.806,957.021h-49.194v85.806h-0.648c-7.12-10.728-22.008-17.877-41.75-17.877
		c-37.866,0-71.202,31.202-70.878,84.829c0,49.401,30.098,81.579,67.643,81.579c20.39,0,39.808-9.1,49.518-26.651h0.97l1.943,23.075
		h43.693c-0.648-10.725-1.295-29.577-1.295-47.451V957.021H1413.806z M1364.612,1116.929c0,3.901-0.324,7.802-0.971,11.375
		c-2.911,13.976-14.563,23.728-28.803,23.728c-20.39,0-33.66-16.901-33.66-43.878c0-25.026,11.327-45.178,33.984-45.178
		c15.211,0,25.892,11.05,28.803,24.05c0.648,2.926,0.648,6.502,0.648,9.102L1364.612,1116.929L1364.612,1116.929z"/>
	<path fill="#A80A35" d="M1511.868,1025.275c-55.02,0-79.942,44.528-79.942,84.829c0,49.726,30.747,80.929,84.472,80.929
		c21.361,0,41.103-3.251,57.286-10.075l-6.473-33.478c-13.27,4.551-26.863,6.827-43.693,6.827c-22.98,0-43.37-9.752-44.664-30.227
		h101.948c0.648-3.576,1.619-11.05,1.619-19.502C1582.424,1065.252,1563.005,1025.275,1511.868,1025.275z M1478.533,1090.277
		c1.294-13,9.709-32.177,30.422-32.177c22.655,0,27.833,20.152,27.833,32.177H1478.533z"/>
	<path fill="#A80A35" d="M1667.217,1090.603c-19.419-6.824-25.568-10.725-25.568-18.527c0-7.799,6.798-12.676,18.773-12.676
		c13.27,0,27.185,5.201,34.307,9.102l8.414-34.128c-9.709-4.874-25.892-9.425-44.339-9.425c-39.161,0-64.407,22.425-64.407,52.327
		c-0.324,18.852,12.3,36.726,45.312,47.779c18.124,6.174,22.979,10.075,22.979,18.524c0,8.127-6.149,13.001-21.038,13.001
		c-14.563,0-33.336-6.174-42.398-11.7l-8.738,35.103c11.974,6.499,30.422,11.375,51.136,11.375
		c45.312,0,68.291-21.778,68.291-51.677C1709.616,1116.604,1697.317,1101.002,1667.217,1090.603z"/>
	<path fill="#A80A35" d="M1782.755,985.947l-48.223,13.326v29.577h-21.038v36.402h21.038v65.002c0,22.428,4.53,37.704,13.593,47.128
		c8.091,8.124,21.36,13.651,37.219,13.651c13.593,0,25.568-1.951,31.718-4.226l-0.324-37.376c-4.53,0.975-7.768,1.3-14.563,1.3
		c-14.565,0-19.42-8.777-19.42-27.951v-57.528h35.277v-36.402h-35.277L1782.755,985.947L1782.755,985.947z"/>
	<path fill="#A80A35" d="M1903.475,1025.275c-55.02,0-79.942,44.528-79.942,84.829c0,49.726,30.747,80.929,84.472,80.929
		c21.361,0,41.103-3.251,57.286-10.075l-6.473-33.478c-13.27,4.551-26.863,6.827-43.693,6.827c-22.98,0-43.37-9.752-44.664-30.227
		h101.948c0.648-3.576,1.619-11.05,1.619-19.502C1974.029,1065.252,1954.61,1025.275,1903.475,1025.275z M1870.139,1090.277
		c1.294-13,9.709-32.177,30.422-32.177c22.655,0,27.833,20.152,27.833,32.177H1870.139z"/>
</g>
</svg>
