<?xml version="1.0" encoding="UTF-8" standalone="no"?>
<svg
   xmlns:dc="http://purl.org/dc/elements/1.1/"
   xmlns:cc="http://creativecommons.org/ns#"
   xmlns:rdf="http://www.w3.org/1999/02/22-rdf-syntax-ns#"
   xmlns:svg="http://www.w3.org/2000/svg"
   xmlns="http://www.w3.org/2000/svg"
   xmlns:sodipodi="http://sodipodi.sourceforge.net/DTD/sodipodi-0.dtd"
   xmlns:inkscape="http://www.inkscape.org/namespaces/inkscape"
   id="svg2"
   height="186.21899"
   width="186.21899"
   version="1.1"
   inkscape:version="0.48.5 r10040"
   sodipodi:docname="Bradesco.svg">
  <sodipodi:namedview
     pagecolor="#ffffff"
     bordercolor="#666666"
     borderopacity="1"
     objecttolerance="10"
     gridtolerance="10"
     guidetolerance="10"
     inkscape:pageopacity="0"
     inkscape:pageshadow="2"
     inkscape:window-width="1143"
     inkscape:window-height="685"
     id="namedview17"
     showgrid="false"
     fit-margin-top="0"
     fit-margin-left="0"
     fit-margin-right="0"
     fit-margin-bottom="0"
     inkscape:zoom="0.84156476"
     inkscape:cx="-113.64971"
     inkscape:cy="46.004904"
     inkscape:window-x="0"
     inkscape:window-y="0"
     inkscape:window-maximized="0"
     inkscape:current-layer="svg2" />
  <defs
     id="defs4">
    <clipPath
       id="clipPath8545"
       clipPathUnits="userSpaceOnUse">
      <path
         id="path8547"
         d="M 0,934.75 0,0 H 1181.1 V 934.75 H 0 z"
         inkscape:connector-curvature="0" />
    </clipPath>
  </defs>
  <metadata
     id="metadata7">
    <rdf:RDF>
      <cc:Work
         rdf:about="">
        <dc:format>image/svg+xml</dc:format>
        <dc:type
           rdf:resource="http://purl.org/dc/dcmitype/StillImage" />
        <dc:title></dc:title>
        <cc:license
           rdf:resource="http://creativecommons.org/licenses/publicdomain/" />
      </cc:Work>
      <cc:License
         rdf:about="http://creativecommons.org/licenses/publicdomain/">
        <cc:permits
           rdf:resource="http://creativecommons.org/ns#Reproduction" />
        <cc:permits
           rdf:resource="http://creativecommons.org/ns#Distribution" />
        <cc:permits
           rdf:resource="http://creativecommons.org/ns#DerivativeWorks" />
      </cc:License>
    </rdf:RDF>
  </metadata>
  <g
     transform="matrix(1.25,0,0,-1.25,-84.057,280.425)"
     id="g8537">
    <g
       transform="scale(0.24,0.24)"
       id="g8539">
      <g
         id="g8541">
        <g
           style="fill-rule:nonzero"
           clip-path="url(#clipPath8545)"
           id="g8543">
          <path
             style="fill:#e41836"
             inkscape:connector-curvature="0"
             d="m 280.19,314.02 620.73,0 0,620.73 -620.73,0 0,-620.73 z"
             id="path8551" />
          <path
             style="fill:#ffffff"
             inkscape:connector-curvature="0"
             d="m 531.99,401.27 30.562,0 0,156.59 -30.562,0 0,-156.59 z"
             id="path8553" />
          <path
             style="fill:#ffffff"
             inkscape:connector-curvature="0"
             d="m 590.35,401.27 50.062,0 0,214.95 -50.062,0 0,-214.95 z"
             id="path8555" />
          <path
             style="fill:#ffffff"
             inkscape:connector-curvature="0"
             d="m 504.58,765.92 c 0,0 50.469,49.332 135.51,33.101 0,0 37.43,-5.82 66.125,-31.3 0,0 4.266,-4 7.531,-0.723 0,0 4.168,3.266 -0.457,8.152 0,0 -24.668,34.207 -73.344,49.328 0,0 -66.882,23.946 -135.59,-8.41 0,0 -42.293,-17.527 -65.75,-65.277 0,0 -33.438,-10.801 -58.504,-24.859 0,0 -7.41,-2.934 -4.614,-8.692 0,0 2.399,-4.137 8.883,-1.066 0,0 23.282,8.035 45.719,13.051 0,0 -18.051,-46.805 0.797,-104.9 8.383,-25.863 23.687,-52.187 47.078,-73.348 0,0 3.809,-4.004 7.957,-1.273 0,0 3.613,2.625 1.07,6.91 0,0 -18.656,28.067 -25.894,67.984 -6.035,32.547 -3.192,77.489 19.41,113.12 0,0 86.066,12.007 159.42,-15.614 0,0 124.59,-40.656 93.23,-116.07 0,0 -9.105,-26.211 -43.504,-49.891 0,0 -5.761,-3.355 -2.64,-8.164 0,0 2.601,-3.746 8.5,-1.347 0,0 52.668,17.128 75.406,59.441 0,0 46.106,70.566 -62.637,128.14 0,0 -29.894,15.976 -68.336,24.523 0,0 -69.261,17.133 -135.36,7.172"
             id="path8557" />
        </g>
      </g>
    </g>
  </g>
</svg>
