<?xml version="1.0" encoding="UTF-8" standalone="no"?>
<!-- Created with Inkscape (http://www.inkscape.org/) -->

<svg
   xmlns:dc="http://purl.org/dc/elements/1.1/"
   xmlns:cc="http://creativecommons.org/ns#"
   xmlns:rdf="http://www.w3.org/1999/02/22-rdf-syntax-ns#"
   xmlns:svg="http://www.w3.org/2000/svg"
   xmlns="http://www.w3.org/2000/svg"
   xmlns:sodipodi="http://sodipodi.sourceforge.net/DTD/sodipodi-0.dtd"
   xmlns:inkscape="http://www.inkscape.org/namespaces/inkscape"
   width="702.46948"
   height="705.36444"
   id="svg2"
   version="1.1"
   inkscape:version="0.48.5 r10040"
   sodipodi:docname="Itau.svg">
  <defs
     id="defs4" />
  <sodipodi:namedview
     id="base"
     pagecolor="#ffffff"
     bordercolor="#666666"
     borderopacity="1.0"
     inkscape:pageopacity="0.0"
     inkscape:pageshadow="2"
     inkscape:zoom="0.92009179"
     inkscape:cx="351.23474"
     inkscape:cy="352.68223"
     inkscape:document-units="px"
     inkscape:current-layer="layer1"
     showgrid="false"
     inkscape:window-width="1440"
     inkscape:window-height="830"
     inkscape:window-x="0"
     inkscape:window-y="0"
     inkscape:window-maximized="1"
     fit-margin-top="0"
     fit-margin-left="0"
     fit-margin-right="0"
     fit-margin-bottom="0" />
  <metadata
     id="metadata7">
    <rdf:RDF>
      <cc:Work
         rdf:about="">
        <dc:format>image/svg+xml</dc:format>
        <dc:type
           rdf:resource="http://purl.org/dc/dcmitype/StillImage" />
        <dc:title></dc:title>
        <cc:license
           rdf:resource="http://creativecommons.org/licenses/publicdomain/" />
      </cc:Work>
      <cc:License
         rdf:about="http://creativecommons.org/licenses/publicdomain/">
        <cc:permits
           rdf:resource="http://creativecommons.org/ns#Reproduction" />
        <cc:permits
           rdf:resource="http://creativecommons.org/ns#Distribution" />
        <cc:permits
           rdf:resource="http://creativecommons.org/ns#DerivativeWorks" />
      </cc:License>
    </rdf:RDF>
  </metadata>
  <g
     inkscape:label="Layer 1"
     inkscape:groupmode="layer"
     id="layer1"
     transform="translate(95.990791,-171.74072)">
    <g
       id="g3855"
       transform="translate(-116.73284,-12.000573)">
      <g
         id="g3848">
        <g
           id="g2996"
           transform="matrix(5.9014884,0,0,5.9014884,-2259.4594,-3003.6903)">
          <path
             style="fill:#ebe809"
             d="m 396.78463,657.51735 c -2.69881,0.4795 -5.75728,-4.24349 -7.40728,-6.58614 l -3,-4.25937 3.32752,-46.82772 -3.32752,-46.82772 3,-4.26037 c 1.69869,-2.41235 4.95197,-5.2639 7.5,-6.57387 l 5.05459,-0.0952 45.11038,1.16204 42.70718,-0.50171 7.29282,0.61017 c 3.07472,0.25725 5.27008,4.86206 6.58503,7.46188 2.23414,4.41717 -3.11115,4.76242 -3.13296,48.98663 -0.0203,41.1621 5.1991,44.84131 3.49292,48.53811 -2.23426,4.84098 -5.03031,4.56008 -9.97177,6.62475 -3.15458,1.31807 -10.28914,1.39096 -48.07907,1.54773 l -44.55969,0.18487 z"
             id="path3010"
             inkscape:connector-curvature="0"
             sodipodi:nodetypes="sscccsscccsssssscs" />
          <path
             style="fill:#2b4485;fill-opacity:1"
             d="m 386.37735,646.38947 0,-93.59275 c 0.10208,-6.44918 7.45526,-12.39251 14.90728,-12.69033 l 90.21416,0 c 6.89464,0.22373 14.12291,6.61168 13.90641,12.69033 l 0,93.59275 c -0.15703,6.59864 -7.20729,13.2526 -13.90641,13.24004 l -90.21416,0 c -5.82175,-0.0423 -14.78479,-5.38439 -14.90728,-13.24004 z m 40.56574,-6.58053 c 2.83757,-1.51863 2.36094,-4.52481 -1.10917,-6.99575 -2.93369,-2.08897 -3.03286,-2.40694 -2.75,-8.81809 0.26412,-5.98662 0.51346,-6.68229 2.49615,-6.96434 1.14742,-0.16323 2.12484,-1.00991 2.67228,-2.04737 0.54744,-1.03746 0.6649,-2.26568 0.0924,-3.19201 -0.36393,-0.58884 -1.71606,-1.4715 -3.00473,-1.96145 -0.93669,-0.35613 -1.53798,-0.79419 -1.93605,-1.57273 -0.39808,-0.77854 -0.59295,-1.89756 -0.71681,-3.61559 -0.15484,-2.14772 -0.23277,-3.22209 -0.77175,-3.75954 -0.53899,-0.53744 -1.53903,-0.53795 -3.53807,-0.53795 -1.99515,0 -2.99533,0.003 -3.53505,0.53455 -0.53972,0.53197 -0.61896,1.59333 -0.77223,3.71092 -0.1075,1.48533 -0.33016,2.62474 -0.69586,3.48377 -0.36571,0.85902 -0.87446,1.43766 -1.55414,1.80141 -1.28059,0.68534 -1.91222,2.08198 -1.90073,3.48013 0.0115,1.39815 0.66611,2.79782 1.95803,3.48922 1.71022,0.91527 2,2.09382 2,8.13405 0,8.32187 1.98067,13.32009 5.83838,14.73313 3.56698,1.30655 4.93398,1.32502 7.22736,0.0976 z m 20.64343,-0.48777 c 2.48447,-1.03808 3.97061,-1.19727 4.66788,-0.5 1.63487,1.63487 7.32642,1.23808 8.01596,-0.55884 0.79299,-2.06649 0.78258,-15.29024 -0.0152,-19.279 -1.39775,-6.98877 -8.95146,-10.90574 -17.83186,-9.2467 -5.41602,1.01182 -7.9198,2.96976 -6.96834,5.44922 0.53875,1.40396 1.48512,1.58617 5.48351,1.05577 5.70837,-0.75724 9.93885,0.0975 9.93885,2.00801 0,0.86411 -1.74344,1.62885 -4.73683,2.07773 -8.53595,1.28005 -13.26317,5.13114 -13.26317,10.80501 0,4.06069 1.68348,6.66833 5.32874,8.25399 4.08383,1.77644 4.98783,1.77016 9.38043,-0.0652 z m -5.13774,-6.04848 c -2.06794,-2.06794 -1.98368,-3.01632 0.48753,-5.48753 2.80835,-2.80835 8.31042,-2.35774 8.74847,0.7165 0.35115,2.46432 -3.27146,6.34246 -5.92456,6.34246 -0.95701,0 -2.44716,-0.70714 -3.31144,-1.57143 z m 44.97395,3.3384 0,2.68009 7.95462,0 0,-28.94706 -7.95462,0 -0.15978,15.51439 c -0.0498,4.83136 -2.98088,7.17151 -6.3856,6.98561 -2.92644,-0.15979 -5.91319,-2.61095 -6,-5.55321 l -0.5,-16.94679 -8,0 -0.14351,16.66977 c -0.0378,4.38779 -0.0859,5.86939 3.24469,10.15868 5.53072,4.77608 15.31521,4.4637 17.9442,-0.56148 z m -83.04538,-36.26697 -8.01572,0 0,38.63934 8.01572,0 z m 85.93858,0.60769 -5.90628,0 -6.30562,7.12584 3.90054,0 z"
             id="path3006"
             inkscape:connector-curvature="0"
             sodipodi:nodetypes="ccccccccccsssscssssssssssssscccssssssssssccssssscccccsssccscccccccccccc" />
        </g>
      </g>
    </g>
  </g>
</svg>
