<?xml version="1.0" encoding="UTF-8" standalone="no"?>
<!-- Created with Inkscape (http://www.inkscape.org/) -->

<svg
   xmlns:dc="http://purl.org/dc/elements/1.1/"
   xmlns:cc="http://creativecommons.org/ns#"
   xmlns:rdf="http://www.w3.org/1999/02/22-rdf-syntax-ns#"
   xmlns:svg="http://www.w3.org/2000/svg"
   xmlns="http://www.w3.org/2000/svg"
   xmlns:sodipodi="http://sodipodi.sourceforge.net/DTD/sodipodi-0.dtd"
   xmlns:inkscape="http://www.inkscape.org/namespaces/inkscape"
   version="1.1"
   width="104.84771"
   height="95.91983"
   id="svg2"
   inkscape:version="0.48.5 r10040"
   sodipodi:docname="santander.svg">
  <sodipodi:namedview
     pagecolor="#ffffff"
     bordercolor="#666666"
     borderopacity="1"
     objecttolerance="10"
     gridtolerance="10"
     guidetolerance="10"
     inkscape:pageopacity="0"
     inkscape:pageshadow="2"
     inkscape:window-width="725"
     inkscape:window-height="480"
     id="namedview38"
     showgrid="false"
     fit-margin-top="0"
     fit-margin-left="0"
     fit-margin-right="0"
     fit-margin-bottom="0"
     inkscape:zoom="0.62229194"
     inkscape:cx="191.2288"
     inkscape:cy="-91.845388"
     inkscape:window-x="0"
     inkscape:window-y="0"
     inkscape:window-maximized="0"
     inkscape:current-layer="svg2" />
  <defs
     id="defs4">
    <style
       type="text/css"
       id="style2989" />
  </defs>
  <metadata
     id="metadata7">
    <rdf:RDF>
      <cc:Work
         rdf:about="">
        <dc:format>image/svg+xml</dc:format>
        <dc:type
           rdf:resource="http://purl.org/dc/dcmitype/StillImage" />
        <dc:title></dc:title>
        <cc:license
           rdf:resource="http://creativecommons.org/licenses/publicdomain/" />
      </cc:Work>
      <cc:License
         rdf:about="http://creativecommons.org/licenses/publicdomain/">
        <cc:permits
           rdf:resource="http://creativecommons.org/ns#Reproduction" />
        <cc:permits
           rdf:resource="http://creativecommons.org/ns#Distribution" />
        <cc:permits
           rdf:resource="http://creativecommons.org/ns#DerivativeWorks" />
      </cc:License>
    </rdf:RDF>
  </metadata>
  <g
     transform="translate(-180.2001,-333.16802)"
     id="layer1">
    <g
       transform="matrix(3.54331,0,0,3.54331,1.47146,-6.12708)"
       id="g3054"
       style="fill-rule:evenodd">
      <g
         id="Camada_x0020_1">
        <metadata
           id="CorelCorpID_0Corel-Layer" />
        <path
           d="m 45.1503,135.213 c -0.4136,4.9245 6.2547,8.0403 5.6424,12.9378 8.2126,1.527 9.3939,5.6319 8.6366,7.7459 -3.0748,8.5818 -25.9607,8.2719 -29.1089,0.5325 -0.9161,-2.2521 -0.0234,-6.0697 8.3325,-8.2784 2.2465,4.7133 5.1917,5.7329 5.9274,9.632 1.6039,-0.9586 1.1704,-4.8715 -1.1511,-7.3691 -3.2494,-3.4957 -4.4222,-6.7436 -1.6986,-9.7292 0.088,5.6479 5.5975,6.731 6.0985,12.3108 4.8778,-6.7057 -8.7249,-10.4672 -2.6788,-17.7823 z"
           id="path2993"
           style="fill:none"
           inkscape:connector-curvature="0" />
        <path
           d="m 67.164,155.175 c 1.6868,6.9519 9.1519,4.8487 8.3555,0.832 -0.9004,-4.541 -9.1512,-2.841 -8.8178,-9.5751 0.2349,-4.7458 6.5574,-5.5274 10.6502,-3.3539 l 0,4.1035 -0.7978,0 c -0.348,-4.9139 -7.9139,-5.6207 -7.1867,-0.6388 0.5049,3.4602 9.1356,3.1887 8.5868,9.479 -0.213,2.4412 -2.8071,6.7491 -11.4881,4.0976 l 0,-4.9585 0.6979,0.0142 z"
           id="path2995"
           style="fill:none"
           inkscape:connector-curvature="0" />
        <path
           d="m 86.8694,152.154 c 0.03,-3.3069 -4.9439,-2.7051 -3.7185,0.5556 l -1.6244,0.7408 c -2.6849,-4.0099 7.4694,-7.1638 7.865,-1.7667 l 2e-4,6.1694 c 0.0872,1.3655 0.8614,1.394 2.1087,0.7837 l 0.0143,0.7411 -3.5337,1.4107 c -0.5678,-0.3116 -0.9099,-0.853 -1.0261,-1.6242 -4.88,3.7031 -6.3734,0.2759 -6.4192,-0.772 -0.0983,-2.2516 0.749,-3.0118 6.3337,-4.6711 l 0,-1.5673 z"
           id="path2997"
           style="fill:none"
           inkscape:connector-curvature="0" />
        <path
           d="m 86.9335,154.455 c -2.0635,0.836 -3.9359,1.5538 -3.9679,2.9134 -0.0335,1.4217 1.4302,2.7502 3.9679,0.9622 l 0,-3.8756 z"
           id="path2999"
           style="fill:none"
           inkscape:connector-curvature="0" />
        <path
           d="m 92.3557,151.028 0,-0.7124 3.5051,-1.5104 0.684,0 0,1.7382 c 3.1149,-3.1021 7.5509,-2.0382 7.6657,2.0804 l 0,6.07 c 0.057,0.8184 0.6459,1.2268 1.7669,1.2254 l 0,0.5698 -6.0699,0 -3e-4,-0.5699"
           id="path3001"
           style="fill:none"
           inkscape:connector-curvature="0" />
        <path
           d="m 92.3557,151.028 c 1.2127,-0.3797 1.8015,-0.1137 1.7668,0.7978 l 0,7.0959 c -0.1259,0.6934 -0.7149,0.9972 -1.7668,0.9118 l 0,0.5985 5.9844,0 0,-0.5128 c -1.0153,-0.0716 -1.5947,-0.5086 -1.7383,-1.3109 l 0,-6.9819 c 1.8742,-1.864 4.9227,-1.8826 5.1579,1.3964 l 0,5.9844 c -0.4293,0.5237 -1.0469,0.8277 -1.8525,0.9119"
           id="path3003"
           style="fill:none"
           inkscape:connector-curvature="0" />
        <path
           d="m 122.633,152.14 c 0.03,-3.3069 -4.9439,-2.7051 -3.7185,0.5556 l -1.6244,0.7408 c -2.6849,-4.0099 7.4694,-7.1638 7.865,-1.7668 l 2e-4,6.1695 c 0.0872,1.3654 0.8614,1.394 2.1087,0.7837 l 0.0143,0.7411 -3.5337,1.4107 c -0.5678,-0.3116 -0.9099,-0.853 -1.0261,-1.6242 -4.88,3.7031 -6.3734,0.2759 -6.4192,-0.772 -0.0983,-2.2516 0.749,-3.0118 6.3337,-4.6711 l 0,-1.5673 z"
           id="path3005"
           style="fill:none"
           inkscape:connector-curvature="0" />
        <path
           d="m 122.697,154.44 c -2.0635,0.836 -3.9359,1.5538 -3.9679,2.9134 -0.0335,1.4217 1.4302,2.7502 3.9679,0.9622 l 0,-3.8756 z"
           id="path3007"
           style="fill:none"
           inkscape:connector-curvature="0" />
        <path
           d="m 128.119,151.014 0,-0.7124 3.5051,-1.5104 0.684,0 0,1.7382 c 3.1149,-3.1021 7.5509,-2.0382 7.6657,2.0804 l 0,6.07 c 0.057,0.8184 0.6459,1.2268 1.7669,1.2254 l 0,0.5698 -6.0699,0 -3e-4,-0.5699"
           id="path3009"
           style="fill:none"
           inkscape:connector-curvature="0" />
        <path
           d="m 128.119,151.014 c 1.2127,-0.3797 1.8015,-0.1138 1.7668,0.7978 l 0,7.0959 c -0.1259,0.6934 -0.7149,0.9972 -1.7668,0.9118 l 0,0.5985 5.9844,0 0,-0.5128 c -1.0153,-0.0716 -1.5947,-0.5086 -1.7383,-1.311 l 0,-6.9818 c 1.8742,-1.864 4.9227,-1.8826 5.1579,1.3964 l 0,5.9844 c -0.4293,0.5237 -1.0469,0.8277 -1.8525,0.9119"
           id="path3011"
           style="fill:none"
           inkscape:connector-curvature="0" />
        <path
           d="m 106.889,149.66 c 2.0259,-1.0969 3.3273,-2.3413 3.9041,-3.7331 l 0.4489,-2e-4 0.007,3.3269 4.1464,0.0144 -0.4988,0.9118 -3.6618,0 0,6.5543 c -0.0289,1.8002 1.4909,2.8544 3.5337,1.7954"
           id="path3013"
           style="fill:none"
           inkscape:connector-curvature="0" />
        <path
           d="m 114.768,158.53 0.4349,0.3917 -2.2229,1.4818 c -2.73,0.3428 -4.1216,-0.7544 -4.1747,-3.2913 l 0,-6.7825 -1.9094,0 -0.007,-0.6692"
           id="path3015"
           style="fill:none"
           inkscape:connector-curvature="0" />
        <path
           d="m 149.955,141.923 3.9327,-1.6528 0.6982,-2e-4 0.0142,17.0984 c -0.1072,1.4802 0.5577,1.9172 1.9949,1.3108 l -1e-4,0.6985 -3.3769,1.3536 c -0.6934,-0.3855 -0.9464,-0.8529 -1.026,-1.6671 -4.5182,3.9195 -8.969,0.4357 -9.113,-3.965 -0.1199,-3.6671 3.3397,-7.5383 8.8066,-5.9878"
           id="path3017"
           style="fill:none"
           inkscape:connector-curvature="0" />
        <path
           d="m 152.044,151.319 c -0.1381,-0.8675 -0.9459,-1.2418 -1.4263,-1.3692 -6.4142,-1.7013 -6.3174,11.261 0.2914,8.8766 0.3743,-0.1351 1.1689,-0.4793 1.1623,-1.3237 l -0.0274,-6.1837 z"
           id="path3019"
           style="fill:none"
           inkscape:connector-curvature="0" />
        <path
           d="m 150.173,141.831 0.0311,0.8965 c 0.8466,-0.4846 1.8473,-0.4277 1.8177,0.5127 l -0.1363,5.8709"
           id="path3021"
           style="fill:none"
           inkscape:connector-curvature="0" />
        <path
           d="m 160.478,153.727 c -0.177,4.6457 3.3471,6.7262 7.6657,4.3603 l 0,0.9119 c -2.8534,3.2098 -10.5015,2.3745 -10.2888,-4.2741 -0.038,-7.31 10.4692,-8.4693 10.6593,-1.0264 l -8.0362,0.0283 z"
           id="path3023"
           style="fill:none"
           inkscape:connector-curvature="0" />
        <path
           d="m 160.62,152.744 c 0.4909,-3.915 5.2237,-3.6289 5.2293,0 l -5.2293,0 z"
           id="path3025"
           style="fill:none"
           inkscape:connector-curvature="0" />
        <path
           d="m 171.938,151.863 c -0.0268,-0.872 -0.6124,-1.1723 -1.7568,-0.9006 l 0,-0.5558 4.1038,-1.8235 0,2.6073 c 0.2512,-0.3946 1.5273,-3.2397 4.5025,-2.4082 l -0.0141,2.7926 -0.3134,0 c -0.5713,-1.6955 -4.0208,-1.2164 -4.1321,1.6813 l 0,5.2435 c -0.0513,0.9296 0.8747,1.395 2.3082,1.3964 l -0.007,0.5201 -6.4404,0 0,-0.4702 c 1.0022,-0.0686 1.5818,-0.4154 1.7384,-1.0402 l 0.011,-7.0427 z"
           id="path3027"
           style="fill:none"
           inkscape:connector-curvature="0" />
        <path
           d="m 50.728811,116.97274 c 3.1482,7.7394 26.0341,8.0493 29.1089,-0.5325 0.7573,-2.114 -0.424,-6.2189 -8.6366,-7.7459 0.6123,-4.8975 -6.056,-8.0133 -5.6424,-12.937801 -6.0461,7.315101 7.5566,11.076601 2.6788,17.782301 -0.501,-5.5798 -6.0105,-6.6629 -6.0985,-12.3108 -2.7236,2.9856 -1.5508,6.2335 1.6986,9.7292 2.3215,2.4976 2.755,6.4105 1.1511,7.3691 -0.7357,-3.8991 -3.6809,-4.9187 -5.9274,-9.632 -8.3559,2.2087 -9.2486,6.0263 -8.3325,8.2784 z"
           id="path3029"
           style="fill:#ee1d23"
           inkscape:connector-curvature="0" />
      </g>
    </g>
  </g>
</svg>
