<?xml version="1.0" encoding="UTF-8" standalone="no"?>
<svg
   xmlns:dc="http://purl.org/dc/elements/1.1/"
   xmlns:cc="http://creativecommons.org/ns#"
   xmlns:rdf="http://www.w3.org/1999/02/22-rdf-syntax-ns#"
   xmlns:svg="http://www.w3.org/2000/svg"
   xmlns="http://www.w3.org/2000/svg"
   xmlns:sodipodi="http://sodipodi.sourceforge.net/DTD/sodipodi-0.dtd"
   xmlns:inkscape="http://www.inkscape.org/namespaces/inkscape"
   version="1.1"
   width="18.64"
   id="bank"
   viewBox="0 0 125 125"
   height="18.64"
   inkscape:version="0.48.5 r10040"
   sodipodi:docname="bank.svg">
  <metadata
     id="metadata11">
    <rdf:RDF>
      <cc:Work
         rdf:about="">
        <dc:format>image/svg+xml</dc:format>
        <dc:type
           rdf:resource="http://purl.org/dc/dcmitype/StillImage" />
        <dc:title></dc:title>
        <cc:license
           rdf:resource="http://creativecommons.org/licenses/publicdomain/" />
      </cc:Work>
      <cc:License
         rdf:about="http://creativecommons.org/licenses/publicdomain/">
        <cc:permits
           rdf:resource="http://creativecommons.org/ns#Reproduction" />
        <cc:permits
           rdf:resource="http://creativecommons.org/ns#Distribution" />
        <cc:permits
           rdf:resource="http://creativecommons.org/ns#DerivativeWorks" />
      </cc:License>
    </rdf:RDF>
  </metadata>
  <defs
     id="defs9" />
  <sodipodi:namedview
     pagecolor="#ffffff"
     bordercolor="#666666"
     borderopacity="1"
     objecttolerance="10"
     gridtolerance="10"
     guidetolerance="10"
     inkscape:pageopacity="0"
     inkscape:pageshadow="2"
     inkscape:window-width="711"
     inkscape:window-height="480"
     id="namedview7"
     showgrid="false"
     inkscape:zoom="12.660945"
     inkscape:cx="9.3199997"
     inkscape:cy="9.3199997"
     inkscape:window-x="0"
     inkscape:window-y="0"
     inkscape:window-maximized="0"
     inkscape:current-layer="bank" />
  <path
     style="fill:#000000; stroke:none;"
     d="M 65,0.2965772 L 0,50 L 15,50 L 15,125 L 110,125 L 110,50 L 125,50 L 65,0.2965772 z"
     id="path3" />
  <path
     style="fill:#ffffff; stroke:none"
     d="M 62,102 C 57,102 43,100 44,91 C 45,82 55,87 62,88 L 62,75 C 54,73 44,67 44,56 C 44,45 54,38 62,38 C 62,32 62,30 65,30 C 68,30 68,32 68,38 C 74,38 88,40 85,47 C 82,54 73,51 68,50 L 68,63 C 77,65 87,71 87,82 C 87,93 78,102 68,102 C 68,108 68,110 65,110 C 62,110 62,108 62,102 z M 62,61 L 62,50 C 55,51 55,60 62,61 z M 68,77 L 68,88 C 75,87 75,78 68,77 z"
     id="path5" />
</svg>
