<?xml version="1.0" encoding="UTF-8" standalone="no"?>
<!-- Created with Inkscape (http://www.inkscape.org/) -->

<svg
   xmlns:dc="http://purl.org/dc/elements/1.1/"
   xmlns:cc="http://creativecommons.org/ns#"
   xmlns:rdf="http://www.w3.org/1999/02/22-rdf-syntax-ns#"
   xmlns:svg="http://www.w3.org/2000/svg"
   xmlns="http://www.w3.org/2000/svg"
   xmlns:sodipodi="http://sodipodi.sourceforge.net/DTD/sodipodi-0.dtd"
   xmlns:inkscape="http://www.inkscape.org/namespaces/inkscape"
   width="391.40625"
   height="402.84375"
   id="svg2"
   version="1.1"
   inkscape:version="0.48.2 r9819"
   sodipodi:docname="void.svg">
  <defs
     id="defs4" />
  <sodipodi:namedview
     id="base"
     pagecolor="#ffffff"
     bordercolor="#666666"
     borderopacity="1.0"
     inkscape:pageopacity="0.0"
     inkscape:pageshadow="2"
     inkscape:zoom="0.35"
     inkscape:cx="203.5625"
     inkscape:cy="202.85657"
     inkscape:document-units="px"
     inkscape:current-layer="layer1"
     showgrid="false"
     inkscape:window-width="719"
     inkscape:window-height="432"
     inkscape:window-x="0"
     inkscape:window-y="0"
     inkscape:window-maximized="0"
     fit-margin-top="0"
     fit-margin-left="0"
     fit-margin-right="0"
     fit-margin-bottom="0" />
  <metadata
     id="metadata7">
    <rdf:RDF>
      <cc:Work
         rdf:about="">
        <dc:format>image/svg+xml</dc:format>
        <dc:type
           rdf:resource="http://purl.org/dc/dcmitype/StillImage" />
        <dc:title></dc:title>
        <cc:license
           rdf:resource="http://creativecommons.org/licenses/publicdomain/" />
      </cc:Work>
      <cc:License
         rdf:about="http://creativecommons.org/licenses/publicdomain/">
        <cc:permits
           rdf:resource="http://creativecommons.org/ns#Reproduction" />
        <cc:permits
           rdf:resource="http://creativecommons.org/ns#Distribution" />
        <cc:permits
           rdf:resource="http://creativecommons.org/ns#DerivativeWorks" />
      </cc:License>
    </rdf:RDF>
  </metadata>
  <g
     inkscape:label="Layer 1"
     inkscape:groupmode="layer"
     id="layer1"
     transform="translate(-171.4375,-332.375)">
    <path
       style="fill:#9e9e9e;fill-opacity:1;stroke:none"
       d="m 171.4375,332.375 0,402.84375 391.40625,0 0,-402.84375 -391.40625,0 z m 83.90625,48.0625 93.21875,0 c 20.61234,2.9e-4 38.06913,1.49399 52.375,4.5 14.30548,2.87589 26.9869,7.44498 38.0625,13.71875 13.07484,7.45069 23.14257,16.73372 30.21875,27.84375 7.22949,11.11053 10.84348,25.16426 10.84375,42.15625 -2.7e-4,12.94041 -2.6789,24.95239 -8.0625,36.0625 -5.23029,10.97973 -12.61938,20.52117 -22.15625,28.625 -11.84473,10.06474 -25.84864,17.65246 -42,22.75 -16.15176,4.96707 -36.51323,7.43761 -61.125,7.4375 l -45.6875,0 0,108.84375 -45.6875,0 0,-291.9375 z m 45.6875,33.3125 0,116.65625 38.53125,0 c 18.45881,1.4e-4 33.46298,-1.37996 45,-4.125 11.53666,-2.87545 20.89505,-7.35651 28.125,-13.5 7.22955,-6.27389 12.32711,-12.88474 15.25,-19.8125 3.07627,-6.92741 4.59352,-14.71674 4.59375,-23.34375 -2.3e-4,-10.0644 -2.0657,-18.79935 -6.21875,-26.25 -4.15348,-7.4502 -10.47735,-13.54423 -18.9375,-18.25 -7.38377,-4.05174 -15.83805,-6.92553 -25.375,-8.625 -9.38347,-1.82968 -21.29064,-2.74974 -35.75,-2.75 l -45.21875,0 z"
       id="rect3032"
       inkscape:connector-curvature="0" />
    <g
       transform="scale(1.084825,0.92180768)"
       style="font-size:435.59945679px;font-style:normal;font-weight:normal;line-height:125%;letter-spacing:0px;word-spacing:0px;fill:#ffffff;fill-opacity:1;stroke:none;font-family:Sans"
       id="text3034" />
  </g>
</svg>
