<?xml version="1.0" encoding="UTF-8" standalone="no"?>
<!-- Created with Inkscape (http://www.inkscape.org/) -->

<svg
   xmlns:dc="http://purl.org/dc/elements/1.1/"
   xmlns:cc="http://creativecommons.org/ns#"
   xmlns:rdf="http://www.w3.org/1999/02/22-rdf-syntax-ns#"
   xmlns:svg="http://www.w3.org/2000/svg"
   xmlns="http://www.w3.org/2000/svg"
   xmlns:sodipodi="http://sodipodi.sourceforge.net/DTD/sodipodi-0.dtd"
   xmlns:inkscape="http://www.inkscape.org/namespaces/inkscape"
   version="1.0"
   width="621.125"
   height="268.625"
   id="svg2"
   xml:space="preserve"
   inkscape:version="0.48.2 r9819"
   sodipodi:docname="shield-default.svg"><metadata
     id="metadata21"><rdf:RDF><cc:Work
         rdf:about=""><dc:format>image/svg+xml</dc:format><dc:type
           rdf:resource="http://purl.org/dc/dcmitype/StillImage" /><dc:title></dc:title><cc:license
           rdf:resource="http://creativecommons.org/licenses/publicdomain/" /></cc:Work><cc:License
         rdf:about="http://creativecommons.org/licenses/publicdomain/"><cc:permits
           rdf:resource="http://creativecommons.org/ns#Reproduction" /><cc:permits
           rdf:resource="http://creativecommons.org/ns#Distribution" /><cc:permits
           rdf:resource="http://creativecommons.org/ns#DerivativeWorks" /></cc:License></rdf:RDF></metadata><sodipodi:namedview
     pagecolor="#ffffff"
     bordercolor="#666666"
     borderopacity="1"
     objecttolerance="10"
     gridtolerance="10"
     guidetolerance="10"
     inkscape:pageopacity="0"
     inkscape:pageshadow="2"
     inkscape:window-width="719"
     inkscape:window-height="480"
     id="namedview19"
     showgrid="false"
     inkscape:zoom="0.58925337"
     inkscape:cx="310.5625"
     inkscape:cy="134.3125"
     inkscape:window-x="0"
     inkscape:window-y="0"
     inkscape:window-maximized="0"
     inkscape:current-layer="svg2" /><defs
     id="defs5"><clipPath
       id="clipPath19"><path
         d="M 0,0 L 4968.75,0 L 4968.75,2148.75 L 0,2148.75 L 0,0 z"
         id="path21" /></clipPath></defs><g
     transform="matrix(1.25,0,0,-1.25,0,268.625)"
     id="g11"><g
       transform="scale(0.1,0.1)"
       id="g13"><g
         id="g15"><g
           clip-path="url(#clipPath19)"
           id="g17"><path
             d="M 0,1.25 L 4968.75,1.25 L 4968.75,2148.75 L 0,2148.75 L 0,1.25 z"
             id="path23"
             style="fill:#ffffff;fill-opacity:1;fill-rule:evenodd;stroke:none" /><path
             d="M 4792.5,1030 L 4790,986.25 L 4783.75,942.5 L 4776.25,898.75 L 4766.25,856.25 L 4755,813.75 L 4741.25,771.25 L 4725,730 L 4707.5,690 L 4687.5,650 L 4642.5,575 L 4616.25,538.75 L 4588.75,503.75 L 4560,470 L 4530,438.75 L 4497.5,407.5 L 4465,378.75 L 4430,352.5 L 4393.75,327.5 L 4356.25,302.5 L 4317.5,281.25 L 4278.75,261.25 L 4238.75,243.75 L 4197.5,227.5 L 4155,213.75 L 4112.5,202.5 L 4070,192.5 L 4026.25,185 L 3982.5,180 L 3938.75,176.25 L 3893.75,175 L 1075,175 L 1030,176.25 L 986.25,180 L 942.5,185 L 898.75,192.5 L 856.25,202.5 L 813.75,213.75 L 771.25,227.5 L 730,243.75 L 690,261.25 L 650,281.25 L 611.25,302.5 L 538.75,352.5 L 503.75,378.75 L 470,407.5 L 407.5,470 L 378.75,503.75 L 352.5,538.75 L 326.25,575 L 302.5,612.5 L 281.25,650 L 261.25,690 L 243.75,730 L 227.5,771.25 L 213.75,813.75 L 191.25,898.75 L 178.75,986.25 L 176.25,1030 L 175,1075 L 176.25,1118.75 L 178.75,1162.5 L 191.25,1250 L 202.5,1292.5 L 213.75,1336.25 L 227.5,1377.5 L 243.75,1418.75 L 261.25,1458.75 L 281.25,1498.75 L 302.5,1537.5 L 326.25,1575 L 378.75,1645 L 407.5,1678.75 L 438.75,1711.25 L 470,1741.25 L 503.75,1770 L 538.75,1797.5 L 575,1822.5 L 611.25,1846.25 L 650,1867.5 L 690,1887.5 L 730,1906.25 L 771.25,1921.25 L 813.75,1935 L 856.25,1947.5 L 898.75,1956.25 L 942.5,1965 L 986.25,1970 L 1030,1972.5 L 1075,1973.75 L 3893.75,1973.75 L 3938.75,1972.5 L 3982.5,1970 L 4026.25,1965 L 4070,1956.25 L 4112.5,1947.5 L 4155,1935 L 4197.5,1921.25 L 4238.75,1906.25 L 4278.75,1887.5 L 4317.5,1867.5 L 4356.25,1846.25 L 4393.75,1822.5 L 4430,1797.5 L 4465,1770 L 4497.5,1741.25 L 4530,1711.25 L 4560,1678.75 L 4588.75,1645 L 4616.25,1610 L 4642.5,1575 L 4665,1537.5 L 4687.5,1498.75 L 4707.5,1458.75 L 4725,1418.75 L 4741.25,1377.5 L 4755,1336.25 L 4766.25,1292.5 L 4776.25,1250 L 4783.75,1206.25 L 4790,1162.5 L 4792.5,1118.75 L 4793.75,1075 L 4792.5,1030 z M 4900,1123.75 L 4896.25,1172.5 L 4890,1222.5 L 4882.5,1271.25 L 4871.25,1320 L 4857.5,1367.5 L 4842.5,1413.75 L 4825,1460 L 4805,1505 L 4782.5,1548.75 L 4757.5,1592.5 L 4731.25,1633.75 L 4703.75,1675 L 4672.5,1713.75 L 4640,1751.25 L 4606.25,1787.5 L 4571.25,1820 L 4532.5,1852.5 L 4493.75,1883.75 L 4453.75,1911.25 L 4411.25,1937.5 L 4368.75,1962.5 L 4325,1985 L 4280,2005 L 4233.75,2022.5 L 4186.25,2038.75 L 4138.75,2051.25 L 4091.25,2062.5 L 4042.5,2071.25 L 3992.5,2076.25 L 3943.75,2080 L 3893.75,2081.25 L 1075,2081.25 L 1025,2080 L 975,2076.25 L 926.25,2071.25 L 878.75,2062.5 L 830,2051.25 L 782.5,2038.75 L 735,2022.5 L 688.75,2005 L 643.75,1985 L 600,1962.5 L 556.25,1937.5 L 515,1911.25 L 475,1883.75 L 435,1852.5 L 362.5,1787.5 L 327.5,1751.25 L 296.25,1713.75 L 266.25,1675 L 236.25,1633.75 L 210,1592.5 L 186.25,1548.75 L 163.75,1505 L 143.75,1460 L 126.25,1413.75 L 111.25,1367.5 L 97.5,1320 L 86.25,1271.25 L 78.75,1222.5 L 72.5,1172.5 L 68.75,1123.75 L 67.5,1075 L 68.75,1025 L 72.5,976.25 L 78.75,927.5 L 86.25,878.75 L 97.5,830 L 111.25,782.5 L 126.25,736.25 L 143.75,690 L 163.75,643.75 L 186.25,600 L 210,557.5 L 236.25,515 L 266.25,475 L 296.25,436.25 L 327.5,398.75 L 362.5,362.5 L 398.75,328.75 L 435,296.25 L 475,266.25 L 515,237.5 L 556.25,211.25 L 600,186.25 L 643.75,165 L 688.75,145 L 735,126.25 L 782.5,111.25 L 830,97.5 L 878.75,87.5 L 926.25,78.75 L 975,72.5 L 1025,68.75 L 1075,67.5 L 3893.75,67.5 L 3943.75,68.75 L 3992.5,72.5 L 4042.5,78.75 L 4091.25,87.5 L 4138.75,97.5 L 4186.25,111.25 L 4233.75,126.25 L 4280,145 L 4325,165 L 4368.75,186.25 L 4411.25,211.25 L 4453.75,237.5 L 4493.75,266.25 L 4532.5,296.25 L 4571.25,328.75 L 4606.25,362.5 L 4640,398.75 L 4672.5,436.25 L 4703.75,475 L 4731.25,515 L 4757.5,557.5 L 4782.5,600 L 4805,643.75 L 4825,690 L 4842.5,736.25 L 4857.5,782.5 L 4871.25,830 L 4882.5,878.75 L 4890,927.5 L 4896.25,976.25 L 4900,1025 L 4901.25,1075 L 4900,1123.75"
             id="path25"
             style="fill:#000000;fill-opacity:1;fill-rule:evenodd;stroke:none" /><path
             d="M 0,0 L 4968.75,0 L 4968.75,2148.75 L 0,2148.75 L 0,0"
             id="path39"
             style="fill:none;stroke:#000000;stroke-width:1;stroke-linecap:square;stroke-linejoin:miter;stroke-miterlimit:10;stroke-dasharray:none;stroke-opacity:1" /></g></g></g></g></svg>