<?xml version="1.0" encoding="UTF-8" standalone="no"?>
<!-- Created with Inkscape (http://www.inkscape.org/) -->

<svg
   xmlns:dc="http://purl.org/dc/elements/1.1/"
   xmlns:cc="http://creativecommons.org/ns#"
   xmlns:rdf="http://www.w3.org/1999/02/22-rdf-syntax-ns#"
   xmlns:svg="http://www.w3.org/2000/svg"
   xmlns="http://www.w3.org/2000/svg"
   xmlns:sodipodi="http://sodipodi.sourceforge.net/DTD/sodipodi-0.dtd"
   xmlns:inkscape="http://www.inkscape.org/namespaces/inkscape"
   version="1.1"
   width="872.90619"
   height="1079.75"
   id="svg2"
   inkscape:version="0.91 r13725"
   sodipodi:docname="br.svg">
  <sodipodi:namedview
     pagecolor="#ffffff"
     bordercolor="#666666"
     borderopacity="1"
     objecttolerance="10"
     gridtolerance="10"
     guidetolerance="10"
     inkscape:pageopacity="0"
     inkscape:pageshadow="2"
     inkscape:window-width="1598"
     inkscape:window-height="884"
     id="namedview17"
     showgrid="false"
     inkscape:zoom="0.43713823"
     inkscape:cx="267.28871"
     inkscape:cy="546.92875"
     inkscape:window-x="1280"
     inkscape:window-y="14"
     inkscape:window-maximized="1"
     inkscape:current-layer="svg2" />
  <defs
     id="defs4" />
  <metadata
     id="metadata7">
    <rdf:RDF>
      <cc:Work
         rdf:about="">
        <dc:format>image/svg+xml</dc:format>
        <dc:type
           rdf:resource="http://purl.org/dc/dcmitype/StillImage" />
        <dc:title />
        <cc:license
           rdf:resource="http://creativecommons.org/licenses/publicdomain/" />
      </cc:Work>
      <cc:License
         rdf:about="http://creativecommons.org/licenses/publicdomain/">
        <cc:permits
           rdf:resource="http://creativecommons.org/ns#Reproduction" />
        <cc:permits
           rdf:resource="http://creativecommons.org/ns#Distribution" />
        <cc:permits
           rdf:resource="http://creativecommons.org/ns#DerivativeWorks" />
      </cc:License>
    </rdf:RDF>
  </metadata>
  <g
     id="g4144">
    <path
       d="m 5,5 c 0,0 0,566.4375 0,849.65625 0,2.71875 0,8.15625 0,8.15625 0.330896,7.65855 1.598328,15.5183 3.34375,23 2.904615,12.45054 7.887049,24.08991 12.15625,32.9375 4.269201,8.84759 12.270326,24.48593 21.875,36.375 13.386497,16.57037 35.27241,32.36423 45.65625,38.34375 10.38384,5.9795 23.79337,12.60795 38.8125,17.03125 15.01913,4.4233 31.66352,6.5312 47.28125,6.5312 10.60205,0 21.69367,-1.0709 36,-3.9063 14.30628,-2.8351 35.34405,-3.7952 48,-3.5624 12.65595,0.2327 20.27417,0.3606 29.84375,0.4374 9.56958,0.077 20.78368,0.7396 30.78125,2.3126 22.41354,3.5263 44.06515,11.759 58.46875,19.3437 14.40359,7.5849 23.89412,14.0416 35.75,23.0313 7.13537,5.4103 16.77217,13.763 19.78125,16.5625 3.00908,2.7995 3.6875,3.5 3.6875,3.5 l 4.5,-4.2812 c 5.71271,-5.4349 12.15639,-10.616 18.96875,-15.7812 11.85588,-8.9897 21.34641,-15.4464 35.75,-23.0313 14.4036,-7.5848 36.05521,-15.8173 58.46875,-19.3438 9.99757,-1.573 21.21167,-2.2356 30.78125,-2.3125 9.56958,-0.077 17.1878,-0.2048 29.84375,-0.4375 12.65595,-0.2328 33.66244,0.7273 47.96875,3.5624 14.30631,2.8352 25.4292,3.9063 36.03125,3.9063 15.61773,0 32.53676,-2.189 47.28125,-6.5312 15.29377,-4.5041 28.42866,-11.05175 38.8125,-17.03125 10.38384,-5.97952 32.26975,-21.77338 45.65625,-38.34375 9.60467,-11.88907 17.6058,-27.52741 21.875,-36.375 4.2692,-8.84759 9.25164,-20.48696 12.15625,-32.9375 1.74543,-7.4817 3.1593,-18.47417 3.34375,-23 l 0.0312,-7.3125 0,-850.5 z"
       id="rect3785"
       style="display:inline;fill:#ffffff;stroke:#000000;stroke-width:4;stroke-miterlimit:4;stroke-dasharray:none;stroke-opacity:1"
       inkscape:connector-curvature="0" />
    <g
       id="g4140">
      <path
         inkscape:connector-curvature="0"
         style="fill:#000000;stroke:#000000;stroke-width:29.20000267;stroke-linecap:butt;stroke-linejoin:miter;stroke-miterlimit:4;stroke-dasharray:none;stroke-opacity:1;fill-opacity:1"
         id="path3806"
         d="m 38.663641,427.42575 792.779109,0" />
      <path
         inkscape:connector-curvature="0"
         style="color:#000000;font-style:normal;font-variant:normal;font-weight:normal;font-stretch:normal;font-size:medium;line-height:normal;font-family:Sans;-inkscape-font-specification:Sans;text-indent:0;text-align:start;text-decoration:none;text-decoration-line:none;letter-spacing:normal;word-spacing:normal;text-transform:none;direction:ltr;block-progression:tb;writing-mode:lr-tb;baseline-shift:baseline;text-anchor:start;display:inline;overflow:visible;visibility:visible;fill:#000000;fill-opacity:1;stroke:none;stroke-width:30;marker:none;enable-background:accumulate"
         id="path3824"
         d="m 26.5625,26.5625 0,15 0,813.09375 c 0,1.7991 -0.127656,4.31416 0.03125,7.59375 0.234359,4.83684 1.122409,11.54567 2.78125,18.65625 2.378699,10.19622 6.592884,20.24203 10.5625,28.46875 4.197202,8.69838 11.329978,22.42244 19.21875,32.1875 11.457529,14.18261 29.68573,27.49523 39.625,33.21875 9.4801,5.45909 21.34108,11.22588 34.15625,15 12.7667,3.7599 27.38576,5.6875 41.1875,5.6875 9.05171,0 18.61539,-0.8906 31.78125,-3.5 17.76799,-3.52111 38.07001,-4.23649 52.625,-3.96875 12.63754,0.23236 20.1194,0.36147 29.59375,0.4375 10.50232,0.0845 22.37415,0.73825 33.96875,2.56245 25.57357,4.0235 48.38352,12.73005 65.15625,21.56255 15.32629,8.0708 26.51048,15.6256 38.75,24.9063 l 0,0.031 c -0.0103,-0.01 0.3688,0.3298 1.28125,1.0313 l 9.125,7 9.125,-6.9687 c 0.97089,-0.741 1.42888,-1.127 1.34375,-1.0626 l 0,-0.031 c 12.23952,-9.2807 23.42371,-16.8355 38.75,-24.9062 16.77285,-8.8325 39.58294,-17.53905 65.15625,-21.56265 11.59457,-1.8242 23.46637,-2.47795 33.96875,-2.56245 9.47468,-0.0761 16.95634,-0.20514 29.59375,-0.4375 14.55286,-0.26769 34.83396,0.44939 52.59375,3.96875 13.16147,2.6083 22.75869,3.5 31.8125,3.5 13.77487,0 28.68173,-2.0045 41.1875,-5.6875 13.0844,-3.85334 24.63944,-9.51977 34.15625,-15 9.93926,-5.72351 28.16747,-19.03612 39.625,-33.21875 7.88876,-9.76506 15.02155,-23.48913 19.21875,-32.1875 3.96962,-8.22673 8.18381,-18.27253 10.5625,-28.46875 0.80191,-3.43735 1.3068,-7.0822 1.8125,-10.6875 0.25285,-1.80265 0.46317,-3.47731 0.625,-4.75 0.0809,-0.63635 0.168,-1.16336 0.21875,-1.59375 0.0254,-0.2152 0.0409,-0.39054 0.0625,-0.59375 0.002,0.005 0.0293,-0.007 0.0312,0 0.0172,-0.0861 0.0498,-0.43294 0.0625,-1.625 0.023,-2.15481 0.023,-4.23543 0.0312,-6.25 l 0,-0.0312 0,-0.0312 0,-813.78125 0,-15 -15,0 -789.78125,0 -15,0 z m 30,30 759.78125,0 0,355.96875 -759.78125,0 0,-355.96875 z m 0,385.96875 759.78125,0 0,412.75 0,0.0625 c -0.007,1.80832 -0.0172,3.54698 -0.0312,5.25 -0.0348,0.2898 -0.0647,0.61918 -0.125,1.09375 -0.14491,1.13961 -0.36132,2.71795 -0.59375,4.375 -0.46485,3.3141 -1.15659,7.49692 -1.28125,8.03125 -1.51723,6.50358 -5.03782,15.3027 -8.375,22.21875 -3.45674,7.16383 -11.43601,21.30574 -15.53125,26.375 -5.10181,6.31523 -30.23668,25.47424 -31.3125,26.09375 -8.14561,4.69063 -17.69505,9.31644 -27.65625,12.25 -8.82685,2.59953 -22.06219,4.4375 -32.6875,4.4375 -7.22345,0 -14.19487,-0.59798 -26,-2.9375 C 651.59328,958.33873 629.7266,957.70669 613.7813,958 c -12.62723,0.23218 -19.95603,0.3626 -29.28125,0.4375 -11.55332,0.093 -24.82474,0.80061 -38.40625,2.9375 -29.37595,4.62182 -55.0017,14.37383 -74.46875,24.625 -13.65152,7.18885 -24.57222,14.4834 -35.1875,22.1562 -10.61528,-7.6728 -21.53598,-14.96735 -35.1875,-22.1562 -19.46669,-10.25101 -45.0922,-20.00335 -74.46875,-24.625 -13.58148,-2.13689 -26.85287,-2.84457 -38.40625,-2.9375 -9.32463,-0.0748 -16.65377,-0.20532 -29.28125,-0.4375 -15.94499,-0.2933 -37.83075,0.3361 -59,4.53125 -11.81962,2.34255 -18.74228,2.9375 -25.96875,2.9375 -10.85136,0 -23.42382,-1.70924 -32.6875,-4.4375 -9.54371,-2.81066 -19.71033,-7.67437 -27.65625,-12.25 -1.07581,-0.6195 -26.21069,-19.77852 -31.3125,-26.09375 -4.09522,-5.06924 -12.074504,-19.21116 -15.53125,-26.375 -3.337174,-6.91604 -6.857755,-15.71513 -8.375,-22.21875 -0.982481,-4.21138 -2.039847,-13.45869 -2.03125,-13.28125 -0.06686,-1.37981 0.03125,-3.37201 0.03125,-6.15625 l 0,-412.125 z" />
    </g>
  </g>
</svg>
