<?xml version="1.0" encoding="UTF-8" standalone="no"?>
<!-- Created with Inkscape (http://www.inkscape.org/) -->

<svg
   xmlns:dc="http://purl.org/dc/elements/1.1/"
   xmlns:cc="http://creativecommons.org/ns#"
   xmlns:rdf="http://www.w3.org/1999/02/22-rdf-syntax-ns#"
   xmlns:svg="http://www.w3.org/2000/svg"
   xmlns="http://www.w3.org/2000/svg"
   xmlns:sodipodi="http://sodipodi.sourceforge.net/DTD/sodipodi-0.dtd"
   xmlns:inkscape="http://www.inkscape.org/namespaces/inkscape"
   version="1.0"
   width="460.98749"
   height="298.36249"
   id="svg2"
   xml:space="preserve"
   inkscape:version="0.48.2 r9819"
   sodipodi:docname="level_crossing.svg"><metadata
     id="metadata22"><rdf:RDF><cc:Work
         rdf:about=""><dc:format>image/svg+xml</dc:format><dc:type
           rdf:resource="http://purl.org/dc/dcmitype/StillImage" /><dc:title></dc:title><cc:license
           rdf:resource="http://creativecommons.org/licenses/publicdomain/" /></cc:Work><cc:License
         rdf:about="http://creativecommons.org/licenses/publicdomain/"><cc:permits
           rdf:resource="http://creativecommons.org/ns#Reproduction" /><cc:permits
           rdf:resource="http://creativecommons.org/ns#Distribution" /><cc:permits
           rdf:resource="http://creativecommons.org/ns#DerivativeWorks" /></cc:License></rdf:RDF></metadata><sodipodi:namedview
     pagecolor="#ffffff"
     bordercolor="#666666"
     borderopacity="1"
     objecttolerance="10"
     gridtolerance="10"
     guidetolerance="10"
     inkscape:pageopacity="0"
     inkscape:pageshadow="2"
     inkscape:window-width="715"
     inkscape:window-height="480"
     id="namedview20"
     showgrid="false"
     inkscape:zoom="0.76357821"
     inkscape:cx="230.49374"
     inkscape:cy="149.18124"
     inkscape:window-x="0"
     inkscape:window-y="0"
     inkscape:window-maximized="0"
     inkscape:current-layer="svg2" /><defs
     id="defs5"><clipPath
       id="clipPath19"><path
         d="M 0,0 L 3687.89,0 L 3687.89,2386.86 L 0,2386.86 L 0,0 z"
         id="path21" /></clipPath></defs><g
     transform="matrix(1.25, 0, 0, -1.25, 0, 298.362)"
     id="g11"><g
       transform="scale(0.1)"
       id="g13"><g
         id="g15"><g
           clip-path="url(#clipPath19)"
           id="g17"><path
             d="M 223.945,2385.39 L 1.46484,2000.91 L 1399.71,1193.07 L 1.46484,385.945 L 223.945,1.46484 L 1843.23,936.746 L 3463.95,1.46484 L 3686.43,385.945 L 2288.19,1193.07 L 3686.43,2000.91 L 3463.95,2385.39 L 1843.23,1450.11 L 223.945,2385.39"
             id="path23"
             style="fill: rgb(255, 255, 255); fill-opacity: 1; fill-rule: nonzero; stroke: none;" /><path
             d="M 223.945,2385.39 L 1.46484,2000.91 L 1399.71,1193.07 L 1.46484,385.945 L 223.945,1.46484 L 1843.23,936.746 L 3463.95,1.46484 L 3686.43,385.945 L 2288.19,1193.07 L 3686.43,2000.91 L 3463.95,2385.39 L 1843.23,1450.11 L 223.945,2385.39 z"
             id="path25"
             style="fill: none; stroke: rgb(0, 0, 0); stroke-width: 2.15; stroke-linecap: butt; stroke-linejoin: miter; stroke-miterlimit: 4; stroke-dasharray: none; stroke-opacity: 1;" /><path
             d="M 223.945,2385.39 L 1.46484,2000.91 L 1155.62,1334.2 L 1378.11,1719.39 L 223.945,2385.39"
             id="path27"
             style="fill: rgb(226, 56, 40); fill-opacity: 1; fill-rule: nonzero; stroke: none;" /><path
             d="M 223.945,2385.39 L 1.46484,2000.91 L 1155.62,1334.2 L 1378.11,1719.39 L 223.945,2385.39 z"
             id="path29"
             style="fill: none; stroke: rgb(226, 56, 40); stroke-width: 2.15; stroke-linecap: butt; stroke-linejoin: miter; stroke-miterlimit: 4; stroke-dasharray: none; stroke-opacity: 1;" /><path
             d="M 2309.79,1719.39 L 2532.27,1334.19 L 3686.43,2000.89 L 3463.95,2385.38 L 2309.79,1719.38"
             id="path31"
             style="fill: rgb(226, 56, 40); fill-opacity: 1; fill-rule: nonzero; stroke: none;" /><path
             d="M 2309.79,1719.39 L 2532.27,1334.19 L 3686.43,2000.89 L 3463.95,2385.38 L 2309.79,1719.38 L 2309.79,1719.39 z"
             id="path33"
             style="fill: none; stroke: rgb(226, 56, 40); stroke-width: 2.15; stroke-linecap: butt; stroke-linejoin: miter; stroke-miterlimit: 4; stroke-dasharray: none; stroke-opacity: 1;" /><path
             d="M 1.46484,385.945 L 223.945,1.46484 L 1378.11,667.465 L 1155.62,1052.67 L 1.46484,385.945"
             id="path35"
             style="fill: rgb(226, 56, 40); fill-opacity: 1; fill-rule: nonzero; stroke: none;" /><path
             d="M 1.46484,385.945 L 223.945,1.46484 L 1378.11,667.465 L 1155.62,1052.67 L 1.46484,385.945 z"
             id="path37"
             style="fill: none; stroke: rgb(226, 56, 40); stroke-width: 2.15; stroke-linecap: butt; stroke-linejoin: miter; stroke-miterlimit: 4; stroke-dasharray: none; stroke-opacity: 1;" /><path
             d="M 2532.27,1052.67 L 2309.79,667.465 L 3463.95,1.46484 L 3686.43,385.945 L 2532.27,1052.67"
             id="path39"
             style="fill: rgb(226, 56, 40); fill-opacity: 1; fill-rule: nonzero; stroke: none;" /><path
             d="M 2532.27,1052.67 L 2309.79,667.465 L 3463.95,1.46484 L 3686.43,385.945 L 2532.27,1052.67 z"
             id="path41"
             style="fill: none; stroke: rgb(226, 56, 40); stroke-width: 2.15; stroke-linecap: butt; stroke-linejoin: miter; stroke-miterlimit: 4; stroke-dasharray: none; stroke-opacity: 1;" /></g></g></g></g></svg>