<?xml version="1.0" encoding="UTF-8" standalone="no"?>


<svg
   xmlns:dc="http://purl.org/dc/elements/1.1/"
   xmlns:cc="http://creativecommons.org/ns#"
   xmlns:rdf="http://www.w3.org/1999/02/22-rdf-syntax-ns#"
   xmlns:svg="http://www.w3.org/2000/svg"
   xmlns="http://www.w3.org/2000/svg"
   xmlns:sodipodi="http://sodipodi.sourceforge.net/DTD/sodipodi-0.dtd"
   xmlns:inkscape="http://www.inkscape.org/namespaces/inkscape"
   width="150"
   height="150"
   version="1.1"
   id="svg2"
   inkscape:version="0.48.2 r9819"
   sodipodi:docname="motorway_junction.svg">
  <metadata
     id="metadata12">
    <rdf:RDF>
      <cc:Work
         rdf:about="">
        <dc:format>image/svg+xml</dc:format>
        <dc:type
           rdf:resource="http://purl.org/dc/dcmitype/StillImage" />
        <dc:title></dc:title>
        <cc:license
           rdf:resource="http://creativecommons.org/licenses/publicdomain/" />
      </cc:Work>
      <cc:License
         rdf:about="http://creativecommons.org/licenses/publicdomain/">
        <cc:permits
           rdf:resource="http://creativecommons.org/ns#Reproduction" />
        <cc:permits
           rdf:resource="http://creativecommons.org/ns#Distribution" />
        <cc:permits
           rdf:resource="http://creativecommons.org/ns#DerivativeWorks" />
      </cc:License>
    </rdf:RDF>
  </metadata>
  <defs
     id="defs10" />
  <sodipodi:namedview
     pagecolor="#ffffff"
     bordercolor="#666666"
     borderopacity="1"
     objecttolerance="10"
     gridtolerance="10"
     guidetolerance="10"
     inkscape:pageopacity="0"
     inkscape:pageshadow="2"
     inkscape:window-width="715"
     inkscape:window-height="480"
     id="namedview8"
     showgrid="false"
     inkscape:zoom="1.5733333"
     inkscape:cx="75"
     inkscape:cy="75"
     inkscape:window-x="0"
     inkscape:window-y="0"
     inkscape:window-maximized="0"
     inkscape:current-layer="svg2" />
  <!--
   ***************************************************************************
-->
  <path
     fill="#003399"
     fill-rule="evenodd"
     stroke="none"
     d="M0 150L0 0L150 0L150 150L0 150Z"
     id="path4" />
  <!--
      SYMBOL AUSFAHRT
-->
  <path
     fill="white"
     fill-rule="evenodd"
     stroke="none"
     d="M49.6191 121.4286L10 121.4286L39.7143 28.5714L53.0238 28.5714L49.6191 121.4286Z   M60.7619 121.4286L57.3572 28.5714L70.6666 28.5714L80.6799171880276 59.862528502719A61.9047 61.9047 0 0 1 108.770918771394 42.2719114344107L96.8176858717913 32.2342593854524A2.0929 2.0929 0 0 1 97.5343189559331 28.6807923105081A2.0929 2.0929 0 0 1 98.2017992694401 28.5715000000001L137.90699926944 28.5715000000001A2.0929 2.0929 0 0 1 139.836545698419 31.4750070612286L124.458245698419 68.0812070612286A2.0929 2.0929 0 0 1 120.86192084328 68.5363320619794A2.0929 2.0929 0 0 1 120.545285546278 67.9386550237575L114.637152160606 50.306561893218A30.9524 21.6667 -20 0 0 92.3785407903352 72.4560806284446L92.3146399209566 72.8019085282584A18.5714 43.3334 -17.74467 0 0 95.923750032167 107.499911436662L100.3809 121.4286L60.7619 121.4286Z"
     id="path6" />
  <!--
       LINKE SEITE
       RECHTE SEITE
       PFEILKOPF 2
       PFEILSCHAFT UNTERE TEIL ( BESTEHT AUS ZWEI ELLIPSEN )
-->
</svg>
