<?xml version="1.0" encoding="UTF-8" standalone="no"?>
<!-- Generator: Adobe Illustrator 12.0.1, SVG Export Plug-In . SVG Version: 6.00 Build 51448)  -->

<svg
   xmlns:dc="http://purl.org/dc/elements/1.1/"
   xmlns:cc="http://creativecommons.org/ns#"
   xmlns:rdf="http://www.w3.org/1999/02/22-rdf-syntax-ns#"
   xmlns:svg="http://www.w3.org/2000/svg"
   xmlns="http://www.w3.org/2000/svg"
   xmlns:sodipodi="http://sodipodi.sourceforge.net/DTD/sodipodi-0.dtd"
   xmlns:inkscape="http://www.inkscape.org/namespaces/inkscape"
   version="1.1"
   id="Layer_1"
   width="486.44"
   height="347.46"
   viewBox="0 0 486.44 347.46"
   overflow="visible"
   enable-background="new 0 0 486.44 347.46"
   xml:space="preserve"
   inkscape:version="0.48.2 r9819"
   sodipodi:docname="motorway_junction_sig.svg"><metadata
   id="metadata16"><rdf:RDF><cc:Work
       rdf:about=""><dc:format>image/svg+xml</dc:format><dc:type
         rdf:resource="http://purl.org/dc/dcmitype/StillImage" /><dc:title></dc:title><cc:license
         rdf:resource="http://creativecommons.org/licenses/publicdomain/" /></cc:Work><cc:License
       rdf:about="http://creativecommons.org/licenses/publicdomain/"><cc:permits
         rdf:resource="http://creativecommons.org/ns#Reproduction" /><cc:permits
         rdf:resource="http://creativecommons.org/ns#Distribution" /><cc:permits
         rdf:resource="http://creativecommons.org/ns#DerivativeWorks" /></cc:License></rdf:RDF></metadata><defs
   id="defs14" /><sodipodi:namedview
   pagecolor="#ffffff"
   bordercolor="#666666"
   borderopacity="1"
   objecttolerance="10"
   gridtolerance="10"
   guidetolerance="10"
   inkscape:pageopacity="0"
   inkscape:pageshadow="2"
   inkscape:window-width="715"
   inkscape:window-height="480"
   id="namedview12"
   showgrid="false"
   inkscape:zoom="0.67921489"
   inkscape:cx="243.22"
   inkscape:cy="173.73"
   inkscape:window-x="0"
   inkscape:window-y="0"
   inkscape:window-maximized="0"
   inkscape:current-layer="Layer_1" />
<g
   id="XMLID_4_">
	<g
   id="g4">
		<path
   d="M486.19,4.25c0,3,0,6,0,9c-14.15,31.03-30.58,72.22-45.99,108.98c-3.521,8.39-8.83,31.86-20,31    c-9.24-0.71-14.101-24.24-17-33c-4.94-14.92-7.62-25.5-12-37.99c-17.11,7.21-33.61,15.92-46.99,27    c-27.31,22.6-43.65,57.52-38,110.979c4.88,46.15,21.44,91.08,32,126.99c-90.99,0-181.98,0-272.97,0    C102.5,231.48,138.59,114.59,177.23,0.25c17,0,33.99,0,50.99,0c11.73,38.6,24.459,76.19,36,114.99    c25.44-24.63,60.54-50.85,102.98-63c-6.681-8.74-16.41-15-24.99-21.99c-7.83-6.38-20.32-12.24-20-26c1.99-0.68,2.29-3.05,4-4    c51.99,0,103.99,0,155.98,0c0.439,1.23,1.279,2.05,3,2C485.03,3.41,485.41,4.03,486.19,4.25z"
   id="path6" />
		<path
   fill="#FFFFFF"
   d="M486.19,0.25c0,1.33,0,2.67,0,4c-0.78-0.22-1.16-0.84-1-2c-1.721,0.05-2.561-0.77-3-2    C483.52,0.25,484.86,0.25,486.19,0.25z"
   id="path8" />
	</g>
	<g
   id="g10">
	</g>
</g>
</svg>