<?xml version="1.0" encoding="UTF-8" standalone="no"?>
<!-- Generator: Adobe Illustrator 12.0.1, SVG Export Plug-In  -->

<svg
   xmlns:dc="http://purl.org/dc/elements/1.1/"
   xmlns:cc="http://creativecommons.org/ns#"
   xmlns:rdf="http://www.w3.org/1999/02/22-rdf-syntax-ns#"
   xmlns:svg="http://www.w3.org/2000/svg"
   xmlns="http://www.w3.org/2000/svg"
   xmlns:sodipodi="http://sodipodi.sourceforge.net/DTD/sodipodi-0.dtd"
   xmlns:inkscape="http://www.inkscape.org/namespaces/inkscape"
   version="1.1"
   width="288"
   height="288"
   viewBox="0 0 288 288"
   enable-background="new 0 0 288 288"
   xml:space="preserve"
   id="svg2"
   inkscape:version="0.48.2 r9819"
   sodipodi:docname="NYSDOT_NYW7-9.svg"><metadata
   id="metadata34"><rdf:RDF><cc:Work
       rdf:about=""><dc:format>image/svg+xml</dc:format><dc:type
         rdf:resource="http://purl.org/dc/dcmitype/StillImage" /><dc:title></dc:title></cc:Work></rdf:RDF></metadata><sodipodi:namedview
   pagecolor="#ffffff"
   bordercolor="#666666"
   borderopacity="1"
   objecttolerance="10"
   gridtolerance="10"
   guidetolerance="10"
   inkscape:pageopacity="0"
   inkscape:pageshadow="2"
   inkscape:window-width="640"
   inkscape:window-height="480"
   id="namedview32"
   showgrid="false"
   inkscape:zoom="0.81944444"
   inkscape:cx="144"
   inkscape:cy="144"
   inkscape:window-x="0"
   inkscape:window-y="0"
   inkscape:window-maximized="0"
   inkscape:current-layer="svg2" />
<defs
   id="defs4">
</defs>
<path
   fill="#FFD520"
   d="M136.325,284.065L3.989,151.708c-4.225-4.235-4.225-11.131,0-15.353L136.325,3.99  c4.218-4.23,11.118-4.23,15.351-0.007l132.326,132.372c4.233,4.237,4.233,11.118,0.014,15.353l-132.34,132.357  C147.494,288.238,140.505,288.245,136.325,284.065"
   id="path6" />
<path
   fill="#231F20"
   d="M144.003,0c-3.125,0-6.062,1.211-8.261,3.414L3.407,135.775C1.21,137.969,0,140.904,0,144.025  c0,3.123,1.21,6.061,3.407,8.257L135.743,284.65l1.166-1.161L4.575,151.119c-3.91-3.906-3.91-10.27,0-14.184L136.908,4.573  c1.885-1.895,4.406-2.938,7.095-2.938c2.675,0,5.209,1.043,7.083,2.929l132.337,132.379c3.91,3.915,3.917,10.27,0.004,14.176  l-132.341,132.37c-3.845,3.842-10.347,3.842-14.179,0l-1.166,1.161c4.474,4.466,12.029,4.466,16.512,0l132.337-132.368  c4.546-4.545,4.546-11.953-0.013-16.502L152.255,3.401C150.05,1.205,147.123,0,144.003,0z"
   id="path8" />
<path
   fill-rule="evenodd"
   clip-rule="evenodd"
   fill="#231F20"
   d="M138.424,281.914L6.152,149.599c-3.045-3.052-3.039-8.083,0-11.139  L138.424,6.149c3.057-3.04,8.091-3.04,11.137,0l132.284,132.317c3.046,3.053,3.046,8.081,0,11.132L149.561,281.914  C146.515,284.942,141.48,284.958,138.424,281.914"
   id="path10" />
<path
   fill-rule="evenodd"
   clip-rule="evenodd"
   fill="#FFD520"
   d="M141.389,278.896L9.17,146.653c-1.467-1.419-1.467-3.835,0-5.252  L141.38,9.174c1.407-1.472,3.823-1.472,5.233,0L278.83,141.401c1.452,1.417,1.452,3.84,0,5.263L146.613,278.896  C145.203,280.354,142.799,280.354,141.389,278.896"
   id="path12" />









<g
   id="g3034"><g
     id="text3011"
     style="font-size:48px;font-style:normal;font-variant:normal;font-weight:bold;font-stretch:normal;text-align:center;line-height:125%;letter-spacing:0px;word-spacing:0px;text-anchor:middle;fill:#000000;fill-opacity:1;stroke:none;font-family:Arial;-inkscape-font-specification:Arial Bold"><path
       id="path3018"
       style=""
       d="m 90.091202,119.39659 6.75,-0.65625 c 0.406241,2.26564 1.226553,3.9297 2.460937,4.99219 1.249991,1.0625 2.929671,1.59375 5.039061,1.59375 2.23436,0 3.91404,-0.46875 5.03906,-1.40625 1.14061,-0.95312 1.71092,-2.06249 1.71094,-3.32813 -2e-5,-0.81249 -0.24221,-1.49998 -0.72656,-2.0625 -0.46877,-0.57811 -1.2969,-1.07811 -2.48438,-1.5 -0.81251,-0.28123 -2.66408,-0.78123 -5.55468,-1.5 -3.718763,-0.92186 -6.328136,-2.05467 -7.828128,-3.39843 -2.109379,-1.89061 -3.164066,-4.19529 -3.164063,-6.91407 -3e-6,-1.74997 0.492184,-3.38278 1.476563,-4.89843 0.999994,-1.531222 2.42968,-2.695283 4.289062,-3.492191 1.87499,-0.796841 4.132796,-1.195278 6.773436,-1.195313 4.31248,3.5e-5 7.55467,0.945347 9.72656,2.835938 2.18748,1.890656 3.33591,4.414086 3.44532,7.570316 l -6.9375,0.30468 c -0.2969,-1.7656 -0.93752,-3.03122 -1.92188,-3.79687 -0.96877,-0.78122 -2.4297,-1.17185 -4.38281,-1.17188 -2.01564,3e-5 -3.59376,0.41409 -4.734376,1.24219 -0.734385,0.53128 -1.101572,1.24222 -1.101562,2.13281 -10e-6,0.81253 0.34374,1.50784 1.03125,2.08594 0.874988,0.7344 2.999988,1.50002 6.374998,2.29688 3.37498,0.79689 5.86717,1.62502 7.47656,2.48437 1.62498,0.84377 2.8906,2.00783 3.79688,3.49219 0.92185,1.46876 1.38278,3.28907 1.38281,5.46094 -3e-5,1.96875 -0.5469,3.8125 -1.64062,5.53125 -1.09378,1.71875 -2.64065,3 -4.64063,3.84375 -2.00002,0.82812 -4.4922,1.24218 -7.47656,1.24218 -4.343762,0 -7.679696,-1 -10.007813,-3 -2.328129,-2.01562 -3.718752,-4.9453 -4.171875,-8.78906" /><path
       id="path3020"
       style=""
       d="m 123.91151,130.57628 0,-34.359376 25.47657,0 0,5.812496 -18.53907,0 0,7.61719 17.25,0 0,5.78906 -17.25,0 0,9.35157 19.19532,0 0,5.78906 -26.13282,0" /><path
       id="path3022"
       style=""
       d="m 155.88026,130.57628 0,-34.359376 10.38282,0 6.23437,23.437496 6.16406,-23.437496 10.40625,0 0,34.359376 -6.44531,0 0,-27.04688 -6.82031,27.04688 -6.67969,0 -6.79687,-27.04688 0,27.04688 -6.44532,0" /><path
       id="path3024"
       style=""
       d="m 67.356827,179.39659 6.75,-0.65625 c 0.406241,2.26564 1.226553,3.9297 2.460937,4.99219 1.249988,1.0625 2.929674,1.59375 5.039063,1.59375 2.234357,0 3.914042,-0.46875 5.039062,-1.40625 1.140603,-0.95312 1.710915,-2.06249 1.710938,-3.32813 -2.3e-5,-0.81249 -0.24221,-1.49998 -0.726563,-2.0625 -0.468771,-0.57811 -1.296895,-1.07811 -2.484375,-1.5 -0.812518,-0.28123 -2.664079,-0.78123 -5.554687,-1.5 -3.71876,-0.92186 -6.328133,-2.05467 -7.828125,-3.39843 -2.109379,-1.89061 -3.164066,-4.19529 -3.164063,-6.91407 -3e-6,-1.74997 0.492184,-3.38278 1.476563,-4.89843 0.999994,-1.53122 2.42968,-2.69528 4.289062,-3.49219 1.87499,-0.79684 4.1328,-1.19528 6.773438,-1.19531 4.31248,3e-5 7.554664,0.94534 9.726562,2.83593 2.187473,1.89066 3.335909,4.41409 3.445313,7.57032 l -6.9375,0.30468 c -0.296897,-1.7656 -0.937521,-3.03122 -1.921875,-3.79687 -0.968769,-0.78122 -2.429705,-1.17185 -4.382813,-1.17188 -2.015638,3e-5 -3.593762,0.41409 -4.734375,1.24219 -0.734385,0.53128 -1.101572,1.24222 -1.101562,2.13281 -10e-6,0.81253 0.34374,1.50784 1.03125,2.08594 0.874988,0.7344 2.999986,1.50002 6.375,2.29688 3.374979,0.79689 5.867164,1.62502 7.476562,2.48437 1.624974,0.84377 2.890598,2.00783 3.796875,3.49219 0.921846,1.46876 1.382783,3.28907 1.382813,5.46094 -3e-5,1.96875 -0.546904,3.8125 -1.640625,5.53125 -1.093777,1.71875 -2.640651,3 -4.640625,3.84375 -2.000022,0.82812 -4.492207,1.24218 -7.476563,1.24218 -4.343761,0 -7.679695,-1 -10.007812,-3 -2.328129,-2.01562 -3.718752,-4.9453 -4.171875,-8.78906" /><path
       id="path3026"
       style=""
       d="m 132.16151,190.57628 -7.54687,0 -3,-7.80469 -13.73438,0 -2.83593,7.80469 -7.359378,0 13.382808,-34.35938 7.33594,0 13.75781,34.35938 m -12.77343,-13.59375 -4.73438,-12.75 -4.64062,12.75 9.375,0" /><path
       id="path3028"
       style=""
       d="m 135.74745,190.57628 0,-34.35938 6.9375,0 0,34.35938 -6.9375,0 m -0.79687,-36.32813 3.23437,-7.00781 7.38281,0 -6.44531,7.00781 -4.17187,0" /><path
       id="path3030"
       style=""
       d="m 149.24745,156.2169 12.67969,0 c 2.85936,4e-5 5.03904,0.21879 6.53906,0.65625 2.0156,0.59379 3.74216,1.64847 5.17969,3.16407 1.43747,1.51565 2.53122,3.37502 3.28125,5.57812 0.74997,2.18752 1.12497,4.89065 1.125,8.10938 -3e-5,2.82814 -0.3516,5.26563 -1.05469,7.3125 -0.8594,2.5 -2.08596,4.52344 -3.67969,6.07031 -1.20315,1.17188 -2.82815,2.08594 -4.875,2.74219 -1.53127,0.48437 -3.57814,0.72656 -6.14062,0.72656 l -13.05469,0 0,-34.35938 m 6.9375,5.8125 0,22.75782 5.17969,0 c 1.93748,0 3.33592,-0.10937 4.19531,-0.32813 1.12498,-0.28124 2.05467,-0.7578 2.78906,-1.42969 0.74998,-0.67186 1.35936,-1.77342 1.82813,-3.30468 0.46872,-1.54687 0.7031,-3.64843 0.70312,-6.30469 -2e-5,-2.65623 -0.2344,-4.69529 -0.70312,-6.11719 -0.46877,-1.42185 -1.12502,-2.53122 -1.96875,-3.32812 -0.84377,-0.79685 -1.91408,-1.33591 -3.21094,-1.61719 -0.96877,-0.21872 -2.8672,-0.3281 -5.69531,-0.32813 l -3.11719,0" /><path
       id="path3032"
       style=""
       d="m 214.94276,190.57628 -7.54687,0 -3,-7.80469 -13.73438,0 -2.83593,7.80469 -7.35938,0 13.38281,-34.35938 7.33594,0 13.75781,34.35938 m -12.77343,-13.59375 -4.73438,-12.75 -4.64062,12.75 9.375,0" /></g></g></svg>