<?xml version="1.0" encoding="UTF-8" standalone="no"?>
<!-- Created with Inkscape (http://www.inkscape.org/) -->
<svg xmlns:dc="http://purl.org/dc/elements/1.1/" xmlns:cc="http://creativecommons.org/ns#" xmlns:rdf="http://www.w3.org/1999/02/22-rdf-syntax-ns#" xmlns:svg="http://www.w3.org/2000/svg" xmlns="http://www.w3.org/2000/svg" xmlns:sodipodi="http://sodipodi.sourceforge.net/DTD/sodipodi-0.dtd" xmlns:inkscape="http://www.inkscape.org/namespaces/inkscape" width="743.47229" height="743.47229" id="svg2" sodipodi:version="0.32" inkscape:version="0.46" sodipodi:docname="D5.svg" inkscape:output_extension="org.inkscape.output.svg.inkscape" version="1.0">
  <defs id="defs4">
    <inkscape:perspective sodipodi:type="inkscape:persp3d" inkscape:vp_x="0 : 526.18109 : 1" inkscape:vp_y="0 : 1000 : 0" inkscape:vp_z="744.09448 : 526.18109 : 1" inkscape:persp3d-origin="372.04724 : 350.78739 : 1" id="perspective10"/>
  </defs>
  <sodipodi:namedview id="base" pagecolor="#ffffff" bordercolor="#666666" borderopacity="1.0" gridtolerance="10000" guidetolerance="10" objecttolerance="10" inkscape:pageopacity="0.0" inkscape:pageshadow="2" inkscape:zoom="0.49497475" inkscape:cx="405.78413" inkscape:cy="252.81697" inkscape:document-units="px" inkscape:current-layer="layer1" showgrid="false" inkscape:window-width="1126" inkscape:window-height="855" inkscape:window-x="22" inkscape:window-y="30"/>
  <metadata id="metadata7">
    <rdf:RDF>
      <cc:Work rdf:about="">
        <dc:format>image/svg+xml</dc:format>
        <dc:type rdf:resource="http://purl.org/dc/dcmitype/StillImage"/>
      </cc:Work>
    </rdf:RDF>
  </metadata>
  <g inkscape:label="Layer 1" inkscape:groupmode="layer" id="layer1" transform="translate(0, -308.89)">
    <path sodipodi:type="arc" style="fill: rgb(38, 101, 171); fill-opacity: 1; fill-rule: evenodd; stroke: none; stroke-width: 1px; stroke-linecap: butt; stroke-linejoin: miter; stroke-opacity: 1;" id="path4770" sodipodi:cx="371.73615" sodipodi:cy="680.62604" sodipodi:rx="371.73615" sodipodi:ry="371.73615" d="M 743.47229,680.62604 A 371.73615,371.73615 0 1 1 0,680.62604 A 371.73615,371.73615 0 1 1 743.47229,680.62604 z" transform="matrix(-1, 0, 0, 1, 743.472, 0)"/>
    <path sodipodi:type="arc" style="fill: rgb(255, 255, 255); fill-opacity: 1; fill-rule: evenodd; stroke: none; stroke-width: 1px; stroke-linecap: butt; stroke-linejoin: miter; stroke-opacity: 1;" id="path10609" sodipodi:cx="371.73615" sodipodi:cy="680.62604" sodipodi:rx="371.73615" sodipodi:ry="371.73615" d="M 743.47229,680.62604 A 371.73615,371.73615 0 1 1 0,680.62604 A 371.73615,371.73615 0 1 1 743.47229,680.62604 z" transform="matrix(0.95, 0, 0, 0.95, 18.5868, 34.0313)"/>
    <path sodipodi:type="arc" style="fill: rgb(38, 101, 171); fill-opacity: 1; fill-rule: evenodd; stroke: none; stroke-width: 1px; stroke-linecap: butt; stroke-linejoin: miter; stroke-opacity: 1;" id="path10611" sodipodi:cx="371.73615" sodipodi:cy="680.62604" sodipodi:rx="371.73615" sodipodi:ry="371.73615" d="M 743.47229,680.62604 A 371.73615,371.73615 0 1 1 0,680.62604 A 371.73615,371.73615 0 1 1 743.47229,680.62604 z" transform="matrix(0.9025, 0, 0, 0.9025, 36.2443, 66.361)"/>
    <g id="g4760" transform="matrix(-0.34202, 0.939693, -0.939693, -0.34202, 1138.46, 564.096)">
      <path sodipodi:nodetypes="cs" id="path4757" d="M -3.2751579e-15,680.62604 C -3.2751579e-15,475.42769 166.53779,308.88989 371.73615,308.88989" style="fill: none; fill-opacity: 1; fill-rule: evenodd; stroke: rgb(255, 255, 255); stroke-width: 65.6612; stroke-linecap: butt; stroke-linejoin: miter; stroke-miterlimit: 4; stroke-opacity: 1;" transform="matrix(0.609187, 0, 0, 0.609187, 145.279, 265.997)"/>
      <path sodipodi:nodetypes="cccc" id="rect11131" d="M 145.27869,732.43081 L 218.60989,641.89845 L 71.947468,641.89845 L 145.27869,732.43081 z" style="fill: rgb(255, 255, 255); fill-opacity: 1; fill-rule: evenodd; stroke: none; stroke-width: 9.694; stroke-linecap: square; stroke-linejoin: round; marker: none; stroke-miterlimit: 4; stroke-dashoffset: 0pt; stroke-opacity: 1; visibility: visible; display: inline; overflow: visible;"/>
    </g>
    <g id="g4772" transform="matrix(-0.642788, -0.766044, 0.766044, -0.642788, 89.2937, 1402.89)">
      <path sodipodi:nodetypes="cs" id="path4774" d="M -3.2751579e-15,680.62604 C -3.2751579e-15,475.42769 166.53779,308.88989 371.73615,308.88989" style="fill: none; fill-opacity: 1; fill-rule: evenodd; stroke: rgb(255, 255, 255); stroke-width: 65.6612; stroke-linecap: butt; stroke-linejoin: miter; stroke-miterlimit: 4; stroke-opacity: 1;" transform="matrix(0.609187, 0, 0, 0.609187, 145.279, 265.997)"/>
      <path sodipodi:nodetypes="cccc" id="path4776" d="M 145.27869,732.43081 L 218.60989,641.89845 L 71.947468,641.89845 L 145.27869,732.43081 z" style="fill: rgb(255, 255, 255); fill-opacity: 1; fill-rule: evenodd; stroke: none; stroke-width: 9.694; stroke-linecap: square; stroke-linejoin: round; marker: none; stroke-miterlimit: 4; stroke-dashoffset: 0pt; stroke-opacity: 1; visibility: visible; display: inline; overflow: visible;"/>
    </g>
    <g id="g4778" transform="matrix(0.984808, -0.173648, 0.173648, 0.984808, -112.542, 74.8915)">
      <path sodipodi:nodetypes="cs" id="path4780" d="M -3.2751579e-15,680.62604 C -3.2751579e-15,475.42769 166.53779,308.88989 371.73615,308.88989" style="fill: none; fill-opacity: 1; fill-rule: evenodd; stroke: rgb(255, 255, 255); stroke-width: 65.6612; stroke-linecap: butt; stroke-linejoin: miter; stroke-miterlimit: 4; stroke-opacity: 1;" transform="matrix(0.609187, 0, 0, 0.609187, 145.279, 265.997)"/>
      <path sodipodi:nodetypes="cccc" id="path4782" d="M 145.27869,732.43081 L 218.60989,641.89845 L 71.947468,641.89845 L 145.27869,732.43081 z" style="fill: rgb(255, 255, 255); fill-opacity: 1; fill-rule: evenodd; stroke: none; stroke-width: 9.694; stroke-linecap: square; stroke-linejoin: round; marker: none; stroke-miterlimit: 4; stroke-dashoffset: 0pt; stroke-opacity: 1; visibility: visible; display: inline; overflow: visible;"/>
    </g>
  </g>
</svg>