<?xml version="1.0" encoding="UTF-8" standalone="no"?>
<!-- Generator: Adobe Illustrator 12.0.1, SVG Export Plug-In  -->

<svg
   xmlns:dc="http://purl.org/dc/elements/1.1/"
   xmlns:cc="http://creativecommons.org/ns#"
   xmlns:rdf="http://www.w3.org/1999/02/22-rdf-syntax-ns#"
   xmlns:svg="http://www.w3.org/2000/svg"
   xmlns="http://www.w3.org/2000/svg"
   xmlns:sodipodi="http://sodipodi.sourceforge.net/DTD/sodipodi-0.dtd"
   xmlns:inkscape="http://www.inkscape.org/namespaces/inkscape"
   version="1.1"
   width="288"
   height="288"
   viewBox="0 0 288 288"
   enable-background="new 0 0 288 288"
   xml:space="preserve"
   id="svg2"
   inkscape:version="0.48.5 r10040"
   sodipodi:docname="no_exit.svg"><metadata
     id="metadata34"><rdf:RDF><cc:Work
         rdf:about=""><dc:format>image/svg+xml</dc:format><dc:type
           rdf:resource="http://purl.org/dc/dcmitype/StillImage" /><dc:title></dc:title><cc:license
           rdf:resource="http://creativecommons.org/licenses/publicdomain/" /></cc:Work><cc:License
         rdf:about="http://creativecommons.org/licenses/publicdomain/"><cc:permits
           rdf:resource="http://creativecommons.org/ns#Reproduction" /><cc:permits
           rdf:resource="http://creativecommons.org/ns#Distribution" /><cc:permits
           rdf:resource="http://creativecommons.org/ns#DerivativeWorks" /></cc:License></rdf:RDF></metadata><sodipodi:namedview
     pagecolor="#ffffff"
     bordercolor="#666666"
     borderopacity="1"
     objecttolerance="10"
     gridtolerance="10"
     guidetolerance="10"
     inkscape:pageopacity="0"
     inkscape:pageshadow="2"
     inkscape:window-width="1012"
     inkscape:window-height="685"
     id="namedview32"
     showgrid="false"
     inkscape:zoom="0.57170172"
     inkscape:cx="73.911847"
     inkscape:cy="151.32203"
     inkscape:window-x="375"
     inkscape:window-y="13"
     inkscape:window-maximized="0"
     inkscape:current-layer="svg2" /><defs
     id="defs4" /><path
     fill="#FFD520"
     d="M136.325,284.065L3.989,151.708c-4.225-4.235-4.225-11.131,0-15.353L136.325,3.99  c4.218-4.23,11.118-4.23,15.351-0.007l132.326,132.372c4.233,4.237,4.233,11.118,0.014,15.353l-132.34,132.357  C147.494,288.238,140.505,288.245,136.325,284.065"
     id="path6" /><path
     fill="#231F20"
     d="M144.003,0c-3.125,0-6.062,1.211-8.261,3.414L3.407,135.775C1.21,137.969,0,140.904,0,144.025  c0,3.123,1.21,6.061,3.407,8.257L135.743,284.65l1.166-1.161L4.575,151.119c-3.91-3.906-3.91-10.27,0-14.184L136.908,4.573  c1.885-1.895,4.406-2.938,7.095-2.938c2.675,0,5.209,1.043,7.083,2.929l132.337,132.379c3.91,3.915,3.917,10.27,0.004,14.176  l-132.341,132.37c-3.845,3.842-10.347,3.842-14.179,0l-1.166,1.161c4.474,4.466,12.029,4.466,16.512,0l132.337-132.368  c4.546-4.545,4.546-11.953-0.013-16.502L152.255,3.401C150.05,1.205,147.123,0,144.003,0z"
     id="path8" /><path
     fill-rule="evenodd"
     clip-rule="evenodd"
     fill="#231F20"
     d="M138.424,281.914L6.152,149.599c-3.045-3.052-3.039-8.083,0-11.139  L138.424,6.149c3.057-3.04,8.091-3.04,11.137,0l132.284,132.317c3.046,3.053,3.046,8.081,0,11.132L149.561,281.914  C146.515,284.942,141.48,284.958,138.424,281.914"
     id="path10" /><path
     clip-rule="evenodd"
     d="M 141.389,9.1635 9.17,141.4065 c -1.467,1.419 -1.467,3.835 0,5.252 l 132.21,132.227 c 1.407,1.472 3.823,1.472 5.233,0 L 278.83,146.6585 c 1.452,-1.417 1.452,-3.84 0,-5.263 L 146.613,9.1635 c -1.41,-1.458 -3.814,-1.458 -5.224,0"
     id="path12"
     inkscape:connector-curvature="0"
     style="fill:#ffd520;fill-rule:evenodd" /><path
     style="fill:#000000"
     d="m 187.3063,207.13413 c -2.51424,-2.99261 -4.61355,-5.4411 -4.66513,-5.4411 -0.0516,0 -0.91869,0.4756 -1.92693,1.05688 -2.4555,1.41571 -6.79341,3.31447 -10.21886,4.47294 -23.79418,8.04708 -49.87652,1.45308 -66.98905,-16.9358 -1.02689,-1.10347 -1.86706,-2.10397 -1.86706,-2.22332 0,-0.11936 1.72353,-1.67251 3.83008,-3.45146 l 3.83008,-3.23444 1.49066,1.6874 c 5.12686,5.8035 13.45873,11.39078 21.04524,14.11277 6.35902,2.28157 10.9998,3.06363 18.21865,3.0702 7.22636,0.007 12.19693,-0.84043 18.28429,-3.11568 2.41824,-0.90386 6.86898,-2.98728 7.30935,-3.42156 0.1305,-0.1287 -1.44457,-2.2139 -3.69624,-4.89337 -2.15801,-2.568 -3.85001,-4.74274 -3.76,-4.83275 0.1914,-0.19141 29.19018,-0.71898 29.37474,-0.53441 0.13926,0.13925 -5.17845,27.88032 -5.49023,28.64106 -0.1637,0.39945 -0.99477,-0.46434 -4.76959,-4.95736 z M 84.5984,161.48239 C 72.550267,151.02288 72.465801,150.94788 72.592171,150.82151 c 0.05447,-0.0545 3.222678,-0.65387 7.04046,-1.33199 l 6.941421,-1.23295 0.173849,-4.1204 c 0.645229,-15.29257 6.970362,-29.83589 17.849999,-41.04231 8.99045,-9.260506 19.53721,-15.12563 32.27607,-17.948943 1.03687,-0.2298 1.95125,-0.351779 2.03197,-0.271065 0.1908,0.1908 1.89851,9.753217 1.76553,9.886195 -0.0557,0.0557 -1.09931,0.319377 -2.31912,0.58594 -20.28665,4.433202 -36.27787,20.858763 -40.448577,41.547213 -0.831762,4.12589 -1.211837,9.43193 -0.675613,9.43193 0.339339,0 7.61768,-1.23866 10.5851,-1.80142 0.75768,-0.14369 1.41345,-0.22541 1.45726,-0.18159 0.12317,0.12316 -14.175175,25.91756 -14.371117,25.92568 -0.09514,0.004 -4.730589,-3.94949 -10.301003,-8.78541 z m 120.30843,5.69414 c -2.1954,-0.82472 -4.19214,-1.55443 -4.4372,-1.62157 -0.41821,-0.11459 -0.41496,-0.21098 0.053,-1.57122 0.80344,-2.33522 1.78883,-6.61178 2.21252,-9.60222 0.46822,-3.30478 0.52919,-10.33183 0.11794,-13.59318 -1.91654,-15.19848 -10.2621,-28.90159 -22.82124,-37.47168 -1.24396,-0.84885 -2.39561,-1.54337 -2.55923,-1.54337 -0.16361,0 -1.20274,2.52053 -2.30917,5.60117 -1.10643,3.08065 -2.09003,5.6916 -2.18578,5.80212 -0.15032,0.1735 -15.1277,-24.442981 -15.273,-25.102332 -0.0606,-0.274907 1.69464,-0.911768 16.88092,-6.125075 5.91472,-2.030468 10.82044,-3.625361 10.9016,-3.544207 0.0811,0.08115 -0.91123,3.055399 -2.2053,6.609433 -1.29407,3.554033 -2.29544,6.554788 -2.22526,6.668344 0.0702,0.113555 1.1254,0.816198 2.34493,1.561429 7.34636,4.489234 14.87321,11.837458 19.64042,19.174318 5.07114,7.80461 8.15634,15.87433 9.76328,25.53708 0.65743,3.95318 0.65841,15.02764 0.002,18.79933 -1.05957,6.08514 -2.7722,11.99008 -3.46531,11.94802 -0.24364,-0.0148 -2.2393,-0.70167 -4.4347,-1.52639 z"
     id="path3785"
     inkscape:connector-curvature="0" /></svg>