<?xml version="1.0" encoding="UTF-8" standalone="no"?>
<!-- Created with Inkscape (http://www.inkscape.org/) -->
<svg xmlns:svg="http://www.w3.org/2000/svg" xmlns="http://www.w3.org/2000/svg" version="1.0" width="86" height="86" id="svg10736">
  <defs id="defs10738"/>
  <rect width="58.403519" height="58.403519" ry="3.6727073" x="-29.201759" y="31.609423" transform="matrix(0.707107, -0.707107, 0.707107, 0.707107, 0, 0)" style="fill: rgb(245, 174, 20); fill-opacity: 1; stroke: rgb(0, 0, 0); stroke-width: 3; stroke-linecap: square; stroke-linejoin: miter; stroke-miterlimit: 4; stroke-dasharray: none; stroke-dashoffset: 0pt; stroke-opacity: 1;" id="rect3935"/>
  <rect width="19.161804" height="49.957561" ry="7.9840851" x="33.419098" y="17.336868" style="fill: rgb(0, 0, 0); fill-opacity: 1; stroke: none; stroke-width: 1.5; stroke-linecap: round; stroke-linejoin: miter; stroke-miterlimit: 4; stroke-dasharray: none; stroke-dashoffset: 0pt; stroke-opacity: 1;" id="rect2310"/>
  <g transform="translate(-0.114059)" id="g2318">
    <path d="M 49.045091 26.917772 A 6.6153846 6.6153846 0 1 1  35.814322,26.917772 A 6.6153846 6.6153846 0 1 1  49.045091 26.917772 z" transform="matrix(1.03448, 0, 0, 1.03448, -0.778743, 14.3556)" style="fill: rgb(245, 174, 20); fill-opacity: 1; stroke: none; stroke-width: 1.5; stroke-linecap: round; stroke-linejoin: miter; stroke-miterlimit: 4; stroke-dasharray: none; stroke-dashoffset: 0pt; stroke-opacity: 1;" id="path2314"/>
    <path d="M 49.045091 26.917772 A 6.6153846 6.6153846 0 1 1  35.814322,26.917772 A 6.6153846 6.6153846 0 1 1  49.045091 26.917772 z" transform="matrix(1.03448, 0, 0, 1.03448, -0.778743, 29.4113)" style="fill: rgb(0, 192, 0); fill-opacity: 1; stroke: none; stroke-width: 1.5; stroke-linecap: round; stroke-linejoin: miter; stroke-miterlimit: 4; stroke-dasharray: none; stroke-dashoffset: 0pt; stroke-opacity: 1;" id="path2316"/>
    <path d="M 49.045091 26.917772 A 6.6153846 6.6153846 0 1 1  35.814322,26.917772 A 6.6153846 6.6153846 0 1 1  49.045091 26.917772 z" transform="matrix(1.03448, 0, 0, 1.03448, -0.778743, -0.700082)" style="fill: rgb(254, 0, 0); fill-opacity: 1; stroke: none; stroke-width: 1.5; stroke-linecap: round; stroke-linejoin: miter; stroke-miterlimit: 4; stroke-dasharray: none; stroke-dashoffset: 0pt; stroke-opacity: 1;" id="path2312"/>
  </g>
</svg>