<?xml version="1.0" encoding="UTF-8" standalone="no"?>
<svg
   xmlns:dc="http://purl.org/dc/elements/1.1/"
   xmlns:cc="http://creativecommons.org/ns#"
   xmlns:rdf="http://www.w3.org/1999/02/22-rdf-syntax-ns#"
   xmlns:svg="http://www.w3.org/2000/svg"
   xmlns="http://www.w3.org/2000/svg"
   xmlns:sodipodi="http://sodipodi.sourceforge.net/DTD/sodipodi-0.dtd"
   xmlns:inkscape="http://www.inkscape.org/namespaces/inkscape"
   version="1.0"
   id="Layer_1"
   width="12"
   height="12"
   viewBox="0 0 11.469 12.5"
   overflow="visible"
   xml:space="preserve"
   sodipodi:version="0.32"
   inkscape:version="0.48.5 r10040"
   sodipodi:docname="ale.svg"><metadata
     id="metadata1520"><rdf:RDF><cc:Work
         rdf:about=""><dc:format>image/svg+xml</dc:format><dc:type
           rdf:resource="http://purl.org/dc/dcmitype/StillImage" /><dc:title></dc:title><cc:license
           rdf:resource="http://creativecommons.org/licenses/publicdomain/" /></cc:Work><cc:License
         rdf:about="http://creativecommons.org/licenses/publicdomain/"><cc:permits
           rdf:resource="http://creativecommons.org/ns#Reproduction" /><cc:permits
           rdf:resource="http://creativecommons.org/ns#Distribution" /><cc:permits
           rdf:resource="http://creativecommons.org/ns#DerivativeWorks" /></cc:License></rdf:RDF></metadata><defs
     id="defs1518" /><sodipodi:namedview
     inkscape:window-height="830"
     inkscape:window-width="1440"
     inkscape:pageshadow="2"
     inkscape:pageopacity="0.0"
     borderopacity="1.0"
     bordercolor="#666666"
     pagecolor="#ffffff"
     id="base"
     inkscape:zoom="37.368521"
     inkscape:cx="3.3658289"
     inkscape:cy="6.2918849"
     inkscape:window-x="0"
     inkscape:window-y="0"
     inkscape:current-layer="Layer_1"
     showgrid="false"
     inkscape:window-maximized="1" /><g
     id="XMLID_4_"><g
       id="g1479"><path
         d="M 5.15625 0.28125 C 4.8631001 0.29681143 4.63814 0.51493258 4.59375 0.78125 L 4.5625 0.78125 L 4.5625 1.3125 C 2.9004798 1.3395749 3.5769112 3.5831378 3.40625 4.3125 C 3.21521 5.12466 -1.4608279 11.723755 1.96875 11.6875 C 5.4753211 11.650431 4.09375 6.9470801 4.09375 5.125 C 4.09375 4.6681434 3.9101148 3.7015355 4.5625 3.8125 L 4.5625 11.09375 C 4.5606954 11.100916 4.5625 11.117659 4.5625 11.125 C 4.5625 11.247792 4.8308694 11.336875 5.15625 11.34375 L 5.15625 11.8125 L 10.59375 11.8125 L 10.59375 11.34375 C 10.616981 11.344734 10.632312 11.34375 10.65625 11.34375 C 10.998225 11.34375 11.25 11.252246 11.25 11.125 C 11.25 11.115456 11.253029 11.102989 11.25 11.09375 L 11.25 0.875 C 11.25 0.5552934 10.998225 0.28125 10.65625 0.28125 C 10.635205 0.28125 10.614255 0.27933332 10.59375 0.28125 L 5.1875 0.28125 L 5.15625 0.28125 z M 6.0625 1.4375 L 9.78125 1.4375 C 10.05483 1.4375 10.28125 1.5898502 10.28125 1.78125 L 10.28125 4.5625 C 10.28125 4.75443 10.05483 4.90625 9.78125 4.90625 L 6.0625 4.90625 C 5.7889203 4.90625 5.5625 4.75443 5.5625 4.5625 L 5.5625 1.78125 C 5.5625 1.5898502 5.7889203 1.4375 6.0625 1.4375 z M 3.59375 4.875 C 3.8517249 6.3476257 4.9968179 11.312227 2 11.34375 C -0.60146664 11.370777 2.8659446 6.1838168 3.59375 4.875 z "
         transform="matrix(1.0416667,0,0,1.0416667,-0.5155,0)"
         id="path1481" /></g><g
       id="g1483" /></g><g
     id="g1491"
     transform="translate(-2.523708e-6,0.04235957)" /><g
     id="g1503"
     transform="translate(-2.523708e-6,0.04235957)" /><g
     transform="matrix(0.01020139,0,0,0.01020139,5.3878477,1.7334874)"
     id="g3007"><polygon
       transform="matrix(3.54331,0,0,3.54331,-178.12538,-905.85429)"
       points="141.356,289.073 146.787,260.793 122.554,289.073 "
       id="polygon3013"
       style="fill:#db0603;fill-rule:evenodd" /><polygon
       transform="matrix(3.54331,0,0,3.54331,-178.12538,-905.85429)"
       points="134.253,327.636 139.267,300.642 112.527,300.642 89.5466,327.636 "
       id="polygon3015"
       style="fill:#db0603;fill-rule:evenodd" /><path
       inkscape:connector-curvature="0"
       d="M 0.00177433,145.75051 C 0.00177433,65.284776 102.15576,-1.88e-6 229.47397,-1.88e-6 c 13.32356,0 25.16778,0 38.49098,1.51653668 L 38.494523,227.73243 l 122.878447,0 -22.20699,27.33132 158.40935,0 4.44083,-27.33132 118.43655,0 -5.92087,-168.52195 c 28.12786,24.292579 44.41433,54.65627 44.41433,86.54003 0,81.98192 -102.15257,147.26918 -229.4722,147.26918 -127.31821,0 -229.47219567,-65.28726 -229.47219567,-147.26918 z"
       id="path3017"
       style="fill:#191597;fill-rule:evenodd" /></g></svg>