<?xml version="1.0" encoding="UTF-8" standalone="no"?>
<svg
   xmlns:dc="http://purl.org/dc/elements/1.1/"
   xmlns:cc="http://creativecommons.org/ns#"
   xmlns:rdf="http://www.w3.org/1999/02/22-rdf-syntax-ns#"
   xmlns:svg="http://www.w3.org/2000/svg"
   xmlns="http://www.w3.org/2000/svg"
   xmlns:xlink="http://www.w3.org/1999/xlink"
   xmlns:sodipodi="http://sodipodi.sourceforge.net/DTD/sodipodi-0.dtd"
   xmlns:inkscape="http://www.inkscape.org/namespaces/inkscape"
   version="1.0"
   id="Layer_1"
   width="12"
   height="12"
   viewBox="0 0 11.469 12.5"
   overflow="visible"
   xml:space="preserve"
   sodipodi:version="0.32"
   inkscape:version="0.48.5 r10040"
   sodipodi:docname="ipiranga.svg"><metadata
     id="metadata1520"><rdf:RDF><cc:Work
         rdf:about=""><dc:format>image/svg+xml</dc:format><dc:type
           rdf:resource="http://purl.org/dc/dcmitype/StillImage" /><dc:title></dc:title><cc:license
           rdf:resource="http://creativecommons.org/licenses/publicdomain/" /></cc:Work><cc:License
         rdf:about="http://creativecommons.org/licenses/publicdomain/"><cc:permits
           rdf:resource="http://creativecommons.org/ns#Reproduction" /><cc:permits
           rdf:resource="http://creativecommons.org/ns#Distribution" /><cc:permits
           rdf:resource="http://creativecommons.org/ns#DerivativeWorks" /></cc:License></rdf:RDF></metadata><defs
     id="defs1518" /><sodipodi:namedview
     inkscape:window-height="830"
     inkscape:window-width="1440"
     inkscape:pageshadow="2"
     inkscape:pageopacity="0.0"
     borderopacity="1.0"
     bordercolor="#666666"
     pagecolor="#ffffff"
     id="base"
     inkscape:zoom="53.242678"
     inkscape:cx="-0.6277995"
     inkscape:cy="5.9535507"
     inkscape:window-x="0"
     inkscape:window-y="0"
     inkscape:current-layer="Layer_1"
     showgrid="false"
     inkscape:window-maximized="1" /><path
     style="fill:#ffd51b;stroke:#000000;stroke-width:1px;stroke-linecap:butt;stroke-linejoin:miter;stroke-opacity:1;fill-opacity:1"
     d="m 5.1462476,1.0689194 5.4843224,0.018782 0.09391,4.1883694 -5.4467579,0 z"
     id="path3002"
     inkscape:connector-curvature="0"
     transform="matrix(1.0416667,0,0,1.0416667,-0.5155,0)" /><g
     id="XMLID_4_"><g
       id="g1479"><path
         d="M 5.15625 0.28125 C 4.8631001 0.29681143 4.63814 0.51493258 4.59375 0.78125 L 4.5625 0.78125 L 4.5625 1.3125 C 2.9004798 1.3395749 3.5769112 3.5831378 3.40625 4.3125 C 3.21521 5.12466 -1.4608279 11.723755 1.96875 11.6875 C 5.4753211 11.650431 4.09375 6.9470801 4.09375 5.125 C 4.09375 4.6681434 3.9101148 3.7015355 4.5625 3.8125 L 4.5625 11.09375 C 4.5606954 11.100916 4.5625 11.117659 4.5625 11.125 C 4.5625 11.247792 4.8308694 11.336875 5.15625 11.34375 L 5.15625 11.8125 L 10.59375 11.8125 L 10.59375 11.34375 C 10.616981 11.344734 10.632312 11.34375 10.65625 11.34375 C 10.998225 11.34375 11.25 11.252246 11.25 11.125 C 11.25 11.115456 11.253029 11.102989 11.25 11.09375 L 11.25 0.875 C 11.25 0.5552934 10.998225 0.28125 10.65625 0.28125 C 10.635205 0.28125 10.614255 0.27933332 10.59375 0.28125 L 5.1875 0.28125 L 5.15625 0.28125 z M 6.0625 1.4375 L 9.78125 1.4375 C 10.05483 1.4375 10.28125 1.5898502 10.28125 1.78125 L 10.28125 4.5625 C 10.28125 4.75443 10.05483 4.90625 9.78125 4.90625 L 6.0625 4.90625 C 5.7889203 4.90625 5.5625 4.75443 5.5625 4.5625 L 5.5625 1.78125 C 5.5625 1.5898502 5.7889203 1.4375 6.0625 1.4375 z M 3.59375 4.875 C 3.8517249 6.3476257 4.9968179 11.312227 2 11.34375 C -0.60146664 11.370777 2.8659446 6.1838168 3.59375 4.875 z "
         transform="matrix(1.0416667,0,0,1.0416667,-0.5155,0)"
         id="path1481" /></g><g
       id="g1483" /></g><g
     id="g1491"
     transform="translate(-2.523708e-6,0.04235957)" /><g
     id="g1503"
     transform="translate(-2.523708e-6,0.04235957)" /><g
     transform="matrix(0.14644951,0,0,-0.14644951,-17.481411,79.941503)"
     id="g3000"><g
       id="g3772"><path
         d="m 165.705,513.318 8.321,12.253 3.984,0 -3.074,-12.26 c 1.306,0.007 3.24,0.274 5.051,1.948 0.7,0.649 1.761,1.754 2.569,4.755 0.715,2.663 3.335,13.451 3.335,13.451 l -15.574,0 c 0,0 -3.363,0.166 -6.257,-2.511 -0.707,-0.649 -2.006,-1.746 -2.814,-4.748 -0.722,-2.677 -2.974,-12.888 -2.974,-12.888 l 7.433,0 z"
         id="path7832"
         style="fill:#0077c0;fill-opacity:1;fill-rule:evenodd;stroke:#0077c0;stroke-width:0.49900001;stroke-linecap:butt;stroke-linejoin:miter;stroke-miterlimit:2.61299992;stroke-opacity:1;stroke-dasharray:none"
         inkscape:connector-curvature="0" /><path
         d="m 174.445,531.712 6.184,0 -4.38,-4.388 -1.804,4.388"
         id="path7836"
         style="fill:#ffd51b;fill-opacity:1;fill-rule:evenodd;stroke:none"
         inkscape:connector-curvature="0" /></g><use
       x="0"
       y="0"
       xlink:href="#g3772"
       id="use3776" /></g></svg>