<?xml version="1.0" encoding="UTF-8" standalone="no"?>
<svg
   xmlns:dc="http://purl.org/dc/elements/1.1/"
   xmlns:cc="http://creativecommons.org/ns#"
   xmlns:rdf="http://www.w3.org/1999/02/22-rdf-syntax-ns#"
   xmlns:svg="http://www.w3.org/2000/svg"
   xmlns="http://www.w3.org/2000/svg"
   xmlns:sodipodi="http://sodipodi.sourceforge.net/DTD/sodipodi-0.dtd"
   xmlns:inkscape="http://www.inkscape.org/namespaces/inkscape"
   version="1.0"
   id="Layer_1"
   width="12"
   height="12"
   viewBox="0 0 11.469 12.5"
   overflow="visible"
   xml:space="preserve"
   sodipodi:version="0.32"
   inkscape:version="0.48.1 "
   sodipodi:docname="fuel.svg"><metadata
   id="metadata1520"><rdf:RDF><cc:Work
       rdf:about=""><dc:format>image/svg+xml</dc:format><dc:type
         rdf:resource="http://purl.org/dc/dcmitype/StillImage" /><dc:title></dc:title></cc:Work></rdf:RDF></metadata><defs
   id="defs1518">
	
	

		
		
	</defs><sodipodi:namedview
   inkscape:window-height="968"
   inkscape:window-width="1280"
   inkscape:pageshadow="2"
   inkscape:pageopacity="0.0"
   borderopacity="1.0"
   bordercolor="#666666"
   pagecolor="#ffffff"
   id="base"
   inkscape:zoom="64.606579"
   inkscape:cx="6.1512062"
   inkscape:cy="6.1311667"
   inkscape:window-x="-4"
   inkscape:window-y="-4"
   inkscape:current-layer="Layer_1"
   showgrid="false"
   inkscape:window-maximized="1" />

<g
   id="XMLID_4_">
	<g
   id="g1479">
		<path
   d="M 5.15625 0.28125 C 4.8631001 0.29681143 4.63814 0.51493258 4.59375 0.78125 L 4.5625 0.78125 L 4.5625 1.3125 C 2.9004798 1.3395749 3.5769112 3.5831378 3.40625 4.3125 C 3.21521 5.12466 -1.4608279 11.723755 1.96875 11.6875 C 5.4753211 11.650431 4.09375 6.9470801 4.09375 5.125 C 4.09375 4.6681434 3.9101148 3.7015355 4.5625 3.8125 L 4.5625 11.09375 C 4.5606954 11.100916 4.5625 11.117659 4.5625 11.125 C 4.5625 11.247792 4.8308694 11.336875 5.15625 11.34375 L 5.15625 11.8125 L 10.59375 11.8125 L 10.59375 11.34375 C 10.616981 11.344734 10.632312 11.34375 10.65625 11.34375 C 10.998225 11.34375 11.25 11.252246 11.25 11.125 C 11.25 11.115456 11.253029 11.102989 11.25 11.09375 L 11.25 0.875 C 11.25 0.5552934 10.998225 0.28125 10.65625 0.28125 C 10.635205 0.28125 10.614255 0.27933332 10.59375 0.28125 L 5.1875 0.28125 L 5.15625 0.28125 z M 6.0625 1.4375 L 9.78125 1.4375 C 10.05483 1.4375 10.28125 1.5898502 10.28125 1.78125 L 10.28125 4.5625 C 10.28125 4.75443 10.05483 4.90625 9.78125 4.90625 L 6.0625 4.90625 C 5.7889203 4.90625 5.5625 4.75443 5.5625 4.5625 L 5.5625 1.78125 C 5.5625 1.5898502 5.7889203 1.4375 6.0625 1.4375 z M 3.59375 4.875 C 3.8517249 6.3476257 4.9968179 11.312227 2 11.34375 C -0.60146664 11.370777 2.8659446 6.1838168 3.59375 4.875 z "
   transform="matrix(1.0416667,0,0,1.0416667,-0.5155,0)"
   id="path1481" />
	</g>
	<g
   id="g1483">
	</g>
</g><g
   id="g1491"
   transform="translate(-2.523708e-6,0.04235957)">
			
			
			
			
			
		</g><g
   id="g1503"
   transform="translate(-2.523708e-6,0.04235957)">
			
			
			
			
			
			
		</g>
<g
   transform="matrix(0.02662564,0,0,0.02662564,5.5289216,-4.6152687)"
   id="layer1"><g
     transform="matrix(0.2326949,0,0,0.2326949,0.4836773,190.36074)"
     id="g2384"
     style="display:inline"><path
       inkscape:connector-curvature="0"
       d="m 355.02537,715.37104 c -19.98944,0 -30.26349,-13.03571 -30.26349,-13.03571 -16.42857,-0.71429 -144.82143,-0.35715 -144.82143,-0.35715 l -12.5,-105.50885 c 0,0 -79.080325,-55.74115 -85.508896,-62.16972 C 43.972263,362.09404 181.17751,197.92475 355.03065,197.92475 c 173.85314,0 311.05839,164.16929 273.0991,336.37486 -6.42858,6.42857 -85.5089,62.16972 -85.5089,62.16972 l -12.5,105.50885 c 0,0 -128.39286,-0.35714 -144.82143,0.35715 0,0 -10.27405,13.03571 -30.27405,13.03571 z"
       id="Red part"
       style="fill:#ed1c24;fill-opacity:1;fill-rule:evenodd;stroke:none" /><path
       inkscape:connector-curvature="0"
       d="M 355.2112,554.91135 343.07983,250.34962 c -14.63091,-2.9859 -51.95465,0.59719 -71.96017,15.52668 l 58.22504,290.22941 c 0,0 -79.42493,-278.28581 -79.42493,-278.28581 -19.04017,-0.23339 -57.46126,31.96025 -60.31516,41.504 L 305.4575,566.25777 c 0,0 -130.18521,-225.73399 -130.18521,-225.73399 -12.83937,4.77744 -40.90682,56.4335 -36.42797,62.43558 0,0 145.11471,177.63073 145.11471,177.63073 L 134.66406,428.9064 c 0,0 -19.40835,29.56041 -6.75158,79.63049 l 84.32869,60.89857 10.55745,83.19979 103.39021,0 c 0,0 16.91497,16.0333 28.91677,16.0333 12.0018,0 28.91677,-16.0333 28.91677,-16.0333 l 103.39021,0 10.55745,-83.19979 84.32869,-60.89857 c 12.65677,-50.07008 -6.75158,-79.63049 -6.75158,-79.63049 L 426.25217,580.59009 c 0,0 145.11471,-177.63073 145.11471,-177.63073 4.47885,-6.00208 -23.5886,-57.65814 -36.42797,-62.43558 0,0 -130.18521,225.73399 -130.18521,225.73399 L 520.60659,319.3239 c -2.8539,-9.54375 -41.27499,-41.73739 -60.31516,-41.504 0,0 -79.42493,278.28581 -79.42493,278.28581 L 439.09154,265.8763 C 419.08602,250.94681 381.76228,247.36372 367.13137,250.34962 L 355.2112,554.91135 z"
       id="Yellow part"
       style="fill:#ffd500;fill-opacity:1;fill-rule:evenodd;stroke:none" /></g></g></svg>