<?xml version="1.0" encoding="UTF-8" standalone="no"?>
<!-- Generator: Adobe Illustrator 12.0.1, SVG Export Plug-In  -->

<svg
   xmlns:dc="http://purl.org/dc/elements/1.1/"
   xmlns:cc="http://creativecommons.org/ns#"
   xmlns:rdf="http://www.w3.org/1999/02/22-rdf-syntax-ns#"
   xmlns:svg="http://www.w3.org/2000/svg"
   xmlns="http://www.w3.org/2000/svg"
   xmlns:sodipodi="http://sodipodi.sourceforge.net/DTD/sodipodi-0.dtd"
   xmlns:inkscape="http://www.inkscape.org/namespaces/inkscape"
   version="1.1"
   width="288"
   height="288"
   viewBox="0 0 288 288"
   enable-background="new 0 0 288 288"
   xml:space="preserve"
   id="svg2"
   inkscape:version="0.48.2 r9819"
   sodipodi:docname="pare.svg"><metadata
   id="metadata22"><rdf:RDF><cc:Work
       rdf:about=""><dc:format>image/svg+xml</dc:format><dc:type
         rdf:resource="http://purl.org/dc/dcmitype/StillImage" /><dc:title></dc:title><cc:license
         rdf:resource="http://creativecommons.org/licenses/publicdomain/" /></cc:Work><cc:License
       rdf:about="http://creativecommons.org/licenses/publicdomain/"><cc:permits
         rdf:resource="http://creativecommons.org/ns#Reproduction" /><cc:permits
         rdf:resource="http://creativecommons.org/ns#Distribution" /><cc:permits
         rdf:resource="http://creativecommons.org/ns#DerivativeWorks" /></cc:License></rdf:RDF></metadata><sodipodi:namedview
   pagecolor="#ffffff"
   bordercolor="#666666"
   borderopacity="1"
   objecttolerance="10"
   gridtolerance="10"
   guidetolerance="10"
   inkscape:pageopacity="0"
   inkscape:pageshadow="2"
   inkscape:window-width="715"
   inkscape:window-height="480"
   id="namedview20"
   showgrid="false"
   inkscape:zoom="0.81944444"
   inkscape:cx="144"
   inkscape:cy="144"
   inkscape:window-x="0"
   inkscape:window-y="0"
   inkscape:window-maximized="0"
   inkscape:current-layer="svg2" />
<defs
   id="defs4">
</defs>
<path
   fill="#FFFFFF"
   d="M85.231,1.986C84.655,2.562,2.562,84.661,1.986,85.237c0,0.814,0,116.852,0,117.666  c0.576,0.574,82.669,82.536,83.246,83.11c0.813,0,116.749,0,117.56,0c0.578-0.574,82.648-82.536,83.223-83.11  c0-0.814,0-116.852,0-117.666c-0.574-0.576-82.645-82.675-83.223-83.251C201.977,1.986,86.046,1.986,85.231,1.986z"
   id="path6" />
<path
   d="M84.409,0L0,84.415v119.312L84.409,288h119.204L288,203.727V84.415L203.613,0H84.409z M286.014,85.237  c0,0.814,0,116.852,0,117.666c-0.574,0.574-82.645,82.536-83.223,83.11c-0.811,0-116.747,0-117.56,0  c-0.576-0.574-82.669-82.536-83.246-83.11c0-0.814,0-116.852,0-117.666C2.562,84.661,84.655,2.562,85.231,1.986  c0.815,0,116.745,0,117.56,0C203.369,2.562,285.439,84.661,286.014,85.237z"
   id="path8" />
<polyline
   fill-rule="evenodd"
   clip-rule="evenodd"
   fill="#BF2F37"
   points="8.143,87.714 87.741,8.143 200.142,8.143 279.854,87.714 279.854,200.289 200.142,279.854 87.741,279.854 8.143,200.289 8.143,87.714"
   id="polyline10" />
<path
   fill="#FFFFFF"
   d="M46.333,149.958H31.461V192H17.732V96.189h28.601c15.015,0,25.168,10.725,25.168,26.884  C71.501,140.52,62.492,149.958,46.333,149.958z M45.617,109.632H31.461v27.17h14.156c8.009,0,12.441-5.005,12.441-13.728  C58.059,115.065,53.054,109.632,45.617,109.632z"
   id="path12" />
<path
   fill="#FFFFFF"
   d="M124.695,192l-6.721-26.169H97.382L91.09,192H77.219L101.1,96.189h13.443L138.424,192H124.695z   M107.535,124.79l-6.721,27.599h13.729L107.535,124.79z"
   id="path14" />
<path
   fill="#FFFFFF"
   d="M191.188,192l-12.728-45.045h-13.155V192h-13.729V96.189h28.6c15.016,0,25.169,10.153,25.169,25.597  c0,11.44-4.72,19.734-13.729,23.167L205.346,192H191.188z M179.462,109.632h-14.156v24.167h14.156  c8.008,0,12.441-4.29,12.441-12.012C191.903,114.351,186.898,109.632,179.462,109.632z"
   id="path16" />
<path
   fill="#FFFFFF"
   d="M221.504,192V96.189h45.045v13.442h-31.317v24.167h19.878v13.156h-19.878v31.604h35.036V192H221.504z"
   id="path18" />
</svg>