<?xml version="1.0" encoding="UTF-8" standalone="no"?>
<!-- Generator: Adobe Illustrator 15.0.2, SVG Export Plug-In . SVG Version: 6.00 Build 0)  -->

<svg
   xmlns:dc="http://purl.org/dc/elements/1.1/"
   xmlns:cc="http://creativecommons.org/ns#"
   xmlns:rdf="http://www.w3.org/1999/02/22-rdf-syntax-ns#"
   xmlns:svg="http://www.w3.org/2000/svg"
   xmlns="http://www.w3.org/2000/svg"
   xmlns:sodipodi="http://sodipodi.sourceforge.net/DTD/sodipodi-0.dtd"
   xmlns:inkscape="http://www.inkscape.org/namespaces/inkscape"
   version="1.1"
   id="Ebene_1"
   x="0px"
   y="0px"
   width="50"
   height="44.243919"
   viewBox="0 0 50.000001 44.243918"
   enable-background="new 0 0 157.92 139.74"
   xml:space="preserve"
   inkscape:version="0.48.2 r9819"
   sodipodi:docname="scales-symbola.svg"><metadata
   id="metadata9"><rdf:RDF><cc:Work
       rdf:about=""><dc:format>image/svg+xml</dc:format><dc:type
         rdf:resource="http://purl.org/dc/dcmitype/StillImage" /></cc:Work></rdf:RDF></metadata><defs
   id="defs7" /><sodipodi:namedview
   pagecolor="#ffffff"
   bordercolor="#666666"
   borderopacity="1"
   objecttolerance="10"
   gridtolerance="10"
   guidetolerance="10"
   inkscape:pageopacity="0"
   inkscape:pageshadow="2"
   inkscape:window-width="640"
   inkscape:window-height="480"
   id="namedview5"
   showgrid="false"
   fit-margin-top="0"
   fit-margin-left="0"
   fit-margin-right="0"
   fit-margin-bottom="0"
   inkscape:zoom="1.6888507"
   inkscape:cx="78.959999"
   inkscape:cy="69.869999"
   inkscape:window-x="1917"
   inkscape:window-y="1032"
   inkscape:window-maximized="0"
   inkscape:current-layer="Ebene_1" />
<path
   d="m 10.163374,38.221884 v -16.09043 l -6.9338907,14.89362 c 1.956687,0.72188 4.2743162,1.12082 6.9338907,1.19681 m 8.871581,-1.19681 -6.914894,-14.89362 v 16.09043 c 2.659574,-0.076 4.958207,-0.47493 6.914894,-1.19681 z m 18.863982,1.19681 v -16.09043 l -6.933891,14.89362 c 1.956687,0.72188 4.274316,1.12082 6.933891,1.19681 z M 26.557751,13.392854 c 0,-0.41793 -0.151976,-0.79787 -0.455927,-1.08283 C 25.797873,12.006074 25.43693,11.854104 25,11.854104 c -0.417933,0 -0.797872,0.15197 -1.101823,0.45592 -0.303952,0.28496 -0.455927,0.6649 -0.455927,1.08283 0,1.02584 0.531914,1.53875 1.55775,1.53875 1.044833,0 1.557751,-0.51291 1.557751,-1.53875 z m 20.212766,23.63222 -6.914893,-14.89362 v 16.09043 c 2.659574,-0.076 4.958206,-0.47493 6.914893,-1.19681 z m -24.506079,-1.29179 c -2.507599,5.68009 -6.212006,8.51063 -11.132219,8.51063 -4.9012159,0 -8.6246202,-2.83054 -11.132219,-8.51063 l 0.26595745,-0.30396 c 0.41793314,0.34195 0.87386015,0.6269 1.34878425,0.87386 l 8.4916413,-18.65501 c -0.2469604,-0.70289 -0.3799391,-1.38678 -0.3799391,-1.99468 0,-1.08283 0.4749241,-1.61474 1.4057751,-1.61474 0.930851,0 1.405775,0.53191 1.405775,1.61474 0,0.6079 -0.132979,1.29179 -0.379939,1.99468 l 8.510638,18.65501 c 0.474924,-0.24696 0.911854,-0.53191 1.329787,-0.87386 l 0.265958,0.30396 z M 8.8905776,17.572184 c -0.3229483,0.038 -0.6458967,0.057 -0.9878419,0.057 -3.5714287,0 -5.357143,-1.08283 -5.357143,-3.24848 0,-1.50076 0.6838906,-2.26064 2.0516718,-2.26064 1.1588146,0 1.7287234,0.47493 1.7287234,1.38678 0,0.17097 -0.056991,0.43693 -0.1519757,0.74088 -0.1139817,0.32295 -0.1519757,0.56991 -0.1519757,0.75988 0,0.43693 0.6079028,0.66489 1.8617022,0.66489 0.2469605,0 0.474924,-0.019 0.6838906,-0.057 0,0.60791 0.1139817,1.2728 0.3229483,1.95669 z m 12.2720364,-5.50912 -0.759878,3.26748 c -0.987842,-0.13298 -1.443769,-0.18997 -1.405775,-0.18997 -1.177812,0 -2.982523,0.56991 -5.433131,1.70973 0.09499,-0.45593 0.132979,-0.85487 0.132979,-1.19681 0,-0.39894 -0.07599,-0.77888 -0.227964,-1.19681 l 3.058511,-1.82371 c 1.025836,-0.6079 1.93769,-0.91185 2.735562,-0.91185 0.759879,0 1.386778,0.11398 1.899696,0.34194 z m 28.837387,23.67022 c -2.507599,5.68009 -6.212007,8.51063 -11.132219,8.51063 -4.901216,0 -8.624621,-2.83054 -11.132219,-8.51063 l 0.265957,-0.30396 c 0.417933,0.34195 0.87386,0.6269 1.348784,0.87386 l 8.491642,-18.65501 c -0.246961,-0.70289 -0.379939,-1.38678 -0.379939,-1.99468 0,-1.08283 0.474924,-1.61474 1.405775,-1.61474 0.949848,0 1.405775,0.53191 1.405775,1.61474 0,0.6079 -0.113982,1.29179 -0.37994,1.99468 l 8.510639,18.65501 c 0.474924,-0.24696 0.911854,-0.53191 1.329787,-0.87386 l 0.265958,0.30396 z m -22.188451,-23.7652 -1.025835,4.42629 h -3.571429 l -1.006839,-4.42629 1.74772,-1.59575 L 24.373101,-3.5567125e-6 H 25.6269 L 26.044833,10.372334 l 1.766717,1.59575 z m 8.719605,2.4886 c -0.151975,0.41793 -0.208966,0.79787 -0.208966,1.19681 0,0.34194 0.03799,0.74088 0.132979,1.19681 -2.450608,-1.13982 -4.274317,-1.70973 -5.433131,-1.70973 0.03799,0 -0.43693,0.057 -1.405775,0.18997 l -0.759879,-3.26748 c 0.512918,-0.22796 1.139818,-0.34194 1.899696,-0.34194 0.797873,0 1.709727,0.30395 2.735563,0.91185 l 3.039513,1.82371 z m 10.94225,-0.076 c 0,2.16565 -1.785715,3.24848 -5.37614,3.24848 -0.341945,0 -0.664894,-0.019 -0.968845,-0.057 0.208966,-0.68389 0.303951,-1.34878 0.303951,-1.95669 0.227964,0.038 0.455927,0.057 0.683891,0.057 1.253799,0 1.880699,-0.22796 1.880699,-0.66489 0,-0.18997 -0.05699,-0.43693 -0.151976,-0.75988 -0.113981,-0.30395 -0.170972,-0.56991 -0.170972,-0.74088 0,-0.91185 0.588905,-1.38678 1.74772,-1.38678 1.367781,0 2.051672,0.75988 2.051672,2.26064 z"
   id="path3"
   inkscape:connector-curvature="0" />
</svg>