<?xml version="1.0" encoding="UTF-8" standalone="no"?>
<!-- Created with Inkscape (http://www.inkscape.org/) -->

<svg
   xmlns:dc="http://purl.org/dc/elements/1.1/"
   xmlns:cc="http://creativecommons.org/ns#"
   xmlns:rdf="http://www.w3.org/1999/02/22-rdf-syntax-ns#"
   xmlns:svg="http://www.w3.org/2000/svg"
   xmlns="http://www.w3.org/2000/svg"
   xmlns:sodipodi="http://sodipodi.sourceforge.net/DTD/sodipodi-0.dtd"
   xmlns:inkscape="http://www.inkscape.org/namespaces/inkscape"
   id="svg9569"
   sodipodi:version="0.32"
   inkscape:version="0.48.5 r10040"
   width="112"
   height="197"
   version="1.0"
   sodipodi:docname="mobile_phones_oi.svg"
   inkscape:output_extension="org.inkscape.output.svg.inkscape">
  <metadata
     id="metadata9574">
    <rdf:RDF>
      <cc:Work
         rdf:about="">
        <dc:format>image/svg+xml</dc:format>
        <dc:type
           rdf:resource="http://purl.org/dc/dcmitype/StillImage" />
        <dc:title></dc:title>
        <cc:license
           rdf:resource="http://creativecommons.org/licenses/publicdomain/" />
      </cc:Work>
      <cc:License
         rdf:about="http://creativecommons.org/licenses/publicdomain/">
        <cc:permits
           rdf:resource="http://creativecommons.org/ns#Reproduction" />
        <cc:permits
           rdf:resource="http://creativecommons.org/ns#Distribution" />
        <cc:permits
           rdf:resource="http://creativecommons.org/ns#DerivativeWorks" />
      </cc:License>
    </rdf:RDF>
  </metadata>
  <defs
     id="defs9572">
    <inkscape:perspective
       sodipodi:type="inkscape:persp3d"
       inkscape:vp_x="0 : 98.5 : 1"
       inkscape:vp_y="0 : 1000 : 0"
       inkscape:vp_z="112 : 98.5 : 1"
       inkscape:persp3d-origin="56 : 65.666667 : 1"
       id="perspective2511" />
  </defs>
  <sodipodi:namedview
     inkscape:window-height="855"
     inkscape:window-width="1280"
     inkscape:pageshadow="2"
     inkscape:pageopacity="0.0"
     guidetolerance="10.0"
     gridtolerance="10.0"
     objecttolerance="10.0"
     borderopacity="1.0"
     bordercolor="#666666"
     pagecolor="#ffffff"
     id="base"
     inkscape:zoom="3.9697844"
     inkscape:cx="12.168904"
     inkscape:cy="97.532914"
     inkscape:window-x="0"
     inkscape:window-y="0"
     inkscape:current-layer="svg9569"
     showgrid="false"
     inkscape:window-maximized="0" />
  <path
     style="fill:#ac39ac;fill-opacity:1"
     d="M 28.746858,190.31911 C 26.682618,189.7709 22.785608,187.33712 20.086858,184.91071 C 11.728268,177.39562 11.999218,179.87054 12.005608,111.09441 C 12.009388,70.369599 12.366768,49.734285 13.115268,47.022546 C 14.742678,41.126574 23.351398,32.809807 28.714658,31.952188 L 32.819698,31.295765 L 33.159858,21.511752 C 33.561208,9.9678712 34.931678,7.5225464 41.000028,7.5225464 C 46.920558,7.5225464 48.000028,9.5569247 48.000028,20.714797 L 48.000028,30.249567 L 65.250028,30.730326 C 80.167758,31.146084 83.050068,31.492757 86.568238,33.294399 C 91.917048,36.033498 97.603388,42.431893 98.927898,47.201767 C 99.621378,49.699137 99.990808,71.829728 99.994448,111.09441 C 100.00084,179.83865 100.26692,177.4 91.943208,184.88373 C 88.861178,187.65474 85.419108,189.6832 82.590388,190.39548 C 77.041498,191.79271 34.066098,191.73175 28.746858,190.31911 z M 89.800028,94.322546 C 91.067968,93.0546 91.603008,52.257454 90.393038,49.104333 C 89.856368,47.705788 85.930038,47.522546 56.500028,47.522546 C 27.070018,47.522546 23.143688,47.705788 22.607018,49.104333 C 21.397048,52.257454 21.932078,93.0546 23.200028,94.322546 C 24.917058,96.039576 88.082998,96.039576 89.800028,94.322546 z "
     id="path9598" />
  <g
     transform="matrix(0.26372855,0,0,0.26372855,66.424764,4.0939572)"
     id="layer1">
    <g
       id="g3074">
      <g
         transform="translate(-416.58298,-239.90955)"
         id="layer1-0">
        <g
           transform="matrix(3.543307,0,0,3.543307,6.5289884,3.3058122)"
           id="g3006"
           style="fill-rule:evenodd">
          <g
             id="Camada_x0020_1">
            <metadata
               id="CorelCorpID_0Corel-Layer" />
            <path
               inkscape:connector-curvature="0"
               d="m 108.283,137.925 c -2.883,0.1051 -3.6768,14.3633 0,15.2577 3.8372,-0.398 3.4402,-15.5822 0,-15.2577 z"
               id="path2993"
               style="fill:none" />
            <ellipse
               sodipodi:ry="2.5576501"
               sodipodi:rx="2.5136001"
               sodipodi:cy="133.493"
               sodipodi:cx="108.349"
               cx="108.349"
               cy="133.493"
               rx="2.5136001"
               ry="2.5576501"
               id="ellipse2995"
               style="fill:none"
               d="m 110.8626,133.493 c 0,1.41255 -1.12538,2.55765 -2.5136,2.55765 -1.38822,0 -2.5136,-1.1451 -2.5136,-2.55765 0,-1.41255 1.12538,-2.55765 2.5136,-2.55765 1.38822,0 2.5136,1.1451 2.5136,2.55765 z" />
            <path
               inkscape:connector-curvature="0"
               d="m 78.1567,138.839 c 0.6609,15.6935 16.1276,21.8201 16.1276,21.8201 6.5778,3.009 11.0675,3.3019 15.238,3.6695 7.0248,0.4124 9.4775,-2.3617 7.6224,-9.1601 -0.2452,-1.364 -0.4169,-2.739 -0.4169,-2.739 -0.8699,-2.9316 -0.4419,-7.5155 -0.4419,-7.5155 0,-3.8806 6.8791,-8.0257 6.8791,-8.0257 10.5833,-8.4667 4.5646,-16.6031 4.5646,-16.6031 -8.1168,-10.7163 -30.3502,-8.0246 -40.8391,0.6944 -2.0071,1.6684 -2.9509,2.8149 -4.3702,4.5123 -2.8471,3.4048 -4.5387,9.1891 -4.3636,13.3471 z m 18.0207,4.2231 c 8.9955,-0.1037 10.3772,14.9482 0.1764,15.2577 -10.3183,-0.7779 -8.3487,-15.1242 -0.1764,-15.2577 z m 11.7299,15.3459 c -3.6768,-0.8944 -2.883,-15.1526 0,-15.2577 3.4402,-0.3245 3.8372,14.8597 0,15.2577 z m 0.0662,-22.2473 c 1.3882,0 2.5136,1.145 2.5136,2.5576 0,1.4127 -1.1254,2.5577 -2.5136,2.5577 -1.3882,0 -2.5136,-1.145 -2.5136,-2.5577 0,-1.4126 1.1254,-2.5576 2.5136,-2.5576 z"
               id="path2997"
               style="fill:#ffcc33" />
            <path
               inkscape:connector-curvature="0"
               d="m 96.132981,146.89079 c -3.6161,0.1512 -4.0129,8.0154 0.1323,8.0258 4.086899,0.062 4.219199,-8.2431 -0.1323,-8.0258 z"
               id="path2999"
               style="fill:#ffcc33;stroke:#ffcc33;stroke-width:0.2" />
          </g>
        </g>
      </g>
      <path
         inkscape:connector-curvature="0"
         d="m -70.974232,323.95173 c -10.682144,-1.48003 -18.815716,-8.3729 -21.511083,-18.22976 -0.87495,-3.19966 -0.876302,-11.73322 -0.0024,-14.89653 1.610876,-5.8307 3.658938,-9.46559 7.584872,-13.4616 3.525108,-3.58802 7.242975,-5.59023 11.964286,-6.44321 16.164929,-2.92044 30.055393,10.77616 29.176489,28.76929 -0.23825,4.87754 -0.854953,7.37838 -2.795717,11.33711 -3.413443,6.96268 -10.783015,12.03137 -18.599538,12.7925 -1.235036,0.12027 -2.566948,0.26601 -2.959805,0.32388 -0.392857,0.0579 -1.678572,-0.0284 -2.857143,-0.19168 l 0,0 z m 6.501567,-12.17297 c 3.002305,-1.40509 5.68637,-5.31231 6.569951,-9.56394 0.606482,-2.9183 0.227225,-8.66466 -0.732879,-11.10432 -1.956295,-4.97102 -5.412466,-7.57118 -10.108597,-7.60496 -2.208106,-0.0159 -2.867437,0.1347 -4.499882,1.02774 -3.361274,1.83881 -5.381845,5.08278 -6.348762,10.19273 -1.633332,8.63183 2.117422,16.53567 8.456079,17.81922 2.081435,0.42148 4.791855,0.10974 6.66409,-0.76647 l 0,0 z"
         id="path3068"
         style="fill:#ffffff" />
      <path
         inkscape:connector-curvature="0"
         d="m -30.109462,323.0358 c -3.774147,-3.40972 -5.653198,-10.38762 -5.949196,-22.09249 -0.490665,-19.40273 4.580657,-33.28977 10.761823,-29.4696 4.110363,2.54035 6.97736,13.12111 6.994202,25.81237 0.01787,13.46457 -2.787918,23.65143 -7.266538,26.38236 -1.70008,1.03666 -2.873559,0.87314 -4.540291,-0.63264 z"
         id="path3070"
         style="fill:#ffffff" />
      <path
         inkscape:connector-curvature="0"
         d="m -30.988056,262.96849 c -1.817053,-0.82538 -4.195334,-3.4978 -4.744741,-5.33156 -0.646421,-2.15756 -0.501256,-4.34381 0.419747,-6.32159 2.174018,-4.66851 7.193913,-6.47049 11.683038,-4.19383 4.454277,2.25899 6.10064,7.64244 3.735768,12.21559 -0.653509,1.26375 -2.841725,3.18266 -4.346114,3.81123 -1.665239,0.69578 -5.016677,0.60646 -6.747698,-0.17984 l 0,0 z"
         id="path3072"
         style="fill:#ffffff" />
    </g>
  </g>
</svg>
