<?xml version="1.0" encoding="UTF-8" standalone="no"?>
<!-- Created with Inkscape (http://www.inkscape.org/) -->

<svg
   xmlns:dc="http://purl.org/dc/elements/1.1/"
   xmlns:cc="http://creativecommons.org/ns#"
   xmlns:rdf="http://www.w3.org/1999/02/22-rdf-syntax-ns#"
   xmlns:svg="http://www.w3.org/2000/svg"
   xmlns="http://www.w3.org/2000/svg"
   xmlns:sodipodi="http://sodipodi.sourceforge.net/DTD/sodipodi-0.dtd"
   xmlns:inkscape="http://www.inkscape.org/namespaces/inkscape"
   id="svg9569"
   sodipodi:version="0.32"
   inkscape:version="0.48.5 r10040"
   width="112"
   height="197"
   version="1.0"
   sodipodi:docname="mobile_phones_tim.svg"
   inkscape:output_extension="org.inkscape.output.svg.inkscape">
  <metadata
     id="metadata9574">
    <rdf:RDF>
      <cc:Work
         rdf:about="">
        <dc:format>image/svg+xml</dc:format>
        <dc:type
           rdf:resource="http://purl.org/dc/dcmitype/StillImage" />
        <dc:title></dc:title>
        <cc:license
           rdf:resource="http://creativecommons.org/licenses/publicdomain/" />
      </cc:Work>
      <cc:License
         rdf:about="http://creativecommons.org/licenses/publicdomain/">
        <cc:permits
           rdf:resource="http://creativecommons.org/ns#Reproduction" />
        <cc:permits
           rdf:resource="http://creativecommons.org/ns#Distribution" />
        <cc:permits
           rdf:resource="http://creativecommons.org/ns#DerivativeWorks" />
      </cc:License>
    </rdf:RDF>
  </metadata>
  <defs
     id="defs9572">
    <inkscape:perspective
       sodipodi:type="inkscape:persp3d"
       inkscape:vp_x="0 : 98.5 : 1"
       inkscape:vp_y="0 : 1000 : 0"
       inkscape:vp_z="112 : 98.5 : 1"
       inkscape:persp3d-origin="56 : 65.666667 : 1"
       id="perspective2511" />
  </defs>
  <sodipodi:namedview
     inkscape:window-height="855"
     inkscape:window-width="1280"
     inkscape:pageshadow="2"
     inkscape:pageopacity="0.0"
     guidetolerance="10.0"
     gridtolerance="10.0"
     objecttolerance="10.0"
     borderopacity="1.0"
     bordercolor="#666666"
     pagecolor="#ffffff"
     id="base"
     inkscape:zoom="3.9697844"
     inkscape:cx="12.168904"
     inkscape:cy="97.532914"
     inkscape:window-x="0"
     inkscape:window-y="0"
     inkscape:current-layer="svg9569"
     showgrid="false"
     inkscape:window-maximized="0" />
  <g
     transform="matrix(0.10793969,0,0,0.10793969,18.429241,13.934561)"
     id="layer1">
    <g
       transform="matrix(3.54331,0,0,3.54331,-14.3762,56.6172)"
       id="g3020"
       style="fill-rule:evenodd">
      <g
         id="Camada_x0020_1">
        <metadata
           id="CorelCorpID_0Corel-Layer" />
        <polygon
           points="100.929,118.758 99.518,126.254 106.75,126.254 101.635,151.037 109.837,151.037 114.864,126.343 122.096,126.343 123.507,118.67 "
           id="polygon2993"
           style="fill:none;stroke:#373435;stroke-width:0.2" />
        <polygon
           points="128.534,118.582 122.007,151.214 130.209,151.214 136.824,118.582 "
           id="polygon2995"
           style="fill:none;stroke:#373435;stroke-width:0.2" />
        <polygon
           points="155.124,137.499 154.375,118.934 145.202,118.934 135.589,150.949 143.086,150.949 148.554,131.37 149.789,151.037 155.609,151.037 164.782,131.546 162.224,150.861 169.456,150.949 172.896,118.846 163.988,118.758 "
           id="polygon2997"
           style="fill:none;stroke:#373435;stroke-width:0.2" />
        <path
           inkscape:connector-curvature="0"
           d="m 77.8272,112.855 c -9.815,4.0958 -16.8118,6.1095 -20.9903,6.0413 l -14.0229,0.0441 -1.1907,6.8351 14.5521,0 c 2.5396,0.075 8.3017,-1.145 22.3133,-7.0996 3.3375,5.4354 5.7335,7.2433 7.1879,7.1437 l 7.4083,0 1.5434,-6.791 -10.5392,0 c -2.0426,-0.4787 -4.1299,-2.5365 -6.2619,-6.1736 z"
           id="path2999"
           style="fill:none;stroke:#373435;stroke-width:0.2" />
        <path
           inkscape:connector-curvature="0"
           d="m 75.2695,125.114 c -9.815,4.0958 -16.8118,6.1095 -20.9903,6.0413 l -14.0229,0.0441 -1.1907,6.8351 14.5521,0 c 2.5396,0.075 8.3017,-1.145 22.3133,-7.0996 3.3375,5.4354 5.7335,7.2433 7.1879,7.1437 l 7.4083,0 1.5434,-6.791 -10.5392,0 c -2.0426,-0.4787 -4.1299,-2.5365 -6.2619,-6.1736 z"
           id="path3001"
           style="fill:none;stroke:#373435;stroke-width:0.2" />
        <path
           inkscape:connector-curvature="0"
           d="m 72.6237,137.461 c -9.815,4.0958 -16.8118,6.1095 -20.9903,6.0413 l -14.0229,0.0441 -1.1907,6.8351 14.5521,0 c 2.5396,0.075 8.3017,-1.145 22.3133,-7.0996 3.3375,5.4354 5.7335,7.2433 7.1879,7.1437 l 7.4083,0 1.5434,-6.791 -10.5392,0 c -2.0426,-0.4787 -4.1299,-2.5365 -6.2619,-6.1736 z"
           id="path3003"
           style="fill:none;stroke:#373435;stroke-width:0.2" />
        <path
           inkscape:connector-curvature="0"
           d="m 20.5397,155.491 c 43.3114,14.0583 133.505,12.6473 165.806,0 3.449,-1.2657 5.195,-3.7939 5.1056,-7.5847 l 0,-24.6944 c 0,-5.4231 -5.6695,-7.1324 -11.7644,-9.04 -33.0872,-10.7997 -119.062,-10.5794 -153.856,0.7496 -6.9653,1.4162 -10.5683,3.8269 -10.809,7.232 l 0,26.1055 c 0.2592,3.831 2.0984,6.2416 5.5175,7.232 z"
           id="path3005"
           style="fill:#ffffff" />
        <path
           inkscape:connector-curvature="0"
           d="m 20.5397,155.491 c 43.3114,14.0583 133.505,12.6473 165.806,0 3.449,-1.2657 5.195,-3.7939 5.1056,-7.5847 l 0,-24.6944 c 0,-5.4231 -5.6695,-7.1324 -11.7644,-9.04 -33.0872,-10.7997 -119.062,-10.5794 -153.856,0.7496 -6.9653,1.4162 -10.5683,3.8269 -10.809,7.232 l 0,26.1055 c 0.2592,3.831 2.0984,6.2416 5.5175,7.232 z m 63.5494,-36.4628 10.5392,0 -1.5434,6.791 -7.4083,0 c -1.4544,0.0996 -3.8504,-1.7083 -7.1879,-7.1437 -14.0116,5.9546 -19.7737,7.1746 -22.3133,7.0996 l -14.5521,0 1.1907,-6.8351 14.0229,-0.0441 c 4.1785,0.0682 11.1753,-1.9455 20.9903,-6.0413 2.132,3.6371 4.2193,5.6949 6.2619,6.1736 z m -8.8196,6.0855 c 2.132,3.6371 4.2193,5.6949 6.2619,6.1736 l 10.5392,0 -1.5434,6.791 -7.4083,0 c -1.4544,0.0996 -3.8504,-1.7083 -7.1879,-7.1437 -14.0116,5.9546 -19.7737,7.1746 -22.3133,7.0996 l -14.5521,0 1.1907,-6.8351 14.0229,-0.0441 c 4.1785,0.0682 11.1753,-1.9455 20.9903,-6.0413 z m -37.659,18.4326 14.0229,-0.0441 c 4.1785,0.0682 11.1753,-1.9455 20.9903,-6.0413 2.132,3.6371 4.2193,5.6949 6.2619,6.1736 l 10.5392,0 -1.5434,6.791 -7.4083,0 c -1.4544,0.0996 -3.8504,-1.7083 -7.1879,-7.1437 -14.0116,5.9546 -19.7737,7.1746 -22.3133,7.0996 l -14.5521,0 1.1907,-6.8351 z m 107.592,-24.6119 9.1723,0 0.7496,18.5649 8.8636,-18.7413 8.9076,0.0882 -3.4396,32.1028 -7.2319,-0.0882 2.5576,-19.3146 -9.1722,19.491 -5.8208,0 -1.2348,-19.6674 -5.468,19.5792 -7.4966,0 9.6132,-32.0146 z m -16.6687,-0.3528 8.2903,0 -6.6146,32.632 -8.2021,0 6.5264,-32.632 z m -29.0157,7.6727 1.4111,-7.4965 22.5775,-0.088 -1.4108,7.6727 -7.232,0 -5.0271,24.6945 -8.2021,0 5.1153,-24.7827 -7.2319,0 z"
           id="path3007"
           style="fill:#1a4078" />
        <path
           inkscape:connector-curvature="0"
           d="m 56.1754,125.775 c 2.5396,0.075 8.3017,-1.145 22.3133,-7.0996 3.3375,5.4354 5.7335,7.2433 7.1879,7.1437 l 7.4083,0 1.5434,-6.791 -10.5392,0 c -2.0426,-0.4787 -4.1299,-2.5365 -6.2619,-6.1736 -9.815,4.0958 -16.8118,6.1095 -20.9903,6.0413 l -14.0229,0.0441 -1.1907,6.8351 14.5521,0 z"
           id="path3009"
           style="fill:#d12236;stroke:#d12236;stroke-width:0.25" />
        <path
           inkscape:connector-curvature="0"
           d="m 75.2695,125.114 c -9.815,4.0958 -16.8118,6.1095 -20.9903,6.0413 l -14.0229,0.0441 -1.1907,6.8351 14.5521,0 c 2.5396,0.075 8.3017,-1.145 22.3133,-7.0996 3.3375,5.4354 5.7335,7.2433 7.1879,7.1437 l 7.4083,0 1.5434,-6.791 -10.5392,0 c -2.0426,-0.4787 -4.1299,-2.5365 -6.2619,-6.1736 z"
           id="path3011"
           style="fill:#d12236;stroke:#d12236;stroke-width:0.25" />
        <path
           inkscape:connector-curvature="0"
           d="m 72.6237,137.461 c -9.815,4.0958 -16.8118,6.1095 -20.9903,6.0413 l -14.0229,0.0441 -1.1907,6.8351 14.5521,0 c 2.5396,0.075 8.3017,-1.145 22.3133,-7.0996 3.3375,5.4354 5.7335,7.2433 7.1879,7.1437 l 7.4083,0 1.5434,-6.791 -10.5392,0 c -2.0426,-0.4787 -4.1299,-2.5365 -6.2619,-6.1736 z"
           id="path3013"
           style="fill:#d12236;stroke:#d12236;stroke-width:0.25" />
      </g>
    </g>
  </g>
  <path
     style="fill:#ac39ac;fill-opacity:1"
     d="M 28.746858,190.31911 C 26.682618,189.7709 22.785608,187.33712 20.086858,184.91071 C 11.728268,177.39562 11.999218,179.87054 12.005608,111.09441 C 12.009388,70.369599 12.366768,49.734285 13.115268,47.022546 C 14.742678,41.126574 23.351398,32.809807 28.714658,31.952188 L 32.819698,31.295765 L 33.159858,21.511752 C 33.561208,9.9678712 34.931678,7.5225464 41.000028,7.5225464 C 46.920558,7.5225464 48.000028,9.5569247 48.000028,20.714797 L 48.000028,30.249567 L 65.250028,30.730326 C 80.167758,31.146084 83.050068,31.492757 86.568238,33.294399 C 91.917048,36.033498 97.603388,42.431893 98.927898,47.201767 C 99.621378,49.699137 99.990808,71.829728 99.994448,111.09441 C 100.00084,179.83865 100.26692,177.4 91.943208,184.88373 C 88.861178,187.65474 85.419108,189.6832 82.590388,190.39548 C 77.041498,191.79271 34.066098,191.73175 28.746858,190.31911 z M 89.800028,94.322546 C 91.067968,93.0546 91.603008,52.257454 90.393038,49.104333 C 89.856368,47.705788 85.930038,47.522546 56.500028,47.522546 C 27.070018,47.522546 23.143688,47.705788 22.607018,49.104333 C 21.397048,52.257454 21.932078,93.0546 23.200028,94.322546 C 24.917058,96.039576 88.082998,96.039576 89.800028,94.322546 z "
     id="path9598" />
</svg>
