<?xml version="1.0" encoding="UTF-8" standalone="no"?>
<!-- Created with Inkscape (http://www.inkscape.org/) -->

<svg
   xmlns:dc="http://purl.org/dc/elements/1.1/"
   xmlns:cc="http://creativecommons.org/ns#"
   xmlns:rdf="http://www.w3.org/1999/02/22-rdf-syntax-ns#"
   xmlns:svg="http://www.w3.org/2000/svg"
   xmlns="http://www.w3.org/2000/svg"
   xmlns:sodipodi="http://sodipodi.sourceforge.net/DTD/sodipodi-0.dtd"
   xmlns:inkscape="http://www.inkscape.org/namespaces/inkscape"
   id="svg9569"
   sodipodi:version="0.32"
   inkscape:version="0.48.5 r10040"
   width="112"
   height="197"
   version="1.0"
   sodipodi:docname="mobile_phones_vivo.svg"
   inkscape:output_extension="org.inkscape.output.svg.inkscape">
  <metadata
     id="metadata9574">
    <rdf:RDF>
      <cc:Work
         rdf:about="">
        <dc:format>image/svg+xml</dc:format>
        <dc:type
           rdf:resource="http://purl.org/dc/dcmitype/StillImage" />
        <dc:title></dc:title>
        <cc:license
           rdf:resource="http://creativecommons.org/licenses/publicdomain/" />
      </cc:Work>
      <cc:License
         rdf:about="http://creativecommons.org/licenses/publicdomain/">
        <cc:permits
           rdf:resource="http://creativecommons.org/ns#Reproduction" />
        <cc:permits
           rdf:resource="http://creativecommons.org/ns#Distribution" />
        <cc:permits
           rdf:resource="http://creativecommons.org/ns#DerivativeWorks" />
      </cc:License>
    </rdf:RDF>
  </metadata>
  <defs
     id="defs9572">
    <inkscape:perspective
       sodipodi:type="inkscape:persp3d"
       inkscape:vp_x="0 : 98.5 : 1"
       inkscape:vp_y="0 : 1000 : 0"
       inkscape:vp_z="112 : 98.5 : 1"
       inkscape:persp3d-origin="56 : 65.666667 : 1"
       id="perspective2511" />
  </defs>
  <sodipodi:namedview
     inkscape:window-height="855"
     inkscape:window-width="1280"
     inkscape:pageshadow="2"
     inkscape:pageopacity="0.0"
     guidetolerance="10.0"
     gridtolerance="10.0"
     objecttolerance="10.0"
     borderopacity="1.0"
     bordercolor="#666666"
     pagecolor="#ffffff"
     id="base"
     inkscape:zoom="3.9697844"
     inkscape:cx="12.168904"
     inkscape:cy="97.532914"
     inkscape:window-x="0"
     inkscape:window-y="0"
     inkscape:current-layer="svg9569"
     showgrid="false"
     inkscape:window-maximized="0" />
  <path
     style="fill:#ac39ac;fill-opacity:1"
     d="M 28.746858,190.31911 C 26.682618,189.7709 22.785608,187.33712 20.086858,184.91071 C 11.728268,177.39562 11.999218,179.87054 12.005608,111.09441 C 12.009388,70.369599 12.366768,49.734285 13.115268,47.022546 C 14.742678,41.126574 23.351398,32.809807 28.714658,31.952188 L 32.819698,31.295765 L 33.159858,21.511752 C 33.561208,9.9678712 34.931678,7.5225464 41.000028,7.5225464 C 46.920558,7.5225464 48.000028,9.5569247 48.000028,20.714797 L 48.000028,30.249567 L 65.250028,30.730326 C 80.167758,31.146084 83.050068,31.492757 86.568238,33.294399 C 91.917048,36.033498 97.603388,42.431893 98.927898,47.201767 C 99.621378,49.699137 99.990808,71.829728 99.994448,111.09441 C 100.00084,179.83865 100.26692,177.4 91.943208,184.88373 C 88.861178,187.65474 85.419108,189.6832 82.590388,190.39548 C 77.041498,191.79271 34.066098,191.73175 28.746858,190.31911 z M 89.800028,94.322546 C 91.067968,93.0546 91.603008,52.257454 90.393038,49.104333 C 89.856368,47.705788 85.930038,47.522546 56.500028,47.522546 C 27.070018,47.522546 23.143688,47.705788 22.607018,49.104333 C 21.397048,52.257454 21.932078,93.0546 23.200028,94.322546 C 24.917058,96.039576 88.082998,96.039576 89.800028,94.322546 z "
     id="path9598" />
  <g
     transform="matrix(0.11055628,0,0,0.11055628,14.688297,14.264857)"
     id="layer1">
    <g
       transform="translate(25.714285,-32.857144)"
       id="layer1-0">
      <g
         transform="matrix(3.543307,0,0,3.543307,-36.472893,42.149911)"
         id="g3020"
         style="fill-rule:evenodd">
        <g
           id="Camada_x0020_1">
          <metadata
             id="CorelCorpID_0Corel-Layer" />
          <path
             inkscape:connector-curvature="0"
             d="m 79.5533,131.426 0,36.9757 c 0,0 -0.3612,1.3527 2.8856,1.4431 l 9.5597,0 c 0,0 1.8038,0.1803 1.8038,-1.8038 l 0,-37.3365 c 0,0 0.3608,-1.2627 -1.9842,-1.2627 l -10.1008,-0.1803 c 0,0 -2.3445,-0.3604 -2.1641,2.1645 z"
             id="path2993"
             style="fill:none" />
          <ellipse
             sodipodi:ry="8.1164598"
             sodipodi:rx="8.3870296"
             sodipodi:cy="113.707"
             sodipodi:cx="86.630997"
             cx="86.630997"
             cy="113.707"
             rx="8.3870296"
             ry="8.1164598"
             id="ellipse2995"
             style="fill:none"
             d="m 95.018026,113.707 c 0,4.4826 -3.755001,8.11646 -8.387029,8.11646 -4.632029,0 -8.38703,-3.63386 -8.38703,-8.11646 0,-4.4826 3.755001,-8.11646 8.38703,-8.11646 4.632028,0 8.387029,3.63386 8.387029,8.11646 z" />
          <ellipse
             sodipodi:ry="8.8379698"
             sodipodi:rx="8.6575899"
             sodipodi:cy="149.463"
             sodipodi:cx="174.427"
             cx="174.427"
             cy="149.463"
             rx="8.6575899"
             ry="8.8379698"
             id="ellipse2997"
             style="fill:none"
             d="m 183.08459,149.463 c 0,4.88107 -3.87613,8.83797 -8.65759,8.83797 -4.78145,0 -8.65759,-3.9569 -8.65759,-8.83797 0,-4.88108 3.87614,-8.83797 8.65759,-8.83797 4.78146,0 8.65759,3.95689 8.65759,8.83797 z" />
          <ellipse
             sodipodi:ry="21.5541"
             sodipodi:rx="21.6443"
             sodipodi:cy="149.55299"
             sodipodi:cx="174.427"
             cx="174.427"
             cy="149.55299"
             rx="21.6443"
             ry="21.5541"
             id="ellipse2999"
             style="fill:none"
             d="m 196.0713,149.55299 c 0,11.904 -9.69048,21.5541 -21.6443,21.5541 -11.95382,0 -21.6443,-9.6501 -21.6443,-21.5541 0,-11.904 9.69048,-21.5541 21.6443,-21.5541 11.95382,0 21.6443,9.6501 21.6443,21.5541 z" />
          <path
             inkscape:connector-curvature="0"
             d="m 127.26,169.394 -5.8621,-0.0904 c 0,0 -1.0823,0.0904 -1.8938,-0.8115 L 99.8436,135.7547 c 0,0 -1.3531,-1.9846 0.0904,-2.976 l 7.4851,-6.1325 c 0,0 1.8938,-1.6239 3.878,1.4426 l 13.4376,22.6366 12.8965,-23.1777 c 0,0 0.9015,-1.9838 3.878,0.0903 l 6.8544,3.968 c 0,0 2.3441,0.9019 0.6311,3.8779 l -20.2917,33.0082 c 0,0 -0.4487,0.7534 -1.443,0.9019 z"
             id="path3001"
             style="fill:none" />
          <path
             inkscape:connector-curvature="0"
             d="m 50.0623,169.394 -5.8622,-0.0904 c 0,0 -1.0822,0.0904 -1.8937,-0.8115 L 22.6458,135.7547 c 0,0 -1.353,-1.9846 0.0904,-2.976 l 7.4851,-6.1325 c 0,0 1.8938,-1.6239 3.878,1.4426 l 13.4376,22.6366 12.8966,-23.1777 c 0,0 0.811,-2.0742 3.8779,0.0903 l 6.8544,3.968 c 0,0 2.3441,0.9019 0.6311,3.8779 l -20.2916,33.0082 c 0,0 -0.4487,0.7534 -1.443,0.9019 z"
             id="path3003"
             style="fill:none" />
          <path
             inkscape:connector-curvature="0"
             d="m 30.2213,126.646 -7.4851,6.1325 c -1.4434,0.9914 -0.0904,2.976 -0.0904,2.976 l 19.6606,32.7374 c 0.8115,0.9019 1.8937,0.8115 1.8937,0.8115 l 5.8622,0.0904 c 0.9943,-0.1485 1.443,-0.9019 1.443,-0.9019 l 20.2916,-33.0082 c 1.713,-2.976 -0.6311,-3.8779 -0.6311,-3.8779 l -6.8544,-3.968 c -3.0669,-2.1645 -3.8779,-0.0903 -3.8779,-0.0903 L 47.5369,150.7252 34.0993,128.0886 c -1.9842,-3.0665 -3.878,-1.4426 -3.878,-1.4426 z"
             id="path3005"
             style="fill:#652c90" />
          <path
             inkscape:connector-curvature="0"
             d="m 79.5533,131.426 0,36.9757 c 0,0 -0.3612,1.3527 2.8856,1.4431 l 9.5597,0 c 0,0 1.8038,0.1803 1.8038,-1.8038 l 0,-36.42936 c 0,0 0.3608,-2.16984 -1.9842,-2.16984 l -10.1008,-0.1803 c 0,0 -2.3445,-0.3604 -2.1641,2.1645 z"
             id="path3007"
             style="fill:#652c90" />
          <path
             inkscape:connector-curvature="0"
             d="m 78.244,113.707 c 0,4.4825 3.7548,8.1163 8.387,8.1163 4.6322,0 8.387,-3.6338 8.387,-8.1163 0,-4.4829 -3.7548,-8.1166 -8.387,-8.1166 -4.6322,0 -8.387,3.6337 -8.387,8.1166 z"
             id="path3009"
             style="fill:#652c90" />
          <path
             inkscape:connector-curvature="0"
             d="m 99.9341,132.778 c -1.4435,0.9914 -0.0904,2.976 -0.0904,2.976 l 19.6605,32.7374 c 0.8115,0.9019 1.8938,0.8115 1.8938,0.8115 l 5.8621,0.0904 c 0.9943,-0.1485 1.443,-0.9019 1.443,-0.9019 l 20.2917,-33.0082 c 1.713,-2.976 -0.6311,-3.8779 -0.6311,-3.8779 l -6.8544,-3.968 c -2.9765,-2.0741 -3.878,-0.0903 -3.878,-0.0903 l -12.8965,23.1777 -13.4376,-22.6366 c -1.9842,-3.0665 -3.878,-1.4426 -3.878,-1.4426 l -7.4851,6.1325 z"
             id="path3011"
             style="fill:#652c90" />
          <path
             inkscape:connector-curvature="0"
             d="m 174.429,127.999 c -11.9558,0 -21.6455,9.6501 -21.6455,21.5543 0,11.9038 9.6897,21.5539 21.6455,21.5539 11.9533,0 21.6431,-9.6501 21.6431,-21.5539 0,-11.9042 -9.6898,-21.5543 -21.6431,-21.5543 z m -8.659,21.4635 c 0,-4.8813 3.8759,-8.8377 8.6578,-8.8377 4.7815,0 8.6574,3.9564 8.6574,8.8377 0,4.8817 -3.8759,8.8382 -8.6574,8.8382 -4.7819,0 -8.6578,-3.9565 -8.6578,-8.8382 z"
             id="path3013"
             style="fill:#652c90" />
        </g>
      </g>
    </g>
  </g>
</svg>
