<?xml version="1.0" encoding="UTF-8" standalone="no"?>
<!-- Created with Inkscape (http://www.inkscape.org/) -->

<svg
   xmlns:dc="http://purl.org/dc/elements/1.1/"
   xmlns:cc="http://creativecommons.org/ns#"
   xmlns:rdf="http://www.w3.org/1999/02/22-rdf-syntax-ns#"
   xmlns:svg="http://www.w3.org/2000/svg"
   xmlns="http://www.w3.org/2000/svg"
   xmlns:sodipodi="http://sodipodi.sourceforge.net/DTD/sodipodi-0.dtd"
   xmlns:inkscape="http://www.inkscape.org/namespaces/inkscape"
   id="svg9569"
   sodipodi:version="0.32"
   inkscape:version="0.48.1 "
   width="112"
   height="197"
   version="1.0"
   sodipodi:docname="mobile_phones_claro.svg"
   inkscape:output_extension="org.inkscape.output.svg.inkscape">
  <metadata
     id="metadata9574">
    <rdf:RDF>
      <cc:Work
         rdf:about="">
        <dc:format>image/svg+xml</dc:format>
        <dc:type
           rdf:resource="http://purl.org/dc/dcmitype/StillImage" />
        <dc:title />
      </cc:Work>
    </rdf:RDF>
  </metadata>
  <defs
     id="defs9572">
    <inkscape:perspective
       sodipodi:type="inkscape:persp3d"
       inkscape:vp_x="0 : 98.5 : 1"
       inkscape:vp_y="0 : 1000 : 0"
       inkscape:vp_z="112 : 98.5 : 1"
       inkscape:persp3d-origin="56 : 65.666667 : 1"
       id="perspective2511" />
    <radialGradient
       id="SVGID_1_"
       cx="370.8699"
       cy="-1252.4304"
       r="249.9705"
       gradientTransform="translate(-120.8999,1502.4004)"
       gradientUnits="userSpaceOnUse">
      <stop
         offset="0"
         style="stop-color:#FF0A1A"
         id="stop6" />
      <stop
         offset="0.2371"
         style="stop-color:#FC0A19"
         id="stop8" />
      <stop
         offset="0.4364"
         style="stop-color:#F10916"
         id="stop10" />
      <stop
         offset="0.6214"
         style="stop-color:#E00711"
         id="stop12" />
      <stop
         offset="0.678"
         style="stop-color:#D9060F"
         id="stop14" />
      <stop
         offset="0.9512"
         style="stop-color:#A10000"
         id="stop16" />
      <stop
         offset="1"
         style="stop-color:#800000"
         id="stop18" />
    </radialGradient>
    <radialGradient
       id="SVGID_2_"
       cx="248.90311"
       cy="140.8201"
       r="158.9894"
       fx="250.34109"
       fy="17.0147"
       gradientTransform="matrix(1,0,0,0.743,0,36.1911)"
       gradientUnits="userSpaceOnUse">
      <stop
         offset="0"
         style="stop-color:#F2F2F2"
         id="stop23" />
      <stop
         offset="0.9756"
         style="stop-color:#F2F2F2;stop-opacity:0.1"
         id="stop25" />
      <stop
         offset="1"
         style="stop-color:#F2F2F2;stop-opacity:0"
         id="stop27" />
    </radialGradient>
    <linearGradient
       id="SVGID_3_"
       gradientUnits="userSpaceOnUse"
       x1="249.97"
       y1="35.469501"
       x2="249.97"
       y2="295.47141">
      <stop
         offset="0"
         style="stop-color:#F2F2F2"
         id="stop32" />
      <stop
         offset="0.4732"
         style="stop-color:#F2F2F2;stop-opacity:0.2822"
         id="stop34" />
      <stop
         offset="0.6488"
         style="stop-color:#F2F2F2;stop-opacity:0"
         id="stop36" />
      <stop
         offset="0.7854"
         style="stop-color:#F2F2F2;stop-opacity:0.086"
         id="stop38" />
    </linearGradient>
    <linearGradient
       id="SVGID_4_"
       gradientUnits="userSpaceOnUse"
       x1="249.96899"
       y1="36.9021"
       x2="249.96899"
       y2="293.99179">
      <stop
         offset="0"
         style="stop-color:#F2F2F2"
         id="stop43" />
      <stop
         offset="0.4732"
         style="stop-color:#F2F2F2;stop-opacity:0.2822"
         id="stop45" />
      <stop
         offset="0.6488"
         style="stop-color:#F2F2F2;stop-opacity:0"
         id="stop47" />
      <stop
         offset="0.7854"
         style="stop-color:#F2F2F2;stop-opacity:0.086"
         id="stop49" />
    </linearGradient>
    <linearGradient
       id="SVGID_5_"
       gradientUnits="userSpaceOnUse"
       x1="249.96899"
       y1="38.582298"
       x2="249.96899"
       y2="292.2572">
      <stop
         offset="0"
         style="stop-color:#F2F2F2"
         id="stop54" />
      <stop
         offset="0.4732"
         style="stop-color:#F2F2F2;stop-opacity:0.2822"
         id="stop56" />
      <stop
         offset="0.6488"
         style="stop-color:#F2F2F2;stop-opacity:0"
         id="stop58" />
      <stop
         offset="0.7854"
         style="stop-color:#F2F2F2;stop-opacity:0.086"
         id="stop60" />
    </linearGradient>
    <linearGradient
       id="SVGID_6_"
       gradientUnits="userSpaceOnUse"
       x1="249.96899"
       y1="40.492901"
       x2="249.96899"
       y2="290.28491">
      <stop
         offset="0"
         style="stop-color:#F2F2F2"
         id="stop65" />
      <stop
         offset="0.4732"
         style="stop-color:#F2F2F2;stop-opacity:0.2822"
         id="stop67" />
      <stop
         offset="0.6488"
         style="stop-color:#F2F2F2;stop-opacity:0"
         id="stop69" />
      <stop
         offset="0.7854"
         style="stop-color:#F2F2F2;stop-opacity:0.086"
         id="stop71" />
    </linearGradient>
    <linearGradient
       id="SVGID_7_"
       gradientUnits="userSpaceOnUse"
       x1="249.97"
       y1="42.155998"
       x2="249.97"
       y2="288.56729">
      <stop
         offset="0"
         style="stop-color:#F2F2F2"
         id="stop76" />
      <stop
         offset="0.4732"
         style="stop-color:#F2F2F2;stop-opacity:0.2822"
         id="stop78" />
      <stop
         offset="0.6488"
         style="stop-color:#F2F2F2;stop-opacity:0"
         id="stop80" />
      <stop
         offset="0.7854"
         style="stop-color:#F2F2F2;stop-opacity:0.086"
         id="stop82" />
    </linearGradient>
    <radialGradient
       id="SVGID_8_"
       cx="248.06081"
       cy="411.55249"
       r="59.418598"
       gradientTransform="matrix(1,0,0,0.6409,0,147.777)"
       gradientUnits="userSpaceOnUse">
      <stop
         offset="0"
         style="stop-color:#F2F2F2;stop-opacity:0.83"
         id="stop87" />
      <stop
         offset="0.322"
         style="stop-color:#F2F2F2;stop-opacity:0.38"
         id="stop89" />
      <stop
         offset="1"
         style="stop-color:#F2F2F2;stop-opacity:0"
         id="stop91" />
    </radialGradient>
    <radialGradient
       id="SVGID_9_"
       cx="249.5603"
       cy="381.55441"
       r="139.5249"
       gradientTransform="matrix(1,0,0,0.7089,0,111.0807)"
       gradientUnits="userSpaceOnUse">
      <stop
         offset="0"
         style="stop-color:#F2F2F2"
         id="stop96" />
      <stop
         offset="0.2439"
         style="stop-color:#F2F2F2;stop-opacity:0.9171"
         id="stop98" />
      <stop
         offset="0.4049"
         style="stop-color:#F2F2F2;stop-opacity:0.781"
         id="stop100" />
      <stop
         offset="0.639"
         style="stop-color:#F2F2F2;stop-opacity:0.4993"
         id="stop102" />
      <stop
         offset="0.8537"
         style="stop-color:#F2F2F2;stop-opacity:0.2497"
         id="stop104" />
      <stop
         offset="1"
         style="stop-color:#F2F2F2;stop-opacity:0"
         id="stop106" />
    </radialGradient>
    <radialGradient
       id="SVGID_10_"
       cx="249.4695"
       cy="307.46951"
       r="221.009"
       gradientUnits="userSpaceOnUse">
      <stop
         offset="0"
         style="stop-color:#FFFFFF"
         id="stop113" />
      <stop
         offset="0.2611"
         style="stop-color:#F5F5F5"
         id="stop115" />
      <stop
         offset="0.761"
         style="stop-color:#E5E5E5"
         id="stop117" />
    </radialGradient>
  </defs>
  <sodipodi:namedview
     inkscape:window-height="968"
     inkscape:window-width="1280"
     inkscape:pageshadow="2"
     inkscape:pageopacity="0.0"
     guidetolerance="10.0"
     gridtolerance="10.0"
     objecttolerance="10.0"
     borderopacity="1.0"
     bordercolor="#666666"
     pagecolor="#ffffff"
     id="base"
     inkscape:zoom="4.1764307"
     inkscape:cx="56"
     inkscape:cy="97.532914"
     inkscape:window-x="-4"
     inkscape:window-y="-4"
     inkscape:current-layer="svg9569"
     showgrid="false"
     inkscape:window-maximized="1" />
  <g
     id="g3"
     transform="matrix(0.09762662,0,0,0.09762662,32.532574,47.07641)">
    <radialGradient
       id="radialGradient3165"
       cx="370.8699"
       cy="-1252.4304"
       r="249.9705"
       gradientTransform="translate(-120.8999,1502.4004)"
       gradientUnits="userSpaceOnUse">
      <stop
         offset="0"
         style="stop-color:#FF0A1A"
         id="stop3167" />
      <stop
         offset="0.2371"
         style="stop-color:#FC0A19"
         id="stop3169" />
      <stop
         offset="0.4364"
         style="stop-color:#F10916"
         id="stop3171" />
      <stop
         offset="0.6214"
         style="stop-color:#E00711"
         id="stop3173" />
      <stop
         offset="0.678"
         style="stop-color:#D9060F"
         id="stop3175" />
      <stop
         offset="0.9512"
         style="stop-color:#A10000"
         id="stop3177" />
      <stop
         offset="1"
         style="stop-color:#800000"
         id="stop3179" />
    </radialGradient>
    <circle
       style="fill:url(#SVGID_1_)"
       sodipodi:ry="249.97"
       sodipodi:rx="249.97"
       sodipodi:cy="249.97"
       sodipodi:cx="249.97"
       d="m 499.94,249.97 c 0,138.05462 -111.91538,249.97 -249.97,249.97 C 111.91538,499.94 0,388.02462 0,249.97 0,111.91538 111.91538,0 249.97,0 388.02462,0 499.94,111.91538 499.94,249.97 z"
       cx="249.97"
       cy="249.97"
       r="249.97"
       id="circle20" />
    <radialGradient
       id="radialGradient3182"
       cx="248.90311"
       cy="140.8201"
       r="158.9894"
       fx="250.34109"
       fy="17.0147"
       gradientTransform="matrix(1,0,0,0.743,0,36.1911)"
       gradientUnits="userSpaceOnUse">
      <stop
         offset="0"
         style="stop-color:#F2F2F2"
         id="stop3184" />
      <stop
         offset="0.9756"
         style="stop-color:#F2F2F2;stop-opacity:0.1"
         id="stop3186" />
      <stop
         offset="1"
         style="stop-color:#F2F2F2;stop-opacity:0"
         id="stop3188" />
    </radialGradient>
    <path
       style="fill:url(#SVGID_2_);display:none"
       inkscape:connector-curvature="0"
       display="none"
       d="m 249.969,307.305 c -41.151,0 -81.588,-18.99 -113.863,-53.472 -29.329,-31.334 -46.838,-70.566 -46.838,-104.945 0,-33.673 17.452,-66.991 47.88,-91.411 30.539,-24.508 70.606,-38.006 112.821,-38.006 42.215,0 82.282,13.498 112.82,38.006 30.429,24.42 47.881,57.738 47.881,91.411 0,34.379 -17.51,73.611 -46.839,104.945 -32.274,34.482 -72.711,53.472 -113.862,53.472 z"
       id="path29" />
    <linearGradient
       id="linearGradient3191"
       gradientUnits="userSpaceOnUse"
       x1="249.97"
       y1="35.469501"
       x2="249.97"
       y2="295.47141">
      <stop
         offset="0"
         style="stop-color:#F2F2F2"
         id="stop3193" />
      <stop
         offset="0.4732"
         style="stop-color:#F2F2F2;stop-opacity:0.2822"
         id="stop3195" />
      <stop
         offset="0.6488"
         style="stop-color:#F2F2F2;stop-opacity:0"
         id="stop3197" />
      <stop
         offset="0.7854"
         style="stop-color:#F2F2F2;stop-opacity:0.086"
         id="stop3199" />
    </linearGradient>
    <path
       style="opacity:0.2;fill:url(#SVGID_3_)"
       inkscape:connector-curvature="0"
       enable-background="new    "
       d="m 249.969,29.471 c 77.084,0 147.575,55.674 147.575,119.417 0,63.742 -70.491,148.417 -147.575,148.417 -77.085,0 -147.574,-84.675 -147.574,-148.417 0,-63.743 70.489,-119.417 147.574,-119.417 z"
       id="path40" />
    <linearGradient
       id="linearGradient3202"
       gradientUnits="userSpaceOnUse"
       x1="249.96899"
       y1="36.9021"
       x2="249.96899"
       y2="293.99179">
      <stop
         offset="0"
         style="stop-color:#F2F2F2"
         id="stop3204" />
      <stop
         offset="0.4732"
         style="stop-color:#F2F2F2;stop-opacity:0.2822"
         id="stop3206" />
      <stop
         offset="0.6488"
         style="stop-color:#F2F2F2;stop-opacity:0"
         id="stop3208" />
      <stop
         offset="0.7854"
         style="stop-color:#F2F2F2;stop-opacity:0.086"
         id="stop3210" />
    </linearGradient>
    <path
       style="opacity:0.2;fill:url(#SVGID_4_)"
       inkscape:connector-curvature="0"
       enable-background="new    "
       d="m 249.969,30.971 c 76.221,0 146.011,55.05 146.011,118.08 0,63.028 -69.79,146.754 -146.011,146.754 -76.222,0 -146.011,-83.727 -146.011,-146.754 0,-63.029 69.789,-118.08 146.011,-118.08 z"
       id="path51" />
    <linearGradient
       id="linearGradient3213"
       gradientUnits="userSpaceOnUse"
       x1="249.96899"
       y1="38.582298"
       x2="249.96899"
       y2="292.2572">
      <stop
         offset="0"
         style="stop-color:#F2F2F2"
         id="stop3215" />
      <stop
         offset="0.4732"
         style="stop-color:#F2F2F2;stop-opacity:0.2822"
         id="stop3217" />
      <stop
         offset="0.6488"
         style="stop-color:#F2F2F2;stop-opacity:0"
         id="stop3219" />
      <stop
         offset="0.7854"
         style="stop-color:#F2F2F2;stop-opacity:0.086"
         id="stop3221" />
    </linearGradient>
    <path
       style="opacity:0.2;fill:url(#SVGID_5_)"
       inkscape:connector-curvature="0"
       enable-background="new    "
       d="m 249.969,32.73 c 75.209,0 144.178,54.319 144.178,116.511 0,62.191 -68.969,144.805 -144.178,144.805 -75.209,0 -144.178,-82.614 -144.178,-144.805 0,-62.192 68.969,-116.511 144.178,-116.511 z"
       id="path62" />
    <linearGradient
       id="linearGradient3224"
       gradientUnits="userSpaceOnUse"
       x1="249.96899"
       y1="40.492901"
       x2="249.96899"
       y2="290.28491">
      <stop
         offset="0"
         style="stop-color:#F2F2F2"
         id="stop3226" />
      <stop
         offset="0.4732"
         style="stop-color:#F2F2F2;stop-opacity:0.2822"
         id="stop3228" />
      <stop
         offset="0.6488"
         style="stop-color:#F2F2F2;stop-opacity:0"
         id="stop3230" />
      <stop
         offset="0.7854"
         style="stop-color:#F2F2F2;stop-opacity:0.086"
         id="stop3232" />
    </linearGradient>
    <path
       style="opacity:0.2;fill:url(#SVGID_6_)"
       inkscape:connector-curvature="0"
       enable-background="new    "
       d="m 249.969,34.73 c 74.355,0 142.634,53.487 142.634,114.728 0,61.239 -68.278,142.589 -142.634,142.589 -74.357,0 -142.634,-81.35 -142.634,-142.589 C 107.336,88.218 175.613,34.73 249.969,34.73 z"
       id="path73" />
    <linearGradient
       id="linearGradient3235"
       gradientUnits="userSpaceOnUse"
       x1="249.97"
       y1="42.155998"
       x2="249.97"
       y2="288.56729">
      <stop
         offset="0"
         style="stop-color:#F2F2F2"
         id="stop3237" />
      <stop
         offset="0.4732"
         style="stop-color:#F2F2F2;stop-opacity:0.2822"
         id="stop3239" />
      <stop
         offset="0.6488"
         style="stop-color:#F2F2F2;stop-opacity:0"
         id="stop3241" />
      <stop
         offset="0.7854"
         style="stop-color:#F2F2F2;stop-opacity:0.086"
         id="stop3243" />
    </linearGradient>
    <path
       style="opacity:0.52999998;fill:url(#SVGID_7_)"
       inkscape:connector-curvature="0"
       enable-background="new    "
       d="m 249.969,36.471 c 73.055,0 140.279,52.764 140.279,113.175 0,60.411 -67.225,140.659 -140.279,140.659 -73.056,0 -140.278,-80.249 -140.278,-140.659 0,-60.411 67.223,-113.175 140.278,-113.175 z"
       id="path84" />
    <radialGradient
       id="radialGradient3246"
       cx="248.06081"
       cy="411.55249"
       r="59.418598"
       gradientTransform="matrix(1,0,0,0.6409,0,147.777)"
       gradientUnits="userSpaceOnUse">
      <stop
         offset="0"
         style="stop-color:#F2F2F2;stop-opacity:0.83"
         id="stop3248" />
      <stop
         offset="0.322"
         style="stop-color:#F2F2F2;stop-opacity:0.38"
         id="stop3250" />
      <stop
         offset="1"
         style="stop-color:#F2F2F2;stop-opacity:0"
         id="stop3252" />
    </radialGradient>
    <ellipse
       style="opacity:0.5;fill:url(#SVGID_8_)"
       sodipodi:ry="169.383"
       sodipodi:rx="181.39101"
       sodipodi:cy="309.853"
       sodipodi:cx="249.96899"
       d="m 431.36,309.853 c 0,93.54764 -81.21152,169.38299 -181.39101,169.38299 -100.17948,0 -181.391002,-75.83535 -181.391002,-169.38299 0,-93.54765 81.211522,-169.383 181.391002,-169.383 100.17949,0 181.39101,75.83535 181.39101,169.383 z"
       enable-background="new    "
       cx="249.96899"
       cy="309.853"
       rx="181.39101"
       ry="169.383"
       id="ellipse93" />
    <radialGradient
       id="radialGradient3255"
       cx="249.5603"
       cy="381.55441"
       r="139.5249"
       gradientTransform="matrix(1,0,0,0.7089,0,111.0807)"
       gradientUnits="userSpaceOnUse">
      <stop
         offset="0"
         style="stop-color:#F2F2F2"
         id="stop3257" />
      <stop
         offset="0.2439"
         style="stop-color:#F2F2F2;stop-opacity:0.9171"
         id="stop3259" />
      <stop
         offset="0.4049"
         style="stop-color:#F2F2F2;stop-opacity:0.781"
         id="stop3261" />
      <stop
         offset="0.639"
         style="stop-color:#F2F2F2;stop-opacity:0.4993"
         id="stop3263" />
      <stop
         offset="0.8537"
         style="stop-color:#F2F2F2;stop-opacity:0.2497"
         id="stop3265" />
      <stop
         offset="1"
         style="stop-color:#F2F2F2;stop-opacity:0"
         id="stop3267" />
    </radialGradient>
    <ellipse
       style="opacity:0.5;fill:url(#SVGID_9_)"
       sodipodi:ry="169.383"
       sodipodi:rx="181.39101"
       sodipodi:cy="309.853"
       sodipodi:cx="249.96899"
       d="m 431.36,309.853 c 0,93.54764 -81.21152,169.38299 -181.39101,169.38299 -100.17948,0 -181.391002,-75.83535 -181.391002,-169.38299 0,-93.54765 81.211522,-169.383 181.391002,-169.383 100.17949,0 181.39101,75.83535 181.39101,169.383 z"
       enable-background="new    "
       cx="249.96899"
       cy="309.853"
       rx="181.39101"
       ry="169.383"
       id="ellipse108" />
    <g
       id="g110">
      <radialGradient
         id="radialGradient3271"
         cx="249.4695"
         cy="307.46951"
         r="221.009"
         gradientUnits="userSpaceOnUse">
        <stop
           offset="0"
           style="stop-color:#FFFFFF"
           id="stop3273" />
        <stop
           offset="0.2611"
           style="stop-color:#F5F5F5"
           id="stop3275" />
        <stop
           offset="0.761"
           style="stop-color:#E5E5E5"
           id="stop3277" />
      </radialGradient>
      <path
         style="fill:url(#SVGID_10_)"
         inkscape:connector-curvature="0"
         d="m 348.378,147.135 c 5.923,0.062 11.847,0.011 17.771,0.017 0.021,18.156 0.011,36.304 0,54.452 -5.923,0.005 -11.852,0.013 -17.774,0.005 0.003,-18.154 -0.013,-36.314 0.003,-54.474 M 387.7,208.59 c 16.275,-16.799 32.369,-33.802 48.63,-50.623 4.17,4.404 8.471,8.689 12.557,13.182 -16.093,16.951 -32.342,33.733 -48.445,50.668 -4.319,-4.335 -8.496,-8.818 -12.742,-13.227 M 75.994,198.613 c 4.484,-1.074 9.076,-1.676 13.679,-1.49 15.268,-0.367 30.099,7.676 39.559,19.999 4.5,5.833 7.788,12.689 9.609,19.927 -6.996,0.027 -13.991,0.005 -20.986,0.005 -3.083,-6.4 -7.804,-12.096 -13.964,-15.416 -3.396,-1.929 -7.131,-3.212 -10.968,-3.707 -3.583,-0.073 -7.248,-0.394 -10.757,0.551 -5.902,1.333 -11.388,4.561 -15.565,9.111 -5.45,5.343 -9.103,12.862 -9.426,20.714 -0.7,7.48 0.668,15.32 4.754,21.614 3.929,6.028 9.486,11.051 16.066,13.639 11.033,4.252 24.388,1.688 32.838,-6.995 2.845,-3.004 5.308,-6.451 7.098,-10.248 6.962,-0.034 13.926,-0.039 20.895,0 -1.725,7.678 -5.482,14.792 -10.229,20.888 -3.257,3.55 -6.452,7.268 -10.462,9.911 -17.996,12.93 -44.128,12.199 -61.047,-2.419 -5.259,-4.667 -10.068,-10.038 -13.372,-16.416 -6.09,-11.271 -7.609,-24.819 -5.454,-37.446 1.817,-10.702 7.206,-20.561 14.632,-28.103 6.264,-6.798 14.279,-11.928 23.1,-14.119 m 73.506,-1.498 c 6.645,0 13.296,0 19.94,0 -0.005,36.553 0.017,73.103 -0.01,109.655 -6.645,0.017 -13.286,-0.012 -19.931,-0.007 0.001,-36.55 0.001,-73.095 0.001,-109.648 m 60.255,21.827 c 3.779,-0.798 7.647,-0.347 11.468,-0.45 4.431,0.4 8.872,1.063 13.086,2.621 4.226,1.53 8.575,3.447 11.534,7.098 3.478,4.314 4.709,10.05 4.98,15.551 -0.011,21 0.018,42.006 -0.011,63.007 -6.743,-0.032 -13.489,0.147 -20.226,-0.09 -0.065,-2.856 0.053,-5.719 -0.044,-8.57 -5.87,5.28 -13.631,7.711 -21.24,8.323 -4.802,0.86 -9.771,0.085 -14.352,-1.518 -5.896,-2.047 -10.752,-7.165 -12.492,-13.408 -1.886,-6.659 -1.492,-13.948 0.711,-20.467 2.393,-6.643 8.16,-11.365 14.499,-13.521 8.12,-2.997 16.803,-3.459 25.2,-5.191 2.905,0 5.777,-1.872 6.855,-4.718 0.776,-3.109 0.103,-7.007 -2.522,-8.981 -2.889,-1.984 -6.419,-2.396 -9.792,-2.497 -3.002,0.095 -6.176,0.129 -8.834,1.788 -3.454,2.042 -5.006,6.103 -5.686,9.984 -6.677,-0.146 -13.361,0.01 -20.038,-0.112 0.831,-6.85 2.205,-14.162 6.916,-19.358 4.935,-6.027 12.583,-8.894 19.988,-9.491 m 14.697,47.406 c -3.945,0.95 -7.83,2.177 -11.841,2.812 -3.191,0.658 -6.549,1.732 -8.818,4.304 -3.152,3.886 -3.384,9.881 -0.938,14.206 1.062,1.984 3.17,2.958 5.131,3.667 6.327,1.276 13.274,-0.781 17.893,-5.518 4.737,-6.18 3.902,-14.55 3.886,-21.951 -1.862,0.619 -3.367,2.111 -5.313,2.48 m 73.907,-44.907 c 4.111,-1.052 8.153,-2.818 12.471,-2.396 0.048,7.097 0.416,14.205 0.274,21.309 -3.674,-0.528 -7.513,-0.956 -11.117,0.191 -7.778,2.245 -14.282,9.399 -15.193,17.892 -0.055,1.872 -0.539,3.699 -0.556,5.578 -0.011,14.257 0.017,28.509 0,42.767 -6.628,-0.019 -13.264,0.05 -19.893,-0.04 -0.075,-28.071 -0.017,-56.151 0.037,-84.227 6.425,-0.063 12.844,0.19 19.263,0.439 0.01,3.465 -0.082,6.934 0.044,10.405 3.756,-5.227 8.687,-9.748 14.67,-11.918 m 49.663,-2.177 c 2.959,-0.31 5.961,-0.603 8.941,-0.349 17.883,0.236 34.207,14.623 38.471,32.57 3.68,14.668 0.103,31.59 -10.543,42.231 -6.159,6.935 -14.61,11.642 -23.574,13.054 -4.321,0.038 -8.644,0.017 -12.96,0.012 -12.902,-1.896 -24.113,-11.086 -30.479,-22.723 -6.613,-12.772 -6.64,-28.963 -0.156,-41.798 6.156,-11.811 17.371,-21.068 30.3,-22.997 m 1.606,20.791 c -5.955,1.407 -11.025,5.765 -14.06,11.221 -4.533,7.946 -3.812,18.778 1.843,25.933 5.757,8.645 17.581,11.568 26.619,7.132 5.254,-2.464 9.265,-7.306 11.496,-12.784 2.473,-6.292 2.025,-13.678 -0.942,-19.7 -3.121,-6.091 -8.851,-10.877 -15.458,-11.973 -3.159,-0.267 -6.366,-0.363 -9.498,0.171 m 59.705,3.168 c 17.754,0 35.512,-0.013 53.271,0.011 -0.012,6.153 0.01,12.312 -0.007,18.47 -17.752,-0.022 -35.499,0.039 -53.252,0.012 -0.029,-6.165 0.02,-12.33 -0.012,-18.493 l 0,0 z"
         id="path119" />
    </g>
  </g>
  <path
     style="fill:#ac39ac;fill-opacity:1"
     d="M 28.746858,190.31911 C 26.682618,189.7709 22.785608,187.33712 20.086858,184.91071 C 11.728268,177.39562 11.999218,179.87054 12.005608,111.09441 C 12.009388,70.369599 12.366768,49.734285 13.115268,47.022546 C 14.742678,41.126574 23.351398,32.809807 28.714658,31.952188 L 32.819698,31.295765 L 33.159858,21.511752 C 33.561208,9.9678712 34.931678,7.5225464 41.000028,7.5225464 C 46.920558,7.5225464 48.000028,9.5569247 48.000028,20.714797 L 48.000028,30.249567 L 65.250028,30.730326 C 80.167758,31.146084 83.050068,31.492757 86.568238,33.294399 C 91.917048,36.033498 97.603388,42.431893 98.927898,47.201767 C 99.621378,49.699137 99.990808,71.829728 99.994448,111.09441 C 100.00084,179.83865 100.26692,177.4 91.943208,184.88373 C 88.861178,187.65474 85.419108,189.6832 82.590388,190.39548 C 77.041498,191.79271 34.066098,191.73175 28.746858,190.31911 z M 89.800028,94.322546 C 91.067968,93.0546 91.603008,52.257454 90.393038,49.104333 C 89.856368,47.705788 85.930038,47.522546 56.500028,47.522546 C 27.070018,47.522546 23.143688,47.705788 22.607018,49.104333 C 21.397048,52.257454 21.932078,93.0546 23.200028,94.322546 C 24.917058,96.039576 88.082998,96.039576 89.800028,94.322546 z "
     id="path9598" />
</svg>
